<?xml version="1.0" standalone="no"?>
<!DOCTYPE svg PUBLIC "-//W3C//DTD SVG 1.1//EN" "http://www.w3.org/Graphics/SVG/1.1/DTD/svg11.dtd" >
<svg>
<metadata>
Created by FontForge 20090914 at Mon Nov 23 22:30:31 2020
 By www-data
Copyright 2006 Volkswagen AG.
</metadata>
<defs>
<font id="VWHeadlineOT-Semibold" horiz-adv-x="580" >
  <font-face 
    font-family="VW Headline OT-Semibold"
    font-weight="600"
    font-stretch="normal"
    units-per-em="1000"
    panose-1="2 11 7 3 0 0 0 2 0 3"
    ascent="800"
    descent="-200"
    x-height="437.999"
    cap-height="709"
    bbox="-154 -277 1116 1007"
    underline-thickness="50"
    underline-position="-150"
    unicode-range="U+0020-U+FB04"
  />
<missing-glyph horiz-adv-x="308" 
 />
    <glyph glyph-name="ff" unicode="ff" horiz-adv-x="612" 
d="M78 349l-62.0029 -0.00292969v89h62v131c0 28 2.16699 53.333 6.5 76s12.333 41.834 24 57.501s27.334 27.834 47.001 36.501s44.834 13 75.501 13c13.333 0 27.166 -0.666992 41.499 -2s27.166 -3.66602 38.499 -6.99902l-12 -96c-15.333 3.33301 -30.666 5 -45.999 5
c-18.667 0 -32.334 -4 -41.001 -12c-7.33301 -7.33301 -12.5 -17 -15.5 -29s-4.5 -30.667 -4.5 -56v-117h183v135c0 28 2.16699 53.333 6.5 76s12.333 42 24 58s27.334 28.333 47.001 37s44.834 13 75.501 13c13.333 0 26.333 -0.666992 39 -2s23.667 -3 33 -5v-97
c-7.33301 1.33301 -15.166 2.33301 -23.499 3s-16.166 1 -23.499 1c-20.667 0 -35.334 -4 -44.001 -12c-7.33301 -7.33301 -12.5 -17 -15.5 -29s-4.5 -31 -4.5 -57v-121h106v-89h-106v-349h-114v349h-183v-349h-114v349z" />
    <glyph glyph-name="fi" unicode="fi" horiz-adv-x="549" 
d="M425 540c-20 0 -37.333 7.16699 -52 21.5s-22 31.5 -22 51.5c0 20.667 7.33301 38.167 22 52.5s32 21.5 52 21.5s37.333 -7.16699 52 -21.5s22 -31.833 22 -52.5c0 -20 -7.33301 -37.167 -22 -51.5s-32 -21.5 -52 -21.5zM78 349l-62.0049 0.000976562v89h62v135
c0 28 2.16699 53.333 6.5 76s12.333 42 24 58s27.334 28.333 47.001 37s44.834 13 75.501 13c12.667 0 26.334 -0.833008 41.001 -2.5s28.334 -4.16699 41.001 -7.5l-15 -96c-6.66699 1.33301 -14 2.66602 -22 3.99902s-16 2 -24 2c-16 0 -29 -4 -39 -12
c-7.33301 -6.66699 -12.666 -16 -15.999 -28s-5 -31.333 -5 -58v-121h290v-438h-114v349h-176v-349h-114v349z" />
    <glyph glyph-name="fl" unicode="fl" horiz-adv-x="548" 
d="M78 349l-62 -0.000976562v89h62v108c0 70.667 18.5 123.167 55.5 157.5s90.833 51.5 161.5 51.5c9.33301 0 21.166 -0.5 35.499 -1.5s27.166 -2.5 38.499 -4.5h114v-749h-114v650c-23.333 5.33301 -47.666 8 -72.999 8c-18 0 -33.5 -2 -46.5 -6
s-23.667 -10.833 -32 -20.5s-14.666 -22.667 -18.999 -39s-6.5 -37.166 -6.5 -62.499v-92h106v-89h-106v-349h-114v349z" />
    <glyph glyph-name="ffi" unicode="ffi" horiz-adv-x="855" 
d="M730 537c-20 0 -37.167 7.16699 -51.5 21.5s-21.5 31.833 -21.5 52.5c0 20 7.16699 37.167 21.5 51.5s31.5 21.5 51.5 21.5c20.667 0 38.167 -7.16699 52.5 -21.5s21.5 -31.5 21.5 -51.5c0 -20.667 -7.16699 -38.167 -21.5 -52.5s-31.833 -21.5 -52.5 -21.5zM78 349
l-62.0078 -0.00292969v89h62v131c0 28 2.16699 53.333 6.5 76s12.333 41.834 24 57.501s27.334 27.834 47.001 36.501s44.834 13 75.501 13c12.667 0 26.334 -0.666992 41.001 -2s27.667 -3.66602 39 -6.99902l-13 -96c-15.333 3.33301 -30.666 5 -45.999 5
c-16.667 0 -30 -4 -40 -12c-7.33301 -6.66699 -12.5 -16 -15.5 -28s-4.5 -31 -4.5 -57v-117h184v135c0 28 2.16699 53.333 6.5 76s12.333 42 24 58s27.334 28.333 47.001 37s44.834 13 75.501 13c12.667 0 26.334 -0.833008 41.001 -2.5s28.334 -4.16699 41.001 -7.5
l-15 -96l-22.5 4c-7.66699 1.33301 -15.5 2 -23.5 2c-16.667 0 -30 -4.33301 -40 -13c-7.33301 -6.66699 -12.5 -16 -15.5 -28s-4.5 -31 -4.5 -57v-121h297v-438h-114v349h-183v-349h-114v349h-184v-349h-114v349z" />
    <glyph glyph-name="ffl" unicode="ffl" horiz-adv-x="844" 
d="M78 349l-62.001 -0.00390625v89h62v131c0 28 2.16699 53.333 6.5 76s12.333 41.834 24 57.501s27.334 27.834 47.001 36.501s44.834 13 75.501 13c12.667 0 26.334 -0.666992 41.001 -2s27.667 -3.66602 39 -6.99902l-13 -96c-15.333 3.33301 -30.666 5 -45.999 5
c-18 0 -31.333 -4 -40 -12c-7.33301 -6.66699 -12.5 -16 -15.5 -28s-4.5 -31 -4.5 -57v-117h183v108c0 70.667 18.167 123.167 54.5 157.5s90.166 51.5 161.499 51.5c9.33301 0 21.166 -0.5 35.499 -1.5s27.166 -2.5 38.499 -4.5h113v-749h-114v650
c-22.667 5.33301 -46.667 8 -72 8c-18 0 -33.5 -2 -46.5 -6s-23.667 -10.833 -32 -20.5s-14.5 -22.667 -18.5 -39s-6 -37.166 -6 -62.499v-92h106v-89h-106v-349h-114v349h-183v-349h-114v349z" />
    <glyph glyph-name=".notdef" horiz-adv-x="308" 
 />
    <glyph glyph-name="space" unicode=" " horiz-adv-x="271" 
 />
    <glyph glyph-name="exclam" unicode="!" horiz-adv-x="324" 
d="M103 709h118v-501h-118v501zM162 -10c-10.667 0 -20.667 1.99609 -30 5.99609s-17.5 9.5 -24.5 16.5s-12.667 15.333 -17 25s-6.5 19.834 -6.5 30.501s2.16699 20.834 6.5 30.501s10 18 17 25s15.167 12.5 24.5 16.5s19.333 6 30 6c21.333 0 39.666 -7.66699 54.999 -23
s23 -33.666 23 -54.999s-7.66699 -39.666 -23 -54.999s-33.666 -23 -54.999 -23z" />
    <glyph glyph-name="quotedbl" unicode="&#x22;" horiz-adv-x="438" 
d="M257 727h123l-23 -295h-76zM59 727h123l-23 -295h-76z" />
    <glyph glyph-name="numbersign" unicode="#" horiz-adv-x="680" 
d="M154 197h-112v96h125l20 132h-113v96h126l26 188h106l-26 -188h132l26 188h106l-25 -188h97v-96h-111l-19 -132h98v-96h-112l-28 -197h-106l28 197h-132l-29 -197h-107zM406 293l19 132h-132l-20 -132h133z" />
    <glyph glyph-name="dollar" unicode="$" 
d="M268 -11c-43.333 3.33301 -82.0039 15.499 -116.004 36.499s-61.667 48.833 -83 83.5l78 71c13.333 -22.667 30.5 -41.834 51.5 -57.501s44.167 -26.167 69.5 -31.5v214c-23.333 10.667 -45.666 22 -66.999 34s-40.166 26.333 -56.499 43s-29.333 36.334 -39 59.001
s-14.5 49.667 -14.5 81c0 22.667 4.16699 44.834 12.5 66.501s20.333 41.334 36 59.001s34.334 32.5 56.001 44.5s45.834 20 72.501 24v89h59v-89c38.667 -3.33301 72 -13 100 -29s52.333 -38 73 -66l-74 -70c-27.333 36.667 -60.333 58.667 -99 66v-211
c24 -10.667 47 -21.834 69 -33.501s41.5 -25.5 58.5 -41.5s30.5 -35 40.5 -57s15 -48.333 15 -79c0 -26 -4.33301 -50.5 -13 -73.5s-21 -43.5 -37 -61.5s-35.333 -33 -58 -45s-47.667 -20 -75 -24v-111h-59v109zM269.996 614.999c-21.333 -6 -37.5 -17.168 -48.5 -33.501
s-16.5 -34.166 -16.5 -53.499c0 -22 5.83301 -40.333 17.5 -55s27.5 -27.667 47.5 -39v181zM324.996 91.998c22 5.33301 38.999 16.333 50.999 33s18 35.667 18 57c0 23.333 -6.16699 42.333 -18.5 57s-29.166 27.667 -50.499 39v-186z" />
    <glyph glyph-name="percent" unicode="%" horiz-adv-x="849" 
d="M649 -13c-45.333 0 -82.001 17.332 -110.001 51.999s-42 90.667 -42 168c0 70.667 14.5 124.834 43.5 162.501s68.5 56.5 118.5 56.5c46.667 0 83.667 -17.333 111 -52s41 -89.667 41 -165c0 -74 -15.167 -129.5 -45.5 -166.5s-69.166 -55.5 -116.499 -55.5z
M572.999 738.999l70 -32l-370 -740l-70 32zM186.999 278.999c-45.333 0 -82 17.333 -110 52s-42 90.667 -42 168c0 70.667 14.667 125 44 163s68.666 57 117.999 57c46.667 0 83.667 -17.5 111 -52.5s41 -90.167 41 -165.5c0 -74 -15.167 -129.5 -45.5 -166.5
s-69.166 -55.5 -116.499 -55.5zM653.999 68.999c21.333 0 37.499 10.832 48.499 32.499s16.5 56.834 16.5 105.501c0 46 -4.83301 80.5 -14.5 103.5s-26.167 34.5 -49.5 34.5c-44.667 0 -67 -45.333 -67 -136c0 -50 5.33301 -85.833 16 -107.5s27.334 -32.5 50.001 -32.5z
M191.998 360.998c21.333 0 37.499 10.832 48.499 32.499s16.5 56.834 16.5 105.501c0 46 -4.83301 80.5 -14.5 103.5s-26.167 34.5 -49.5 34.5c-44.667 0 -67 -45.333 -67 -136c0 -50 5.33301 -85.833 16 -107.5s27.334 -32.5 50.001 -32.5z" />
    <glyph glyph-name="ampersand" unicode="&#x26;" horiz-adv-x="658" 
d="M444 81c-34 -30 -67.334 -52.668 -100.001 -68.001s-67.334 -23 -104.001 -23c-27.333 0 -53 4.5 -77 13.5s-45 22 -63 39s-32.167 37.667 -42.5 62s-15.5 52.166 -15.5 83.499c0 22 3.5 42.333 10.5 61s17 36 30 52s28.5 31.5 46.5 46.5s37.667 30.167 59 45.5
c-25.333 30 -44.166 58 -56.499 84s-18.5 51.667 -18.5 77c0 22.667 4.16699 43.834 12.5 63.501s20.166 37 35.499 52s33.833 26.833 55.5 35.5s45.834 13 72.501 13c28.667 0 53.834 -4.16699 75.501 -12.5s39.834 -19.666 54.501 -33.999s25.667 -31.333 33 -51
s11 -40.5 11 -62.5c0 -37.333 -11.5 -70.333 -34.5 -99s-53.5 -55.667 -91.5 -81l120 -146c15.333 14 30.166 29 44.499 45l44.5 48l71 -80l-46 -48.5l-46 -45.5l95 -116v-35h-110zM274.999 451.999c20 14 37.666 29.501 52.999 46.501s23 36.167 23 57.5
c0 19.333 -6.16699 34.833 -18.5 46.5s-27.166 17.5 -44.499 17.5c-20 0 -36 -6.33301 -48 -19s-18 -27.667 -18 -45s5 -34.333 15 -51s22.667 -34.334 38 -53.001zM249.998 318c-28.667 -19.333 -51 -38.167 -67 -56.5s-24 -40.833 -24 -67.5c0 -28 8.5 -51.5 25.5 -70.5
s40.167 -28.5 69.5 -28.5c22 0 42.5 5.66699 61.5 17s40.167 27.333 63.5 48z" />
    <glyph glyph-name="quotesingle" unicode="'" horiz-adv-x="239" 
d="M59 727h123l-23 -295h-76z" />
    <glyph glyph-name="parenleft" unicode="(" horiz-adv-x="288" 
d="M178 -206c-42.667 80 -72.833 158.669 -90.5 236.002s-26.5 154.666 -26.5 231.999c0 86 10 168.333 30 247s49.667 156.334 89 233.001l87 -31c-34 -70.667 -60.333 -143.334 -79 -218.001s-28 -150.334 -28 -227.001c0 -77.333 9.16699 -153 27.5 -227
s44.5 -144.333 78.5 -211l-88 -34v0z" />
    <glyph glyph-name="parenright" unicode=")" horiz-adv-x="288" 
d="M22 -175c34 70 60.5 142 79.5 216s28.5 150.333 28.5 229c0 76.667 -9.33301 153 -28 229s-45 145.667 -79 209l88 34c38 -70.667 67.167 -144.167 87.5 -220.5s30.5 -158.833 30.5 -247.5c0 -90.667 -10.5 -174.667 -31.5 -252s-50.5 -153.333 -88.5 -228z" />
    <glyph glyph-name="asterisk" unicode="*" horiz-adv-x="372" 
d="M18 494l102 54l-102 54l36 62l97 -65l-7 115h70l-6 -113l95 63l37 -60l-101 -55l102 -55l-37 -61l-95 63l6 -114h-72l7 115l-95 -64z" />
    <glyph glyph-name="plus" unicode="+" horiz-adv-x="675" 
d="M48 341h236v233h107v-233h236v-105h-236v-236h-107v236h-236v105z" />
    <glyph glyph-name="comma" unicode="," horiz-adv-x="246" 
d="M15 -128c19.333 17.333 34.833 34.168 46.5 50.501s17.5 33.166 17.5 50.499c0 10.667 -1.33301 20 -4 28s-5.5 15.5 -8.5 22.5s-5.83301 14 -8.5 21s-4 15.167 -4 24.5c0 19.333 6.66699 35.833 20 49.5s30.333 20.5 51 20.5s38.5 -7.5 53.5 -22.5
s22.5 -37.5 22.5 -67.5c0 -40.667 -13.167 -80 -39.5 -118s-61.5 -73.333 -105.5 -106z" />
    <glyph glyph-name="hyphen" unicode="-" horiz-adv-x="361" 
d="M43 312h275v-96h-275v96z" />
    <glyph glyph-name="period" unicode="." horiz-adv-x="236" 
d="M122 -14c-21.333 0 -39.5 7.5 -54.5 22.5s-22.5 33.167 -22.5 54.5s7.5 39.5 22.5 54.5s33.167 22.5 54.5 22.5s39.5 -7.5 54.5 -22.5s22.5 -33.167 22.5 -54.5s-7.5 -39.5 -22.5 -54.5s-33.167 -22.5 -54.5 -22.5z" />
    <glyph glyph-name="slash" unicode="/" horiz-adv-x="471" 
d="M385 709h90l-360 -709h-88z" />
    <glyph glyph-name="zero" unicode="0" 
d="M282 -14c-40.667 0 -76.334 8.5 -107.001 25.5s-56.167 41.333 -76.5 73s-35.666 70 -45.999 115s-15.5 95.5 -15.5 151.5s5.66699 106.833 17 152.5s28 84.667 50 117s49 57.333 81 75s68.667 26.5 110 26.5c42.667 0 79.5 -9 110.5 -27s56.667 -43.167 77 -75.5
s35.5 -70.833 45.5 -115.5s15 -94 15 -148c0 -48 -5 -94.333 -15 -139s-25.5 -84 -46.5 -118s-48 -61.333 -81 -82s-72.5 -31 -118.5 -31zM291 93c40.667 0 72.0029 21.332 94.0029 63.999s33 106.667 33 192c0 39.333 -2.16699 75.333 -6.5 108s-11.5 60.834 -21.5 84.501
s-23.333 42.167 -40 55.5s-37.334 20 -62.001 20c-22 0 -41 -6.33301 -57 -19s-29.167 -30.5 -39.5 -53.5s-17.833 -50.667 -22.5 -83s-7 -67.833 -7 -106.5c0 -39.333 2.33301 -75 7 -107s12.167 -59.5 22.5 -82.5s23.666 -40.833 39.999 -53.5s36.166 -19 59.499 -19z" />
    <glyph glyph-name="one" unicode="1" 
d="M86 112h145v485h-136v112h258v-597h140v-112h-407v112z" />
    <glyph glyph-name="two" unicode="2" 
d="M59 50l192.004 210.999c25.333 28 46.833 52.833 64.5 74.5s32.167 41.834 43.5 60.501s19.666 36.5 24.999 53.5s8 34.5 8 52.5c0 32 -9.66699 58.667 -29 80s-47.333 32 -84 32c-22.667 0 -41.334 -4.33301 -56.001 -13s-26.334 -20.334 -35.001 -35.001
s-14.5 -31.167 -17.5 -49.5s-3.83301 -37.166 -2.5 -56.499h-121c-2 84.667 18.167 149.667 60.5 195s101.166 68 176.499 68c40 0 74.667 -6.16699 104 -18.5s53.833 -28.5 73.5 -48.5s34.167 -42.833 43.5 -68.5s14 -52.167 14 -79.5c0 -52 -13.5 -100.667 -40.5 -146
s-65.5 -93 -115.5 -143c-3.33301 -6 -10.333 -14.333 -21 -25l-34 -33.5l-34 -32.5l-22 -21c4 0 9.66699 0.166992 17 0.5l23 1c8 0.333008 15.833 0.5 23.5 0.5h17.5h200v-109h-474v50z" />
    <glyph glyph-name="three" unicode="3" 
d="M169 211c0 -36.667 9.99902 -65.9961 29.999 -87.9961s48.333 -33 85 -33c20 0 37.333 3.16699 52 9.5s26.834 14.666 36.501 24.999s16.834 22.166 21.501 35.499s7 27.333 7 42c0 34 -11.5 61.333 -34.5 82s-56.5 31 -100.5 31h-37v103h32c38 0 67.5 9 88.5 27
s31.5 43 31.5 75c0 29.333 -9.16699 53.333 -27.5 72s-42.166 28 -71.499 28c-32 0 -56.833 -10.333 -74.5 -31s-25.834 -47 -24.501 -79h-117c-0.666992 29.333 3.83301 57 13.5 83s24 48.667 43 68s42.333 34.666 70 45.999s59.167 17 94.5 17
c32.667 0 62.5 -5.16699 89.5 -15.5s50.167 -24.333 69.5 -42s34.166 -38.5 44.499 -62.5s15.5 -49.667 15.5 -77c0 -38 -8.83301 -70 -26.5 -96s-41.5 -45.667 -71.5 -59c16 -4 31.333 -11.167 46 -21.5s27.5 -22.833 38.5 -37.5s19.833 -31 26.5 -49s10 -36.667 10 -56
c0 -28 -5.33301 -55.167 -16 -81.5s-26.167 -49.833 -46.5 -70.5s-45.833 -37.334 -76.5 -50.001s-66 -19 -106 -19c-32.667 0 -63.167 4.83301 -91.5 14.5s-53 24 -74 43s-37.5 42.5 -49.5 70.5s-18 60 -18 96h118z" />
    <glyph glyph-name="four" unicode="4" 
d="M26 257l295 452h134v-447h98v-105h-98v-157h-121v157h-308v100zM335 261v164.999v31.5c0 13.667 0.166992 27.834 0.5 42.501s0.666016 28.5 0.999023 41.5s0.833008 22.5 1.5 28.5c-2 -4.66699 -5.16699 -10.667 -9.5 -18l-13 -23
c-4.33301 -8 -8.66602 -15.5 -12.999 -22.5l-10.5 -16.5l-147 -229h190z" />
    <glyph glyph-name="five" unicode="5" 
d="M97 155c22 -20 47.501 -35.3311 76.501 -45.998s58.167 -16 87.5 -16c40.667 0 74 12.5 100 37.5s39 58.167 39 99.5c0 18 -3.33301 35.333 -10 52s-17 31.5 -31 44.5s-31.5 23.333 -52.5 31s-45.833 11.5 -74.5 11.5c-21.333 0 -44.333 -2.33301 -69 -7
s-46.667 -10.334 -66 -17.001l32 364h347v-109h-251l-11 -140c7.33301 1.33301 16.166 2.5 26.499 3.5s19.5 1.5 27.5 1.5c38.667 0 73.834 -5.5 105.501 -16.5s58.667 -26.5 81 -46.5s39.666 -43.833 51.999 -71.5s18.5 -58.167 18.5 -91.5s-6 -65.333 -18 -96
s-29.5 -57.5 -52.5 -80.5s-51.333 -41.333 -85 -55s-72.167 -20.5 -115.5 -20.5c-37.333 0 -73.5 5.66699 -108.5 17s-65.167 27.666 -90.5 48.999z" />
    <glyph glyph-name="six" unicode="6" 
d="M452 709l-32.502 -37.501l-35.5 -43l-35.5 -44.5l-32.5 -41l-49.5 -69.5l-43.5 -63.5c17.333 10 34 17 50 21s33.333 6 52 6c28.667 0 55.834 -5.16699 81.501 -15.5s48 -24.833 67 -43.5s34 -41 45 -67s16.5 -54.333 16.5 -85c0 -33.333 -6.33301 -64.666 -19 -93.999
s-30.167 -54.666 -52.5 -75.999s-48.666 -38.166 -78.999 -50.499s-63.166 -18.5 -98.499 -18.5c-36.667 0 -69.834 6 -99.501 18s-55 28.5 -76 49.5s-37.333 45.667 -49 74s-17.5 59.166 -17.5 92.499c0 42.667 8.83301 86.667 26.5 132s45.5 96.666 83.5 153.999
c24 36 49.333 71.667 76 107l74 95h148zM291.998 91.999c16.667 0 32.334 3.3291 47.001 9.99609s27.5 15.667 38.5 27s19.667 25 26 41s9.5 33 9.5 51c0 16.667 -3.16699 32.5 -9.5 47.5s-15 28 -26 39s-24 19.833 -39 26.5s-31.167 10 -48.5 10s-33.5 -3.16699 -48.5 -9.5
s-28 -15.166 -39 -26.499s-19.667 -24.666 -26 -39.999s-9.5 -32 -9.5 -50c0 -17.333 3.16699 -33.666 9.5 -48.999s15.166 -28.666 26.499 -39.999s24.5 -20.333 39.5 -27s31.5 -10 49.5 -10z" />
    <glyph glyph-name="seven" unicode="7" 
d="M382 601h-335v108h485v-62l-309 -647h-138z" />
    <glyph glyph-name="eight" unicode="8" 
d="M287 -12c-32 0 -62.3311 5.00488 -90.998 15.0049s-53.834 24.333 -75.501 43s-39 41.167 -52 67.5s-19.5 55.833 -19.5 88.5c0 40 11 75.5 33 106.5s52.333 53.167 91 66.5c-32 13.333 -56.833 33.666 -74.5 60.999s-26.5 57.666 -26.5 90.999c0 26 4.83301 51 14.5 75
s23.834 45 42.501 63s41.667 32.5 69 43.5s59 16.5 95 16.5c30 0 58.167 -4.5 84.5 -13.5s49.333 -21.833 69 -38.5s35.167 -36.834 46.5 -60.501s17 -49.834 17 -78.501c0 -36 -9.16699 -66.833 -27.5 -92.5s-43.5 -46.167 -75.5 -61.5c36 -12 65.5 -33.333 88.5 -64
s34.5 -66.334 34.5 -107.001c0 -30 -5.83301 -58.333 -17.5 -85s-28.334 -50 -50.001 -70s-47.334 -36 -77.001 -48s-62.5 -18 -98.5 -18zM290.002 424.005c32 0 57.832 9.66504 77.499 28.998s29.5 43 29.5 71c0 27.333 -9.66699 51 -29 71s-45.666 30 -78.999 30
c-32 0 -57.333 -9.5 -76 -28.5s-28 -42.5 -28 -70.5c0 -13.333 2.5 -26.166 7.5 -38.499s12 -23.166 21 -32.499s20 -16.833 33 -22.5s27.5 -8.5 43.5 -8.5zM290.001 92.0029c16.667 0 32.333 2.83301 47 8.5s27.167 13.667 37.5 24s18.5 22.5 24.5 36.5s9 29.333 9 46
c0 16 -3.16699 30.833 -9.5 44.5s-14.833 25.667 -25.5 36s-23.167 18.5 -37.5 24.5s-29.5 9 -45.5 9s-31.167 -3 -45.5 -9s-26.833 -14 -37.5 -24s-19.167 -22 -25.5 -36s-9.5 -29 -9.5 -45s3 -31 9 -45s14.333 -26.167 25 -36.5s23.167 -18.5 37.5 -24.5
s29.833 -9 46.5 -9z" />
    <glyph glyph-name="nine" unicode="9" 
d="M124 0c21.333 23.333 43.165 49 65.498 77l62.5 80l56 74c18 24.667 34 47.667 48 69c-13.333 -8.66699 -28.333 -15.5 -45 -20.5s-34.667 -7.5 -54 -7.5c-29.333 0 -56.833 5.16699 -82.5 15.5s-48.167 24.833 -67.5 43.5s-34.5 41 -45.5 67s-16.5 54.667 -16.5 86
c0 34.667 6.5 66.5 19.5 95.5s30.667 54 53 75s48.333 37.5 78 49.5s61.5 18 95.5 18c38 0 72 -6.16699 102 -18.5s55.5 -29 76.5 -50s37 -45.667 48 -74s16.5 -58.833 16.5 -91.5c0 -26 -2.83301 -51.167 -8.5 -75.5s-14 -49 -25 -74s-24.667 -51.167 -41 -78.5
s-35.166 -56.333 -56.499 -87c-5.33301 -8 -14.166 -20.5 -26.499 -37.5l-39 -53l-38.5 -51.5c-12 -16 -20 -26.333 -24 -31h-151zM288.999 365c17.333 0 33.333 3.33789 48 10.0049s27.5 15.667 38.5 27s19.667 24.666 26 39.999s9.5 32 9.5 50
c0 17.333 -3.16699 33.666 -9.5 48.999s-15.166 28.666 -26.499 39.999s-24.5 20.166 -39.5 26.499s-31.167 9.5 -48.5 9.5c-16.667 0 -32.334 -3.16699 -47.001 -9.5s-27.5 -15.333 -38.5 -27s-19.833 -25.334 -26.5 -41.001s-10 -32.5 -10 -50.5
c0 -17.333 3.16699 -33.5 9.5 -48.5s15 -28 26 -39s24 -19.833 39 -26.5s31.5 -10 49.5 -10z" />
    <glyph glyph-name="colon" unicode=":" horiz-adv-x="330" 
d="M165 258c-21.333 0 -39.5 7.5 -54.5 22.5s-22.5 33.167 -22.5 54.5s7.5 39.333 22.5 54s33.167 22 54.5 22s39.5 -7.33301 54.5 -22s22.5 -32.667 22.5 -54s-7.5 -39.5 -22.5 -54.5s-33.167 -22.5 -54.5 -22.5zM165 -13c-21.333 0 -39.5 7.33301 -54.5 22
s-22.5 32.667 -22.5 54s7.5 39.5 22.5 54.5s33.167 22.5 54.5 22.5s39.5 -7.5 54.5 -22.5s22.5 -33.167 22.5 -54.5s-7.5 -39.333 -22.5 -54s-33.167 -22 -54.5 -22z" />
    <glyph glyph-name="semicolon" unicode=";" horiz-adv-x="330" 
d="M165 258c-21.333 0 -39.5 7.5 -54.5 22.5s-22.5 33.167 -22.5 54.5s7.5 39.333 22.5 54s33.167 22 54.5 22s39.5 -7.33301 54.5 -22s22.5 -32.667 22.5 -54s-7.5 -39.5 -22.5 -54.5s-33.167 -22.5 -54.5 -22.5zM55 -128c19.333 17.333 34.667 34.168 46 50.501
s17 33.166 17 50.499c0 10.667 -1.33301 20 -4 28s-5.5 15.5 -8.5 22.5s-5.66699 14 -8 21s-3.5 15.167 -3.5 24.5c0 19.333 6.66699 35.833 20 49.5s30.333 20.5 51 20.5s38.5 -7.5 53.5 -22.5s22.5 -37.5 22.5 -67.5c0 -40.667 -13.167 -80 -39.5 -118
s-61.5 -73.333 -105.5 -106z" />
    <glyph glyph-name="less" unicode="&#x3c;" horiz-adv-x="675" 
d="M47 366l565 242v-115l-425 -179l425 -177v-123l-565 241v111z" />
    <glyph glyph-name="equal" unicode="=" horiz-adv-x="675" 
d="M31 443h613v-104h-613v104zM31 240h613v-105h-613v105z" />
    <glyph glyph-name="greater" unicode="&#x3e;" horiz-adv-x="675" 
d="M612 255l-565 -241v123l425 177l-425 179v115l565 -242v-111z" />
    <glyph glyph-name="question" unicode="?" horiz-adv-x="538" 
d="M213 398l50.001 -0.000976562c18 0 34.167 2.83301 48.5 8.5s26.333 13.5 36 23.5s17.167 21.5 22.5 34.5s8 26.833 8 41.5c0 15.333 -2.83301 29.666 -8.5 42.999s-13.334 24.833 -23.001 34.5s-21.167 17.334 -34.5 23.001s-27.333 8.5 -42 8.5
s-28.667 -2.83301 -42 -8.5s-24.833 -13.667 -34.5 -24s-17.167 -22.5 -22.5 -36.5s-7.66602 -29.333 -6.99902 -46h-105c-1.33301 30.667 3.16699 59.334 13.5 86.001s25 50 44 70s42 35.667 69 47s56.833 17 89.5 17c34 0 64.5 -5.5 91.5 -16.5s50.167 -25.833 69.5 -44.5
s34.166 -40.667 44.499 -66s15.5 -52.333 15.5 -81c0 -26.667 -4.33301 -51.167 -13 -73.5s-20.5 -42 -35.5 -59s-32.667 -31.167 -53 -42.5s-42.5 -19 -66.5 -23v-109h-115v193zM273.001 -12.001c-21.333 0 -39.5 7.5 -54.5 22.5s-22.5 33.167 -22.5 54.5
s7.5 39.5 22.5 54.5s33.167 22.5 54.5 22.5s39.5 -7.5 54.5 -22.5s22.5 -33.167 22.5 -54.5s-7.5 -39.5 -22.5 -54.5s-33.167 -22.5 -54.5 -22.5z" />
    <glyph glyph-name="at" unicode="@" horiz-adv-x="1050" 
d="M615 114c-15.333 -20 -34.667 -35.8311 -58 -47.498s-50.666 -17.5 -81.999 -17.5c-29.333 0 -56.333 5.5 -81 16.5s-46.167 26.333 -64.5 46s-32.666 43.334 -42.999 71.001s-15.5 58.167 -15.5 91.5s5.5 64.333 16.5 93s26 53.5 45 74.5s41.167 37.5 66.5 49.5
s52.666 18 81.999 18s55.5 -6 78.5 -18s41.5 -28.333 55.5 -49v56h108v-344c57.333 0 99.166 18 125.499 54s39.5 86.667 39.5 152c0 34 -7 69.167 -21 105.5s-35.5 69.333 -64.5 99s-65.5 54 -109.5 73s-96 28.5 -156 28.5c-53.333 0 -103.333 -10.333 -150 -31
s-87.167 -48.834 -121.5 -84.501s-61.5 -77.167 -81.5 -124.5s-30 -98 -30 -152c0 -54.667 10 -106 30 -154s47.167 -89.667 81.5 -125s74.833 -63.333 121.5 -84s97 -31 151 -31c46 0 92 7.16699 138 21.5s87.667 33.5 125 57.5l43 -82
c-42.667 -29.333 -90.5 -51.666 -143.5 -66.999s-107.5 -23 -163.5 -23c-67.333 0 -130.666 12.5 -189.999 37.5s-111 59.5 -155 103.5s-78.667 95.667 -104 155s-38 123 -38 191c0 66.667 12.833 129.5 38.5 188.5s60.5 110.5 104.5 154.5s95.5 78.833 154.5 104.5
s122.167 38.5 189.5 38.5c72 0 136.333 -11.333 193 -34s104.5 -52.834 143.5 -90.501s68.667 -80.5 89 -128.5s30.5 -97 30.5 -147c0 -42.667 -6 -82.334 -18 -119.001s-30.333 -68.334 -55 -95.001s-55.834 -47.667 -93.501 -63s-82.167 -23 -133.5 -23h-78v54z
M501.999 141.002c18 0 34.333 3.50098 49 10.501s27 16.5 37 28.5s17.667 26.167 23 42.5s8 33.833 8 52.5c0 19.333 -2.83301 37.333 -8.5 54s-13.834 31 -24.501 43s-23.334 21.333 -38.001 28s-31 10 -49 10c-16.667 0 -32.167 -3.33301 -46.5 -10
s-26.666 -15.834 -36.999 -27.501s-18.333 -25.667 -24 -42s-8.5 -33.833 -8.5 -52.5s2.83301 -36.334 8.5 -53.001s13.834 -31.167 24.501 -43.5s23.167 -22.166 37.5 -29.499s30.5 -11 48.5 -11z" />
    <glyph glyph-name="A" unicode="A" horiz-adv-x="701" 
d="M287 709h122l284 -709h-136l-62 165h-294l-61 -165h-131zM455 272l-62 165.999c-3.33301 8.66699 -7.5 20.334 -12.5 35.001l-15.5 44l-18 53l-17 -53l-15.5 -43.5l-12.5 -35.5l-62 -166h215z" />
    <glyph glyph-name="B" unicode="B" horiz-adv-x="603" 
d="M82 709l202.001 -0.000976562c41.333 0 75.833 -4.33301 103.5 -13s52.167 -24 73.5 -46c14.667 -14.667 26 -32 34 -52s12 -42.333 12 -67c0 -34.667 -8 -64.167 -24 -88.5s-37.667 -44.166 -65 -59.499c18.667 -4 36 -11 52 -21s30 -22.333 42 -37
s21.5 -31.667 28.5 -51s10.5 -40.333 10.5 -63c0 -59.333 -19 -108 -57 -146c-20 -20 -46.833 -35.833 -80.5 -47.5s-77.834 -17.5 -132.501 -17.5h-199v709zM270.001 418.999c37.333 0 65.667 9.33203 85 27.999c8.66699 8.66699 15.667 18.834 21 30.501s8 25.167 8 40.5
c0 11.333 -1.66699 22.333 -5 33s-9.33301 20.334 -18 29.001c-9.33301 9.33301 -20.333 16.166 -33 20.499s-29.667 6.5 -51 6.5h-73v-188h66zM292.002 102.998c47.333 0 81.832 9.00098 103.499 27.001s32.5 44 32.5 78c0 14.667 -2.16699 28.667 -6.5 42
s-11.166 24.666 -20.499 33.999c-12 12 -27.167 20.667 -45.5 26s-40.5 8 -66.5 8h-85v-215h88z" />
    <glyph glyph-name="C" unicode="C" horiz-adv-x="645" 
d="M596 31c-26 -13.333 -56.002 -23.668 -90.002 -31.001s-69.667 -11 -107 -11c-53.333 0 -101.833 9.33301 -145.5 28s-81.167 44.334 -112.5 77.001s-55.5 71 -72.5 115s-25.5 91 -25.5 141c0 54 9 103.5 27 148.5s43 83.833 75 116.5s70.167 58.167 114.5 76.5
s92.833 27.5 145.5 27.5c70 0 132.333 -12.667 187 -38v-134c-23.333 17.333 -51.5 31.5 -84.5 42.5s-67.167 16.5 -102.5 16.5c-32.667 0 -63.167 -6 -91.5 -18s-52.833 -29 -73.5 -51s-37 -48.5 -49 -79.5s-18 -65.833 -18 -104.5c0 -34.667 5.5 -67.167 16.5 -97.5
s26.833 -56.833 47.5 -79.5s45.834 -40.5 75.501 -53.5s62.834 -19.5 99.501 -19.5c37.333 0 71.5 4.83301 102.5 14.5s58.167 23.167 81.5 40.5v-127v0z" />
    <glyph glyph-name="D" unicode="D" horiz-adv-x="683" 
d="M82 709h187c56.667 0 108 -7.83301 154 -23.5s85.333 -39.5 118 -71.5c32 -32 56.333 -68.833 73 -110.5s25 -89.5 25 -143.5c0 -107.333 -33.333 -194.333 -100 -261c-66 -66 -162 -99 -288 -99h-169v709zM256 104c43.333 0 80.166 5.16797 110.499 15.501
s55.5 25.5 75.5 45.5c21.333 20.667 37.833 46.667 49.5 78s17.5 68.666 17.5 111.999c0 39.333 -5.66699 75 -17 107s-27.666 58.667 -48.999 80c-23.333 23.333 -50.5 39.833 -81.5 49.5s-65.833 14.5 -104.5 14.5h-52v-502h51z" />
    <glyph glyph-name="E" unicode="E" horiz-adv-x="544" 
d="M82 709h387v-113h-263v-176h255v-111h-255v-196h264v-113h-388v709z" />
    <glyph glyph-name="F" unicode="F" horiz-adv-x="514" 
d="M82 709h378v-113h-254v-179h249v-111h-249v-306h-124v709z" />
    <glyph glyph-name="G" unicode="G" horiz-adv-x="785" 
d="M430 373l324.995 0.00390625v-29c0 -49.333 -7.83301 -95.833 -23.5 -139.5s-38.667 -81.834 -69 -114.501s-67.333 -58.334 -111 -77.001s-93.5 -28 -149.5 -28c-53.333 0 -102.166 9.5 -146.499 28.5s-82.166 45.333 -113.499 79s-55.666 73 -72.999 118
s-26 93.5 -26 145.5c0 50.667 9.16699 98.5 27.5 143.5s43.833 84.167 76.5 117.5s71.5 59.666 116.5 78.999s94.167 29 147.5 29c62.667 0 119.834 -12.667 171.501 -38s95.5 -63 131.5 -113l-98 -68c-52 70.667 -121.333 106 -208 106
c-37.333 0 -70.666 -6.83301 -99.999 -20.5s-54.333 -32 -75 -55s-36.5 -49.833 -47.5 -80.5s-16.5 -63 -16.5 -97c0 -36 5.5 -69.833 16.5 -101.5s26.833 -59.334 47.5 -83.001s45.834 -42.5 75.501 -56.5s62.834 -21 99.501 -21c29.333 0 56.166 4.16699 80.499 12.5
s45.666 20 63.999 35s33.5 32.667 45.5 53s20 42.5 24 66.5h-192v109z" />
    <glyph glyph-name="H" unicode="H" horiz-adv-x="715" 
d="M82 709h124v-282h303v282h124v-709h-124v315h-303v-315h-124v709z" />
    <glyph glyph-name="I" unicode="I" horiz-adv-x="288" 
d="M82 709h124v-709h-124v709z" />
    <glyph glyph-name="J" unicode="J" horiz-adv-x="434" 
d="M91 168c9.33301 -19.333 20.999 -35.167 34.999 -47.5s30 -18.5 48 -18.5c7.33301 0 14 1.33301 20 4s11 6 15 10c8 8 13.667 18.667 17 32s5 32 5 56v505h123v-500c0 -42.667 -4.16699 -77.5 -12.5 -104.5s-22.5 -50.5 -42.5 -70.5
c-31.333 -31.333 -75.666 -47 -132.999 -47c-17.333 0 -34.333 2.66699 -51 8s-32.167 12.833 -46.5 22.5s-27.333 21.167 -39 34.5s-21.5 28 -29.5 44z" />
    <glyph glyph-name="K" unicode="K" horiz-adv-x="649" 
d="M82 709h124v-316l248 316h149l-271 -332l285 -377h-157l-254 345v-345h-124v709z" />
    <glyph glyph-name="L" unicode="L" horiz-adv-x="472" 
d="M82 709h124v-596h240v-113h-364v709z" />
    <glyph glyph-name="M" unicode="M" horiz-adv-x="906" 
d="M139 709l128.998 -0.000976562l138 -386c8.66699 -24 17 -49.167 25 -75.5s15.667 -53.166 23 -80.499l22.5 78c7.66699 25.333 15.167 48.666 22.5 69.999l142 394h124l98 -709h-121l-46 381c-3.33301 23.333 -6 48.833 -8 76.5s-3.66699 55.5 -5 83.5
c-7.33301 -27.333 -14.833 -53.5 -22.5 -78.5s-15.167 -47.833 -22.5 -68.5l-143 -394h-91l-141 391c-7.33301 20.667 -14.833 43.834 -22.5 69.501l-22.5 77.5c-1.33301 -28 -3.16602 -55.833 -5.49902 -83.5s-5.16602 -54.167 -8.49902 -79.5l-45 -375h-120z" />
    <glyph glyph-name="N" unicode="N" horiz-adv-x="779" 
d="M82 709l114.001 -0.000976562l293 -392l52 -72.5c17.333 -25 32.666 -48.167 45.999 -69.5c-1.33301 40.667 -2.5 79.834 -3.5 117.501s-1.5 76.5 -1.5 116.5v300h114v-709h-112l-309 412l-43 60l-41 60c1.33301 -33.333 2.33301 -66 3 -98s2 -64.667 4 -98v-336h-116
v709z" />
    <glyph glyph-name="O" unicode="O" horiz-adv-x="826" 
d="M412 -16c-52 0 -100.5 9.5 -145.5 28.5s-84.333 45.167 -118 78.5s-60.167 72.5 -79.5 117.5s-29 93.167 -29 144.5c0 50.667 9.83301 98.5 29.5 143.5s46.5 84.333 80.5 118s73.667 60.334 119 80.001s93.666 29.5 144.999 29.5c52 0 100.667 -9.5 146 -28.5
s84.833 -45.167 118.5 -78.5s60.167 -72.5 79.5 -117.5s29 -93.5 29 -145.5c0 -51.333 -10 -99.333 -30 -144s-47 -83.834 -81 -117.501s-73.667 -60.167 -119 -79.5s-93.666 -29 -144.999 -29zM413 102c35.333 0 68 6.50098 98 19.501s56 30.833 78 53.5
s39.167 49.334 51.5 80.001s18.5 63.667 18.5 99s-6 68.5 -18 99.5s-29 58 -51 81s-48 41 -78 54s-63 19.5 -99 19.5c-35.333 0 -68 -6.66699 -98 -20s-56 -31.5 -78 -54.5s-39.167 -49.833 -51.5 -80.5s-18.5 -63.334 -18.5 -98.001s6.33301 -67.334 19 -98.001
s30 -57.5 52 -80.5s48 -41.167 78 -54.5s62.333 -20 97 -20z" />
    <glyph glyph-name="P" unicode="P" horiz-adv-x="541" 
d="M82 709h181c44 0 82.5 -4.66699 115.5 -14s60.833 -25.333 83.5 -48c36.667 -36.667 55 -86 55 -148c0 -30 -5 -57.667 -15 -83s-24.333 -47.333 -43 -66c-22.667 -22.667 -51 -39.667 -85 -51s-72 -17 -114 -17h-55v-282h-123v709zM261 387
c44.667 0 78.001 10.999 100.001 32.999c19.333 19.333 29 44 29 74c0 16 -2.33301 30.833 -7 44.5s-11.334 24.834 -20.001 33.501c-10 10 -22.667 17.667 -38 23s-35.333 8 -60 8h-60v-216h56z" />
    <glyph glyph-name="Q" unicode="Q" horiz-adv-x="826" 
d="M577 23c-23.333 -11.333 -48.666 -20.668 -75.999 -28.001s-57 -11 -89 -11c-52 0 -100.5 9.5 -145.5 28.5s-84.333 45.167 -118 78.5s-60.167 72.5 -79.5 117.5s-29 93.167 -29 144.5c0 50.667 9.83301 98.5 29.5 143.5s46.5 84.333 80.5 118s73.667 60.334 119 80.001
s93.666 29.5 144.999 29.5c52 0 100.667 -9.5 146 -28.5s84.833 -45.167 118.5 -78.5s60.167 -72.5 79.5 -117.5s29 -93.5 29 -145.5c0 -56.667 -11.333 -108 -34 -154s-52 -85 -88 -117l98 -123l-113 -28zM403 240.998l113 29.0029l74 -93
c20 21.333 36.5 46.666 49.5 75.999s19.5 63 19.5 101c0 35.333 -6 68.5 -18 99.5s-29 58 -51 81s-48 41 -78 54s-63 19.5 -99 19.5c-35.333 0 -68 -6.66699 -98 -20s-56 -31.5 -78 -54.5s-39.167 -49.833 -51.5 -80.5s-18.5 -63.334 -18.5 -98.001
s6.16699 -67.334 18.5 -98.001s29.5 -57.5 51.5 -80.5s48 -41.167 78 -54.5s62.333 -20 97 -20c31.333 0 61 5.33301 89 16z" />
    <glyph glyph-name="R" unicode="R" horiz-adv-x="579" 
d="M82 709l199.001 0.000976562c41.333 0 78.166 -4.83301 110.499 -14.5s58.833 -24.834 79.5 -45.501c19.333 -20 33.166 -41.333 41.499 -64s12.5 -48 12.5 -76c0 -26 -4.16699 -50 -12.5 -72s-20.166 -41.667 -35.499 -59s-34 -31.5 -56 -42.5s-46.333 -18.5 -73 -22.5
l216 -313h-148l-199 308h-12v-308h-123v709zM260.001 398.001c28 0 50.999 2.50098 68.999 7.50098s32 12.833 42 23.5c10 10 17.167 21 21.5 33s6.5 25.667 6.5 41c0 13.333 -1.83301 26.166 -5.5 38.499s-10.834 23.833 -21.501 34.5
c-11.333 11.333 -25.666 19.333 -42.999 24s-37.666 7 -60.999 7h-63v-209h55z" />
    <glyph glyph-name="S" unicode="S" horiz-adv-x="531" 
d="M120 182c6.66699 -12 14.5068 -23.3311 23.5068 -33.998s19.167 -20.334 30.5 -29.001s23.666 -15.5 36.999 -20.5s28 -7.5 44 -7.5c30.667 0 55.167 9.33301 73.5 28s27.5 42 27.5 70c0 24 -7.33301 43.667 -22 59s-32.834 29.166 -54.501 41.499
s-45.334 24.5 -71.001 36.5s-49.334 26.333 -71.001 43s-39.834 37.334 -54.501 62.001s-22 55.667 -22 93c0 28.667 5.66699 55.167 17 79.5s26.666 45.5 45.999 63.5s42 32 68 42s53.667 15 83 15c42.667 0 81 -9.16699 115 -27.5s61.667 -43.833 83 -76.5l-84 -73
c-12.667 22.667 -28.667 40.5 -48 53.5s-40.666 19.5 -63.999 19.5c-27.333 0 -49.333 -8.5 -66 -25.5s-25 -38.5 -25 -64.5c0 -23.333 7.33301 -42.333 22 -57s33 -28 55 -40s45.833 -23.833 71.5 -35.5s49.5 -25.834 71.5 -42.501s40.333 -37.167 55 -61.5
s22 -54.833 22 -91.5c0 -32 -6 -61.333 -18 -88s-28.333 -49.5 -49 -68.5s-45.334 -33.833 -74.001 -44.5s-59.334 -16 -92.001 -16c-50 0 -93.333 11 -130 33s-66 51 -88 87z" />
    <glyph glyph-name="T" unicode="T" horiz-adv-x="470" 
d="M174 597h-163v112h449v-111h-163v-598h-123v597z" />
    <glyph glyph-name="U" unicode="U" horiz-adv-x="713" 
d="M80 709l124 -0.00195312v-435c0 -33.333 3 -60.666 9 -81.999s17 -40 33 -56c12.667 -12.667 28.167 -22.667 46.5 -30s40.166 -11 65.499 -11c24 0 45.167 3.5 63.5 10.5s33.833 16.5 46.5 28.5c14 14 24.833 31.333 32.5 52s11.5 47.334 11.5 80.001v443h121v-431
c0 -50 -6.5 -92.833 -19.5 -128.5s-31.833 -66.167 -56.5 -91.5c-25.333 -25.333 -55.5 -43.5 -90.5 -54.5s-72.167 -16.5 -111.5 -16.5c-42 0 -80.5 6 -115.5 18s-65.167 30.667 -90.5 56c-21.333 20.667 -38.166 47.167 -50.499 79.5s-18.5 73.5 -18.5 123.5v445z" />
    <glyph glyph-name="V" unicode="V" horiz-adv-x="683" 
d="M9 709l136 0.000976562l150 -418l23.5 -71l22.5 -71c6.66699 23.333 14.167 47.166 22.5 71.499l23.5 67.5l153 421h133l-272 -709h-124z" />
    <glyph glyph-name="W" unicode="W" horiz-adv-x="1025" 
d="M20 709l130 -0.000976562l125 -417c6 -20.667 11.667 -43.167 17 -67.5s10 -48.5 14 -72.5l14.5 73c5 24 10.5 47.333 16.5 70l113 414h127l114 -418c5.33301 -20 10.833 -41.833 16.5 -65.5s10.834 -48.167 15.501 -73.5l16 73c5.33301 24 10.666 45.667 15.999 65
l124 419h126l-226 -709h-122l-115 417c-5.33301 19.333 -10.5 40.833 -15.5 64.5l-15.5 75.5l-15 -77c-4.66699 -23.333 -9.66699 -44.666 -15 -63.999l-113 -416h-122z" />
    <glyph glyph-name="X" unicode="X" horiz-adv-x="640" 
d="M255 369l-219 340h145l142 -241l144 241h144l-223 -338l235 -371h-143l-162 271l-160 -271h-142z" />
    <glyph glyph-name="Y" unicode="Y" horiz-adv-x="604" 
d="M239 317l-230 392h142l154 -288l154 288h137l-233 -388v-321h-124v317z" />
    <glyph glyph-name="Z" unicode="Z" horiz-adv-x="572" 
d="M349 600h-302v109h502l-345 -597h345v-112h-546z" />
    <glyph glyph-name="bracketleft" unicode="[" horiz-adv-x="345" 
d="M92 733h217v-87h-112v-753h113v-89h-218v929z" />
    <glyph glyph-name="backslash" unicode="\" horiz-adv-x="361" 
d="M16 709h105l227 -718h-106z" />
    <glyph glyph-name="bracketright" unicode="]" horiz-adv-x="345" 
d="M34 -107h114v753h-113v87h217v-929h-218v89z" />
    <glyph glyph-name="asciicircum" unicode="^" horiz-adv-x="737" 
d="M327 709h92l188 -385h-119l-117 246l-123 -246h-118z" />
    <glyph glyph-name="underscore" unicode="_" horiz-adv-x="506" 
d="M-8 -124h521v-106h-521v106z" />
    <glyph glyph-name="grave" unicode="`" horiz-adv-x="470" 
d="M212 705l135 -150l-65 -46l-159 127z" />
    <glyph glyph-name="a" unicode="a" 
d="M401 54c-16.667 -20 -37.501 -36.001 -62.501 -48.001s-53.833 -18 -86.5 -18c-31.333 0 -60 5.66699 -86 17s-48.167 27 -66.5 47s-32.666 43.833 -42.999 71.5s-15.5 57.834 -15.5 90.501c0 34 5.33301 65.333 16 94s25.5 53.5 44.5 74.5s41.833 37.5 68.5 49.5
s56 18 88 18c30.667 0 58.5 -6.16699 83.5 -18.5s44.833 -28.833 59.5 -49.5v56h113v-438h-113v54zM282.999 80.999c18.667 0 35.665 3.50195 50.998 10.502s28.333 16.5 39 28.5s18.834 26.167 24.501 42.5s8.5 33.833 8.5 52.5c0 39.333 -11.667 71.666 -35 96.999
s-53.666 38 -90.999 38c-17.333 0 -33.333 -3.33301 -48 -10s-27.5 -15.834 -38.5 -27.501s-19.667 -25.667 -26 -42s-9.5 -33.833 -9.5 -52.5s3.16699 -36.334 9.5 -53.001s15 -31.167 26 -43.5s24.167 -22.166 39.5 -29.499s32 -11 50 -11z" />
    <glyph glyph-name="b" unicode="b" horiz-adv-x="579" 
d="M66 749h112.997v-371c16.667 22 37.334 39.333 62.001 52s53.334 19 86.001 19c30 0 57.833 -5.5 83.5 -16.5s48 -26.5 67 -46.5s33.833 -43.833 44.5 -71.5s16 -57.834 16 -90.501c0 -35.333 -5.66699 -67.5 -17 -96.5s-26.833 -53.667 -46.5 -74
s-42.667 -36.166 -69 -47.499s-54.5 -17 -84.5 -17c-59.333 0 -106.666 21.667 -141.999 65v-54h-113v749zM297.997 84c18 0 34.334 3.50098 49.001 10.501s27.5 16.667 38.5 29s19.5 26.666 25.5 42.999s9 33.5 9 51.5c0 17.333 -2.83301 34 -8.5 50s-13.834 30 -24.501 42
s-23.667 21.667 -39 29s-32.333 11 -51 11c-37.333 0 -67.166 -12.333 -89.499 -37s-33.5 -56.667 -33.5 -96c0 -18 2.83301 -35 8.5 -51s13.667 -30 24 -42s23.166 -21.667 38.499 -29s33 -11 53 -11z" />
    <glyph glyph-name="c" unicode="c" horiz-adv-x="441" 
d="M398 13c-15.333 -6.66699 -34.1699 -12.4971 -56.5029 -17.4971s-45.5 -7.5 -69.5 -7.5c-38 0 -71.333 6.33301 -100 19s-52.667 29.667 -72 51s-34 45.666 -44 72.999s-15 55.666 -15 84.999c0 30 5.5 59.167 16.5 87.5s26.667 53.166 47 74.499s45.333 38.5 75 51.5
s63.167 19.5 100.5 19.5c20.667 0 41.5 -2 62.5 -6s39.5 -9.66699 55.5 -17v-107c-13.333 8 -29.666 14.833 -48.999 20.5s-38.666 8.5 -57.999 8.5c-18.667 0 -36 -3.16699 -52 -9.5s-29.667 -15.166 -41 -26.499s-20.333 -24.833 -27 -40.5s-10 -32.834 -10 -51.501
c0 -18 3 -34.833 9 -50.5s14.667 -29.5 26 -41.5s25 -21.5 41 -28.5s34 -10.5 54 -10.5c19.333 0 38.333 2.66699 57 8s35.334 13.333 50.001 24v-108v0z" />
    <glyph glyph-name="d" unicode="d" 
d="M401 59c-16.667 -20 -37.3311 -36.502 -61.998 -49.502s-54.334 -19.5 -89.001 -19.5c-31.333 0 -59.833 5.83301 -85.5 17.5s-47.667 27.834 -66 48.501s-32.5 44.667 -42.5 72s-15 57 -15 89s5.33301 61.833 16 89.5s25.667 52 45 73s42.333 37.5 69 49.5s56 18 88 18
c29.333 0 56.166 -5.16699 80.499 -15.5s44.833 -25.166 61.5 -44.499v361h113v-748h-113v59zM281.003 85.998c18.667 0 35.5 3.50098 50.5 10.501s28 16.667 39 29s19.5 26.666 25.5 42.999s9 33.833 9 52.5c0 20 -3.16699 38 -9.5 54s-15 29.667 -26 41s-24 20 -39 26
s-30.833 9 -47.5 9c-18 0 -34.5 -3.5 -49.5 -10.5s-28 -16.5 -39 -28.5s-19.5 -26.167 -25.5 -42.5s-9 -33.5 -9 -51.5c0 -20 3.33301 -38 10 -54s15.5 -29.833 26.5 -41.5s23.833 -20.667 38.5 -27s30 -9.5 46 -9.5z" />
    <glyph glyph-name="e" unicode="e" horiz-adv-x="520" 
d="M471 85c-25.333 -32.667 -54.665 -57.1699 -87.998 -73.5029s-73 -24.5 -119 -24.5c-30.667 0 -59.5 5.16699 -86.5 15.5s-50.667 25.166 -71 44.499s-36.333 43.333 -48 72s-17.5 61.334 -17.5 98.001c0 34.667 5.66699 66.334 17 95.001s27 53.334 47 74.001
s43.5 36.667 70.5 48s56.167 17 87.5 17c32 0 61.167 -5.16699 87.5 -15.5s49.166 -25.166 68.499 -44.499s34.333 -43 45 -71s16 -59.333 16 -94c0 -6 -0.166992 -12 -0.5 -18s-0.5 -12.333 -0.5 -19h-325c0.666992 -16 4.16699 -30.833 10.5 -44.5
s14.833 -25.667 25.5 -36s23.167 -18.333 37.5 -24s30.166 -8.5 47.499 -8.5c25.333 0 48 5.5 68 16.5s37.667 26.167 53 45.5zM364.001 264.997c0 13.333 -2.33105 26 -6.99805 38s-11.5 22.667 -20.5 32s-19.833 16.833 -32.5 22.5s-27 8.5 -43 8.5
c-30.667 0 -55.334 -10 -74.001 -30s-29.334 -43.667 -32.001 -71h209z" />
    <glyph glyph-name="f" unicode="f" horiz-adv-x="315" 
d="M78 349h-62.0039v89h62v135c0 28 2.16699 53.333 6.5 76s12.333 42 24 58s27.334 28.333 47.001 37s44.834 13 75.501 13c13.333 0 26.333 -0.666992 39 -2s23.667 -3 33 -5v-97c-7.33301 1.33301 -15.166 2.33301 -23.499 3s-16.166 1 -23.499 1
c-20 0 -34.333 -4 -43 -12c-8 -6.66699 -13.5 -16.167 -16.5 -28.5s-4.5 -31.5 -4.5 -57.5v-121h106v-89h-106v-349h-114v349z" />
    <glyph glyph-name="g" unicode="g" horiz-adv-x="573" 
d="M174 -44c1.33301 -23.333 11.332 -43.0039 29.999 -59.0039s43.334 -24 74.001 -24c40 0 69.333 10 88 30s28 53 28 99v64c-17.333 -21.333 -38.333 -37.333 -63 -48s-51.667 -16 -81 -16c-32.667 0 -61.834 5.66699 -87.501 17s-47.5 27 -65.5 47
s-31.833 43.167 -41.5 69.5s-14.5 54.5 -14.5 84.5c0 32.667 5.5 62.834 16.5 90.501s26 51.834 45 72.501s41.333 36.834 67 48.501s53.167 17.5 82.5 17.5c30 0 57.333 -5.5 82 -16.5s44.667 -27.5 60 -49.5v55h113v-407c0 -44.667 -4.16699 -81.5 -12.5 -110.5
s-23.166 -53.833 -44.499 -74.5c-21.333 -21.333 -46.5 -36.666 -75.5 -45.999s-63.167 -14 -102.5 -14c-66 0 -116.833 15.833 -152.5 47.5s-54.5 72.5 -56.5 122.5h111zM278.999 92.9961c18 0 34.334 3.33301 49.001 10s27.167 16 37.5 28s18.333 26 24 42s8.5 33 8.5 51
c0 16.667 -2.66699 32.834 -8 48.501s-13.333 29.167 -24 40.5s-23.5 20.5 -38.5 27.5s-31.833 10.5 -50.5 10.5c-17.333 0 -33.333 -3.33301 -48 -10s-27.334 -15.834 -38.001 -27.501s-19 -25.167 -25 -40.5s-9 -32 -9 -50c0 -37.333 11.333 -68.333 34 -93s52 -37 88 -37
z" />
    <glyph glyph-name="h" unicode="h" horiz-adv-x="537" 
d="M66 749h113.002v-367c13.333 17.333 31.833 32.833 55.5 46.5s52.5 20.5 86.5 20.5c21.333 0 41.666 -3.33301 60.999 -10s35.666 -16.667 48.999 -30c28 -28 42 -70.667 42 -128v-281h-113v257c0 30 -6.5 53 -19.5 69s-33.5 24 -61.5 24
c-27.333 0 -50.333 -9.33301 -69 -28c-20.667 -20.667 -31 -50 -31 -88v-234h-113v749z" />
    <glyph glyph-name="i" unicode="i" horiz-adv-x="248" 
d="M124 537c-20 0 -37.333 7.16699 -52 21.5s-22 31.833 -22 52.5c0 20 7.33301 37.167 22 51.5s32 21.5 52 21.5s37.167 -7.16699 51.5 -21.5s21.5 -31.5 21.5 -51.5c0 -20.667 -7.16699 -38.167 -21.5 -52.5s-31.5 -21.5 -51.5 -21.5zM67 438h114v-438h-114v438z" />
    <glyph glyph-name="j" unicode="j" horiz-adv-x="248" 
d="M124 537c-20 0 -37.333 7.16699 -52 21.5s-22 31.833 -22 52.5c0 20 7.33301 37.167 22 51.5s32 21.5 52 21.5s37.167 -7.16699 51.5 -21.5s21.5 -31.5 21.5 -51.5c0 -20.667 -7.16699 -38.167 -21.5 -52.5s-31.5 -21.5 -51.5 -21.5zM67 438h114v-639h-114v639z" />
    <glyph glyph-name="k" unicode="k" horiz-adv-x="486" 
d="M66 749h113v-493l150 182h143l-179 -201l191 -237h-150l-155 209v-209h-113v749z" />
    <glyph glyph-name="l" unicode="l" horiz-adv-x="245" 
d="M66 749h113v-749h-113v749z" />
    <glyph glyph-name="m" unicode="m" horiz-adv-x="803" 
d="M66 438l111.002 0.000976562v-62c13.333 20.667 30.833 37.834 52.5 51.501s48.5 20.5 80.5 20.5c60 0 104 -25.333 132 -76c15.333 20 35 37.5 59 52.5s53.333 22.5 88 22.5c22 0 42.167 -3.16699 60.5 -9.5s34.166 -16.333 47.499 -30s23.833 -31.334 31.5 -53.001
s11.5 -47.834 11.5 -78.501v-276h-114v252c0 28.667 -5.16699 52.167 -15.5 70.5s-29.833 27.5 -58.5 27.5c-11.333 0 -22.333 -2 -33 -6s-20.5 -10.5 -29.5 -19.5s-16.167 -20.333 -21.5 -34s-8 -30.167 -8 -49.5v-241h-114v252c0 28.667 -5.33301 52.167 -16 70.5
s-30 27.5 -58 27.5c-11.333 0 -22.5 -2.16699 -33.5 -6.5s-20.833 -11 -29.5 -20s-15.834 -20.333 -21.501 -34s-8.5 -30.167 -8.5 -49.5v-240h-113v438z" />
    <glyph glyph-name="n" unicode="n" horiz-adv-x="538" 
d="M66 438l111.999 0.000976562v-58c12 16 29.167 31.167 51.5 45.5s51.833 21.5 88.5 21.5c27.333 0 50.333 -4 69 -12s34.334 -18 47.001 -30c14.667 -14.667 25.167 -32.334 31.5 -53.001s9.5 -46 9.5 -76v-276h-114v252c0 28.667 -6 52.167 -18 70.5
s-32.667 27.5 -62 27.5c-11.333 0 -23 -2.16699 -35 -6.5s-23 -11 -33 -20s-18.167 -20.333 -24.5 -34s-9.5 -30.167 -9.5 -49.5v-240h-113v438z" />
    <glyph glyph-name="o" unicode="o" horiz-adv-x="561" 
d="M276 -13c-33.333 0 -64.3311 5.66602 -92.998 16.999s-53.5 27.333 -74.5 48s-37.5 45.167 -49.5 73.5s-18 59.166 -18 92.499c0 32 6 62 18 90s28.667 52.5 50 73.5s46.666 37.667 75.999 50s61.333 18.5 96 18.5c34 0 65.667 -5.83301 95 -17.5
s54.666 -27.667 75.999 -48s38 -44.666 50 -72.999s18 -59.166 18 -92.499c0 -30.667 -5.83301 -60 -17.5 -88s-28.167 -52.667 -49.5 -74s-47 -38.333 -77 -51s-63.333 -19 -100 -19zM281.002 87.999c18 0 34.4971 3.50098 49.4971 10.501s28 16.5 39 28.5
s19.5 25.833 25.5 41.5s9 32.167 9 49.5c0 18.667 -3.16699 36 -9.5 52s-15.166 29.833 -26.499 41.5s-24.666 20.834 -39.999 27.501s-31.666 10 -48.999 10c-18 0 -34.5 -3.5 -49.5 -10.5s-28 -16.333 -39 -28s-19.5 -25.334 -25.5 -41.001s-9 -32.5 -9 -50.5
c0 -18.667 3.33301 -36 10 -52s15.667 -29.833 27 -41.5s24.5 -20.834 39.5 -27.501s31.167 -10 48.5 -10z" />
    <glyph glyph-name="p" unicode="p" 
d="M66 438l112.996 0.000976562v-59c16 22 36.5 39.167 61.5 51.5s54.5 18.5 88.5 18.5c30.667 0 58.834 -5.83301 84.501 -17.5s47.834 -27.667 66.501 -48s33.167 -44.5 43.5 -72.5s15.5 -58 15.5 -90c0 -30.667 -5.16699 -60 -15.5 -88s-24.833 -52.667 -43.5 -74
s-41.5 -38.333 -68.5 -51s-56.833 -19 -89.5 -19c-31.333 0 -59.166 5.66699 -83.499 17s-44.166 26.666 -59.499 45.999v-253h-113v639zM297.996 82.001c18.667 0 35.499 3.66797 50.499 11.001s27.667 17.166 38 29.499s18.333 26.5 24 42.5s8.5 33 8.5 51
s-2.83301 35 -8.5 51s-13.667 30.167 -24 42.5s-23.166 22.166 -38.499 29.499s-32.333 11 -51 11s-35.5 -3.5 -50.5 -10.5s-27.833 -16.667 -38.5 -29s-18.834 -26.666 -24.501 -42.999s-8.5 -33.833 -8.5 -52.5c0 -39.333 11.333 -71.333 34 -96s52.334 -37 89.001 -37z
" />
    <glyph glyph-name="q" unicode="q" 
d="M401 54c-15.333 -20 -34.9961 -35.835 -58.9961 -47.502s-52 -17.5 -84 -17.5c-33.333 0 -63.5 6 -90.5 18s-49.833 28.333 -68.5 49s-33 44.834 -43 72.501s-15 56.834 -15 87.501c0 32.667 5.5 63 16.5 91s26.167 52.333 45.5 73s42.166 37 68.499 49
s55.166 18 86.499 18s59.166 -6 83.499 -18s44.166 -28.333 59.499 -49v58h114v-639h-114v255zM282.004 82.998c34.667 0 64 11.833 88 35.5s36 56.167 36 97.5c0 18.667 -3 36.167 -9 52.5s-14.333 30.5 -25 42.5s-23.5 21.5 -38.5 28.5s-31.833 10.5 -50.5 10.5
c-18 0 -34.5 -3.33301 -49.5 -10s-27.833 -16 -38.5 -28s-19 -26.167 -25 -42.5s-9 -33.833 -9 -52.5c0 -18 3 -35.167 9 -51.5s14.167 -30.5 24.5 -42.5s23 -21.667 38 -29s31.5 -11 49.5 -11z" />
    <glyph glyph-name="r" unicode="r" horiz-adv-x="347" 
d="M66 438l111.999 -0.000976562v-69c12.667 23.333 29 42.333 49 57s45.667 22 77 22c5.33301 0 11 -0.166992 17 -0.5s11 -1.16602 15 -2.49902l-4 -117c-17.333 10 -38.666 15 -63.999 15c-26 0 -47.167 -11 -63.5 -33s-24.5 -55 -24.5 -99v-211h-114v438z" />
    <glyph glyph-name="s" unicode="s" horiz-adv-x="408" 
d="M128 125c7.33301 -14 17.168 -25.5 29.501 -34.5s26.833 -13.5 43.5 -13.5c15.333 0 28.166 3.33301 38.499 10s15.5 17 15.5 31c0 12.667 -5 22.667 -15 30s-22.667 14 -38 20l-49 18.5c-17.333 6.33301 -33.666 14.666 -48.999 24.999s-28 23.5 -38 39.5
s-15 36.667 -15 62c0 18.667 3.66699 36.167 11 52.5s17.833 30.833 31.5 43.5s30.167 22.667 49.5 30s41.333 11 66 11c36.667 0 67.5 -7 92.5 -21s44.833 -36 59.5 -66l-91 -41c-7.33301 14.667 -16.666 25.334 -27.999 32.001s-23.666 10 -36.999 10
c-12.667 0 -23.667 -3.66699 -33 -11s-14 -17.333 -14 -30c0 -13.333 5.16699 -24 15.5 -32s23.166 -15 38.499 -21l49.5 -18.5c17.667 -6.33301 34.167 -14.5 49.5 -24.5s28.166 -22.833 38.499 -38.5s15.5 -36.167 15.5 -61.5c0 -20 -4 -38.5 -12 -55.5
s-19.333 -31.667 -34 -44s-32.334 -21.833 -53.001 -28.5s-43.334 -10 -68.001 -10c-42 0 -75.667 7.16699 -101 21.5s-45.666 36.5 -60.999 66.5z" />
    <glyph glyph-name="t" unicode="t" horiz-adv-x="282" 
d="M79 349h-64v89h64v159h114v-159h85v-89h-85v-349h-114v349z" />
    <glyph glyph-name="u" unicode="u" horiz-adv-x="540" 
d="M63 438l113.999 -0.00195312v-229c0 -17.333 1.16699 -33.5 3.5 -48.5s7 -28 14 -39s16.667 -19.833 29 -26.5s28.5 -10 48.5 -10s35.833 3.5 47.5 10.5s20.834 16.333 27.501 28s11 24.667 13 39s3 28.833 3 43.5v232h114v-229c0 -36 -3.5 -68 -10.5 -96
s-20.5 -52 -40.5 -72c-19.333 -19.333 -42.333 -33.166 -69 -41.499s-56 -12.5 -88 -12.5c-66.667 0 -119 19 -157 57c-17.333 17.333 -29.833 38.833 -37.5 64.5s-11.5 56.834 -11.5 93.501v236z" />
    <glyph glyph-name="v" unicode="v" horiz-adv-x="508" 
d="M3 438h129l87 -215c6 -15.333 12.5 -33 19.5 -53s13.167 -39.333 18.5 -58c5.33301 18.667 11.5 37.667 18.5 57s13.833 37.333 20.5 54l85 215h124l-192 -438h-117z" />
    <glyph glyph-name="w" unicode="w" horiz-adv-x="778" 
d="M8 438h122.004l83 -223c5.33301 -13.333 10.166 -27.666 14.499 -42.999s8.16602 -30 11.499 -44l10.5 44c3.66699 15.333 7.5 28.666 11.5 39.999l74 226h112l71 -217c5.33301 -16 10.166 -31.5 14.499 -46.5s8.16602 -30.167 11.499 -45.5c4 15.333 8.66699 31 14 47
s10.333 30.333 15 43l79 219h118l-179 -438h-106l-75 227l-11 36.5c-4 13.667 -7.66699 28.167 -11 43.5l-10.5 -44c-3.66699 -14.667 -7.16699 -27 -10.5 -37l-73 -226h-110z" />
    <glyph glyph-name="x" unicode="x" horiz-adv-x="497" 
d="M180 224l-165.001 213.999h138l51.5 -72.5l45.5 -69.5l47.5 71l50.5 71h136l-164 -212l175 -226h-138l-55 79.5c-19.333 27.667 -36.666 53.834 -51.999 78.501c-16 -26 -33.833 -52.667 -53.5 -80l-57.5 -78h-137z" />
    <glyph glyph-name="y" unicode="y" horiz-adv-x="510" 
d="M202 21l-200 417h132l79 -177l20 -44l16.5 -39.5l14.5 -34.5l22.5 54.5l22.5 54.5l79 186h120l-290 -639h-120z" />
    <glyph glyph-name="z" unicode="z" horiz-adv-x="463" 
d="M249 347h-205v91h399l-234 -347h221v-91h-413z" />
    <glyph glyph-name="braceleft" unicode="{" horiz-adv-x="379" 
d="M128 98c0 48.667 -5.66797 84.166 -17.001 106.499s-35 33.5 -71 33.5v84c18 0 32.667 2.33301 44 7s20.166 12.167 26.499 22.5s10.833 23.833 13.5 40.5s4 36.667 4 60v96c0 64.667 14.333 111.667 43 141s74.334 44 137.001 44h36v-79
c-38 0 -65.5 -8.16699 -82.5 -24.5s-25.5 -43.166 -25.5 -80.499v-81c0 -31.333 -1.33301 -57.666 -4 -78.999s-7.5 -39.166 -14.5 -53.499s-16.5 -25.833 -28.5 -34.5s-27.667 -16 -47 -22c19.333 -6 35.166 -13.667 47.499 -23s22 -21.333 29 -36
s11.833 -32.167 14.5 -52.5s4 -44.833 4 -73.5v-90c0 -21.333 1.5 -39.333 4.5 -54s8.5 -26.334 16.5 -35.001s19 -14.834 33 -18.501s31.667 -5.5 53 -5.5v-87h-47c-31.333 0 -57.666 3.33301 -78.999 10s-38.666 17.667 -51.999 33s-23 35.5 -29 60.5s-9 56.167 -9 93.5
v97z" />
    <glyph glyph-name="bar" unicode="|" horiz-adv-x="235" 
d="M65 775h105v-1002h-105v1002z" />
    <glyph glyph-name="braceright" unicode="}" horiz-adv-x="379" 
d="M32 -118c39.333 0 67.167 8.6709 83.5 26.0039s24.5 45.333 24.5 84v71c0 33.333 1.16699 61.333 3.5 84s7 41.5 14 56.5s16.667 27 29 36s28.166 16.5 47.499 22.5c-19.333 6 -35 13.667 -47 23s-21.667 20.833 -29 34.5s-12.333 30 -15 49s-4 41.833 -4 68.5v100
c0 20.667 -1.66699 38 -5 52s-9.16602 25.167 -17.499 33.5s-19.333 14.166 -33 17.499s-30.834 5 -51.501 5v87h41c63.333 0 108.5 -14.333 135.5 -43s40.5 -74.334 40.5 -137.001v-113c0 -46 5.5 -79.833 16.5 -101.5s34.5 -32.5 70.5 -32.5v-85
c-17.333 0 -31.666 -2.33301 -42.999 -7s-20.333 -12.334 -27 -23.001s-11.167 -24.667 -13.5 -42s-3.5 -38.333 -3.5 -63v-80c0 -38 -3.33301 -69.833 -10 -95.5s-17.167 -46.334 -31.5 -62.001s-32.5 -27 -54.5 -34s-48 -10.5 -78 -10.5h-43v79z" />
    <glyph glyph-name="asciitilde" unicode="~" horiz-adv-x="737" 
d="M111 305c6.66699 9.33301 14.999 18.834 24.999 28.501s21.5 18.5 34.5 26.5s27.167 14.5 42.5 19.5s31.666 7.5 48.999 7.5c20 0 39.167 -3.66699 57.5 -11s36.5 -15.333 54.5 -24s35.5 -16.667 52.5 -24s33.833 -11 50.5 -11c19.333 0 38 5.16699 56 15.5
s33.667 24.166 47 41.499l46 -90c-20.667 -22.667 -44 -41 -70 -55s-53.333 -21 -82 -21c-19.333 0 -38.166 3.66699 -56.499 11s-36.166 15.333 -53.499 24s-34.333 16.667 -51 24s-33 11 -49 11c-19.333 0 -37.5 -5.5 -54.5 -16.5s-33.5 -26.167 -49.5 -45.5z" />
    <glyph glyph-name="nonbreakingspace" unicode="&#xa0;" horiz-adv-x="271" 
 />
    <glyph glyph-name="exclamdown" unicode="&#xa1;" horiz-adv-x="291" 
d="M162 563c-10.667 0 -20.667 1.99609 -30 5.99609s-17.5 9.5 -24.5 16.5s-12.667 15.333 -17 25s-6.5 19.834 -6.5 30.501s2.16699 20.834 6.5 30.501s10 18 17 25s15.167 12.5 24.5 16.5s19.333 6 30 6c21.333 0 39.666 -7.66699 54.999 -23s23 -33.666 23 -54.999
s-7.66699 -39.666 -23 -54.999s-33.666 -23 -54.999 -23zM103 500.996h118v-501h-118v501z" />
    <glyph glyph-name="cent" unicode="&#xa2;" 
d="M326 110c-34.667 2 -65.999 9.6709 -93.999 23.0039s-51.833 30.666 -71.5 51.999s-34.834 46 -45.501 74s-16 58 -16 90c0 30 5 59.167 15 87.5s24.667 53.666 44 75.999s43.166 40.666 71.499 54.999s60.5 23.166 96.5 26.499v115h62v-116c16.667 -2 32.5 -5 47.5 -9
s29.167 -8.66699 42.5 -14v-107c-12 6 -25.667 11.667 -41 17s-31.666 9 -48.999 11v-280c18 2.66699 34.667 7 50 13s29.333 12.667 42 20v-106c-28 -13.333 -58.667 -22 -92 -26v-112h-62v110zM326.001 487.004c-32 -7.33301 -57.5 -23.001 -76.5 -47.001
s-28.5 -53 -28.5 -87s9.5 -63.667 28.5 -89s44.5 -41.666 76.5 -48.999v272z" />
    <glyph glyph-name="sterling" unicode="&#xa3;" 
d="M40 84c36.667 20.667 64.6689 43 84.002 67s29 51.667 29 83c0 14.667 -2 29.167 -6 43.5s-9 28.5 -15 42.5h-88v78h55c-9.33301 22 -16.666 43.333 -21.999 64s-8 41 -8 61c0 25.333 4.83301 50 14.5 74s24 45.333 43 64s42.667 33.667 71 45s61.5 17 99.5 17
c59.333 0 107.333 -13.167 144 -39.5s63.667 -63.5 81 -111.5l-108 -45c-20 66.667 -60.667 100 -122 100c-29.333 0 -53 -9 -71 -27s-27 -42.667 -27 -74c0 -22 3.33301 -42.5 10 -61.5s15.667 -41.167 27 -66.5h157v-78h-128c8.66699 -24.667 13 -48.667 13 -72
c0 -20.667 -4 -41.167 -12 -61.5s-20.333 -38.166 -37 -53.499c16.667 -0.666992 31 -3 43 -7s23.833 -8.33301 35.5 -13s23.834 -8.83398 36.501 -12.501s27.667 -5.5 45 -5.5c22 0 41.167 3.5 57.5 10.5s31.5 16.167 45.5 27.5l53 -94
c-16.667 -11.333 -38.334 -22.833 -65.001 -34.5s-58.334 -17.5 -95.001 -17.5c-21.333 0 -40.333 2.33301 -57 7s-32.5 9.66699 -47.5 15s-29.833 10.333 -44.5 15s-30.334 7 -47.001 7c-18.667 0 -36.834 -3.33301 -54.501 -10s-33.167 -15.667 -46.5 -27z" />
    <glyph glyph-name="currency" unicode="&#xa4;" horiz-adv-x="680" 
d="M24 107l90.999 91.001c-13.333 19.333 -23.666 41.333 -30.999 66s-11 49.667 -11 75s3.33301 50.166 10 74.499s17.667 47.166 33 68.499l-91 91l77 78l91 -92c18 12.667 38.833 22.834 62.5 30.501s50.167 11.5 79.5 11.5c28 0 53.667 -3.66699 77 -11
s44.666 -17.666 63.999 -30.999l92 92l78 -78l-92 -90c12.667 -19.333 22.667 -40.833 30 -64.5s11 -49.5 11 -77.5c0 -26.667 -3.83301 -52.334 -11.5 -77.001s-18.167 -46.334 -31.5 -65.001l94 -94l-78 -76l-93 93c-19.333 -13.333 -40.833 -23.666 -64.5 -30.999
s-49.5 -11 -77.5 -11s-53.667 3.66699 -77 11s-44.666 17.333 -63.999 30l-91 -91zM334.999 183.001c21.333 0 41.334 4.16699 60.001 12.5s35 19.5 49 33.5s25 30.667 33 50s12 40 12 62s-4 42.667 -12 62s-19 36.166 -33 50.499s-30.5 25.666 -49.5 33.999
s-39.5 12.5 -61.5 12.5c-21.333 0 -41.333 -4.16699 -60 -12.5s-34.834 -19.5 -48.501 -33.5s-24.5 -30.667 -32.5 -50s-12 -40 -12 -62s4 -42.667 12 -62s19 -36.166 33 -50.499s30.333 -25.666 49 -33.999s39 -12.5 61 -12.5z" />
    <glyph glyph-name="yen" unicode="&#xa5;" 
d="M62 162h167v78h-167v83h164l-227 386h142l152 -285l152 285h137l-232 -386h159v-83h-160v-78h160v-84h-160v-78h-120v78h-167v84z" />
    <glyph glyph-name="brokenbar" unicode="&#xa6;" horiz-adv-x="240" 
d="M67 692h106v-383h-106v383zM67 191h106v-383h-106v383z" />
    <glyph glyph-name="section" unicode="&#xa7;" horiz-adv-x="537" 
d="M177 10c0 -26 7.66406 -46.5 22.9971 -61.5s37.333 -22.5 66 -22.5c27.333 0 47.666 7.5 60.999 22.5s20 32.167 20 51.5s-7.83301 35.5 -23.5 48.5s-37.5 25.167 -65.5 36.5l-50 20c-20 8 -39.167 17.5 -57.5 28.5s-34.5 24.167 -48.5 39.5s-25.167 33.5 -33.5 54.5
s-12.5 45.5 -12.5 73.5c0 18 2.5 35.833 7.5 53.5s12.167 33.834 21.5 48.501s21 27.667 35 39s29.667 19.666 47 24.999c-27.333 14.667 -48.5 32.667 -63.5 54s-22.5 47.333 -22.5 78c0 22 4.16699 43.167 12.5 63.5s20.5 38.166 36.5 53.499s35.833 27.5 59.5 36.5
s51.167 13.5 82.5 13.5c62.667 0 111.334 -15 146.001 -45s51.667 -77.333 51 -142h-113c1.33301 30 -5.16699 53.167 -19.5 69.5s-36.166 24.5 -65.499 24.5c-20 0 -38.167 -6.16699 -54.5 -18.5s-24.5 -30.833 -24.5 -55.5c0 -19.333 7.66699 -35.666 23 -48.999
s41.333 -28 78 -44l54 -24c18 -8 35 -17.667 51 -29s29.833 -24.333 41.5 -39s20.834 -31.334 27.501 -50.001s10 -39.667 10 -63c0 -38 -9.33301 -71 -28 -99s-45.334 -50 -80.001 -66c31.333 -12.667 54.833 -31.167 70.5 -55.5s23.5 -50.833 23.5 -79.5
c0 -24.667 -4.66699 -47.5 -14 -68.5s-22.666 -39.167 -39.999 -54.5s-38.5 -27.333 -63.5 -36s-53.5 -13 -85.5 -13c-36 0 -66.667 5 -92 15s-46.166 23.333 -62.499 40s-28.333 35.834 -36 57.501s-11.5 44.5 -11.5 68.5h119zM265.997 202c13.333 0 26 2.5 38 7.5
s22.5 12 31.5 21s16.167 19.5 21.5 31.5s8 25 8 39c0 13.333 -2.66699 26 -8 38s-12.5 22.5 -21.5 31.5s-19.5 16 -31.5 21s-24.667 7.5 -38 7.5s-26 -2.5 -38 -7.5s-22.5 -12 -31.5 -21s-16.167 -19.5 -21.5 -31.5s-8 -24.667 -8 -38c0 -14 2.66699 -27 8 -39
s12.5 -22.5 21.5 -31.5s19.5 -16 31.5 -21s24.667 -7.5 38 -7.5z" />
    <glyph glyph-name="dieresis" unicode="&#xa8;" horiz-adv-x="470" 
d="M335 541c-19.333 0 -35.833 6.83301 -49.5 20.5s-20.5 30.167 -20.5 49.5s6.83301 35.666 20.5 48.999s30.167 20 49.5 20s35.666 -6.66699 48.999 -20s20 -29.666 20 -48.999s-6.66699 -35.833 -20 -49.5s-29.666 -20.5 -48.999 -20.5zM134 541
c-19.333 0 -35.666 6.83301 -48.999 20.5s-20 30.167 -20 49.5s6.66699 35.666 20 48.999s29.666 20 48.999 20s35.833 -6.66699 49.5 -20s20.5 -29.666 20.5 -48.999s-6.83301 -35.833 -20.5 -49.5s-30.167 -20.5 -49.5 -20.5z" />
    <glyph glyph-name="copyright" unicode="&#xa9;" horiz-adv-x="842" 
d="M421 -19c-51.333 0 -99.666 9.83301 -144.999 29.5s-84.833 46.334 -118.5 80.001s-60.334 73.167 -80.001 118.5s-29.5 93.666 -29.5 144.999c0 52 9.83301 100.667 29.5 146s46.334 84.833 80.001 118.5s73.167 60.334 118.5 80.001s93.666 29.5 144.999 29.5
s99.666 -9.83301 144.999 -29.5s84.833 -46.334 118.5 -80.001s60.334 -73.167 80.001 -118.5s29.5 -94 29.5 -146c0 -51.333 -9.83301 -99.666 -29.5 -144.999s-46.334 -84.833 -80.001 -118.5s-73.167 -60.334 -118.5 -80.001s-93.666 -29.5 -144.999 -29.5zM421 35
c44 0 85.333 8.33301 124 25s72.5 39.5 101.5 68.5s51.833 62.833 68.5 101.5s25 80 25 124s-8.33301 85.5 -25 124.5s-39.5 73 -68.5 102s-62.833 51.833 -101.5 68.5s-80 25 -124 25s-85.5 -8.33301 -124.5 -25s-72.833 -39.5 -101.5 -68.5s-51.334 -63 -68.001 -102
s-25 -80.5 -25 -124.5s8.33301 -85.333 25 -124s39.334 -72.5 68.001 -101.5s62.5 -51.833 101.5 -68.5s80.5 -25 124.5 -25zM621 199c-22.667 -25.333 -50 -46.166 -82 -62.499s-68.667 -24.5 -110 -24.5c-34.667 0 -67 5.66699 -97 17s-56 27.5 -78 48.5
s-39.333 46.667 -52 77s-19 64.166 -19 101.499c0 33.333 5.83301 64.833 17.5 94.5s28.167 55.5 49.5 77.5s47 39.5 77 52.5s63.667 19.5 101 19.5c40 0 75.333 -6.66699 106 -20s59.667 -35 87 -65l-72 -71c-13.333 16 -30 29.667 -50 41s-44 17 -72 17
c-18 0 -35.5 -3.16699 -52.5 -9.5s-32 -15.5 -45 -27.5s-23.333 -27.167 -31 -45.5s-11.5 -39.5 -11.5 -63.5c0 -21.333 3.5 -40.833 10.5 -58.5s16.833 -33 29.5 -46s27.834 -23.167 45.501 -30.5s36.834 -11 57.501 -11c25.333 0 47.666 5 66.999 15
s36.666 23.667 51.999 41z" />
    <glyph glyph-name="ordfeminine" unicode="&#xaa;" horiz-adv-x="569" 
d="M358 392c-13.333 -17.333 -29.833 -29.499 -49.5 -36.499s-42.167 -10.5 -67.5 -10.5c-26.667 0 -50.667 5 -72 15s-39.333 23.5 -54 40.5s-26 36.833 -34 59.5s-12 46.667 -12 72c0 28 4.33301 53.667 13 77s20.667 43.166 36 59.499s33.5 29 54.5 38
s44.167 13.5 69.5 13.5c52 0 90.667 -17.333 116 -52v45h103v-358h-103v37zM90 296.001h381v-96h-381v96zM268 430.001c30 0 52.666 9.83203 67.999 29.499s23 43.167 23 70.5c0 32 -9 56.833 -27 74.5s-40 26.5 -66 26.5c-26.667 0 -48.5 -9.66699 -65.5 -29
s-25.5 -42.666 -25.5 -69.999c0 -30 8.83301 -54.5 26.5 -73.5s39.834 -28.5 66.501 -28.5z" />
    <glyph glyph-name="guillemotleft" unicode="&#xab;" horiz-adv-x="440" 
d="M203 228l142 206l70 -45l-113 -159l114 -152l-72 -46zM24 226l146 213l67 -48l-113 -163l114 -155l-72 -46z" />
    <glyph glyph-name="logicalnot" unicode="&#xac;" horiz-adv-x="675" 
d="M26 343h612v-307h-106v202h-506v105z" />
    <glyph glyph-name="uni00AD" unicode="&#xad;" horiz-adv-x="361" 
d="M43 312h275v-96h-275v96z" />
    <glyph glyph-name="registered" unicode="&#xae;" horiz-adv-x="842" 
d="M412 131c-44.667 0 -86.667 8.5 -126 25.5s-73.666 40.167 -102.999 69.5s-52.5 63.666 -69.5 102.999s-25.5 81.333 -25.5 126s8.5 86.667 25.5 126s40.167 73.666 69.5 102.999s63.666 52.5 102.999 69.5s81.333 25.5 126 25.5s86.667 -8.5 126 -25.5
s73.666 -40.167 102.999 -69.5s52.5 -63.666 69.5 -102.999s25.5 -81.333 25.5 -126s-8.5 -86.667 -25.5 -126s-40.167 -73.666 -69.5 -102.999s-63.666 -52.5 -102.999 -69.5s-81.333 -25.5 -126 -25.5zM412 193c36 0 70 6.83301 102 20.5s60 32.334 84 56.001
s42.833 51.5 56.5 83.5s20.5 66 20.5 102s-6.83301 70 -20.5 102s-32.5 59.833 -56.5 83.5s-52 42.334 -84 56.001s-66 20.5 -102 20.5s-69.833 -6.83301 -101.5 -20.5s-59.5 -32.334 -83.5 -56.001s-42.833 -51.5 -56.5 -83.5s-20.5 -66 -20.5 -102s6.83301 -70 20.5 -102
s32.5 -59.833 56.5 -83.5s51.833 -42.334 83.5 -56.001s65.5 -20.5 101.5 -20.5zM291 651h119.001c47.333 0 82.666 -10.333 105.999 -31s35 -46 35 -76c0 -56 -30.667 -91.667 -92 -107l106 -169h-95l-94 161h-5v-161h-80v383zM393.001 485c20.667 0 37.833 3.5 51.5 10.5
s20.5 21.833 20.5 44.5c0 34 -21.667 51 -65 51h-29v-106h22z" />
    <glyph glyph-name="macron" unicode="&#xaf;" horiz-adv-x="470" 
d="M92 650h285v-94h-285v94z" />
    <glyph glyph-name="degree" unicode="&#xb0;" horiz-adv-x="369" 
d="M184 418c-23.333 0 -45.499 4.33203 -66.499 12.999s-39.167 20.5 -54.5 35.5s-27.5 32.667 -36.5 53s-13.5 42.166 -13.5 65.499s4.5 45.333 13.5 66s21.333 38.667 37 54s34 27.333 55 36s43.167 13 66.5 13s45.333 -4.33301 66 -13s38.667 -20.5 54 -35.5
s27.5 -32.833 36.5 -53.5s13.5 -42.667 13.5 -66s-4.5 -45.166 -13.5 -65.499s-21.333 -38.166 -37 -53.499s-33.834 -27.333 -54.501 -36s-42.667 -13 -66 -13zM185.001 513.999c19.333 0 35.833 6.99902 49.5 20.999s20.5 30.667 20.5 50c0 20 -7 37 -21 51
s-30.667 21 -50 21c-20 0 -36.833 -6.83301 -50.5 -20.5s-20.5 -30.5 -20.5 -50.5c0 -19.333 7 -36.166 21 -50.499s31 -21.5 51 -21.5z" />
    <glyph glyph-name="plusminus" unicode="&#xb1;" horiz-adv-x="675" 
d="M51 473h233v208h107v-208h233v-104h-233v-210h-107v210h-233v104zM51 105h573v-105h-573v105z" />
    <glyph glyph-name="twosuperior" unicode="&#xb2;" horiz-adv-x="368" 
d="M39 359l107 98.999c16 14.667 29.667 27.667 41 39s20.5 21.5 27.5 30.5s12.167 17.5 15.5 25.5s5 16.667 5 26c0 17.333 -4.83301 31.5 -14.5 42.5s-24.167 16.5 -43.5 16.5c-23.333 0 -39.166 -8 -47.499 -24s-11.833 -35 -10.5 -57h-87
c-1.33301 48.667 11.167 87.167 37.5 115.5s63.166 42.5 110.499 42.5c24.667 0 46.167 -3.66699 64.5 -11s33.5 -17.166 45.5 -29.499s20.833 -26.5 26.5 -42.5s8.5 -32.333 8.5 -49c0 -18 -3.33301 -35.167 -10 -51.5s-16 -32 -28 -47s-26.5 -29.833 -43.5 -44.5
s-35.833 -29.667 -56.5 -45h145v-81h-293v45z" />
    <glyph glyph-name="threesuperior" unicode="&#xb3;" horiz-adv-x="354" 
d="M118 439c1.33301 -41.333 20.332 -62 56.999 -62c18 0 31.833 5.16699 41.5 15.5s14.5 22.833 14.5 37.5c0 15.333 -5.16699 28.333 -15.5 39s-28.5 16 -54.5 16h-21v64h18c22.667 0 38.834 4.83301 48.501 14.5s14.5 21.167 14.5 34.5c0 14 -4.33301 25.167 -13 33.5
s-20 12.5 -34 12.5c-16 0 -28.333 -4.66699 -37 -14s-12.334 -23 -11.001 -41h-84c0.666992 38 12.5 68.667 35.5 92s56.167 35 99.5 35c42 0 74.5 -11.167 97.5 -33.5s34.5 -49.5 34.5 -81.5c0 -36 -15.667 -62.333 -47 -79c17.333 -6 31.666 -17.667 42.999 -35
s17 -35.333 17 -54c0 -16 -3.16699 -31.667 -9.5 -47s-15.666 -29 -27.999 -41s-27.666 -21.5 -45.999 -28.5s-39.833 -10.5 -64.5 -10.5c-42 0 -75.833 12 -101.5 36s-39.167 56.333 -40.5 97h86z" />
    <glyph glyph-name="acute" unicode="&#xb4;" horiz-adv-x="470" 
d="M257 705l90 -68l-159 -128l-65 47z" />
    <glyph glyph-name="mu" unicode="&#xb5;" horiz-adv-x="548" 
d="M66 438l112.997 -0.000976562v-224c0 -36 7.66699 -65.833 23 -89.5s39.666 -35.5 72.999 -35.5c16.667 0 30.834 3.66699 42.501 11s21.334 17 29.001 29s13.334 25.667 17.001 41s5.5 31 5.5 47v221h113v-438h-109v53c-7.33301 -16 -19.166 -31 -35.499 -45
s-37.833 -21 -64.5 -21c-26 0 -46.5 6.33301 -61.5 19s-25.833 25.334 -32.5 38.001v-245h-113v639z" />
    <glyph glyph-name="paragraph" unicode="&#xb6;" horiz-adv-x="664" 
d="M253 303c-25.333 4.66699 -48.334 12.999 -69.001 24.999s-38.5 27 -53.5 45s-26.667 38.167 -35 60.5s-12.5 45.833 -12.5 70.5c0 28 5.33301 54.5 16 79.5s25.334 46.833 44.001 65.5s40.667 33.334 66 44.001s52.333 16 81 16h294v-80h-61v-797h-92v797h-86v-797h-92
v471z" />
    <glyph glyph-name="periodcentered" unicode="&#xb7;" horiz-adv-x="236" 
d="M117 211c-22 0 -40.833 7.83301 -56.5 23.5s-23.5 34.5 -23.5 56.5c0 22.667 7.83301 41.667 23.5 57s34.5 23 56.5 23s40.833 -7.66699 56.5 -23s23.5 -34.333 23.5 -57c0 -22 -7.83301 -40.833 -23.5 -56.5s-34.5 -23.5 -56.5 -23.5z" />
    <glyph glyph-name="cedilla" unicode="&#xb8;" horiz-adv-x="470" 
d="M242 -35l88 -52l-122 -135l-67 53z" />
    <glyph glyph-name="onesuperior" unicode="&#xb9;" horiz-adv-x="235" 
d="M94 628h-76v81h167v-395h-91v314z" />
    <glyph glyph-name="ordmasculine" unicode="&#xba;" horiz-adv-x="574" 
d="M276 343c-27.333 0 -52.8311 4.66699 -76.498 14s-44.167 22.5 -61.5 39.5s-31 37 -41 60s-15 48.167 -15 75.5c0 26 5 50.667 15 74s23.833 43.5 41.5 60.5s38.5 30.5 62.5 40.5s50 15 78 15s54 -4.83301 78 -14.5s45 -22.834 63 -39.501s32 -36.667 42 -60
s15 -48.333 15 -75c0 -25.333 -4.83301 -49.5 -14.5 -72.5s-23.334 -43.167 -41.001 -60.5s-38.834 -31.166 -63.501 -41.499s-52 -15.5 -82 -15.5zM90.002 296h381v-96h-381v96zM280.002 433c27.333 0 49.668 9.83203 67.001 29.499s26 42.834 26 69.501
c0 14 -2.5 27 -7.5 39s-11.667 22.5 -20 31.5s-18.333 16.167 -30 21.5s-24.167 8 -37.5 8c-28 0 -50.5 -9.83301 -67.5 -29.5s-25.5 -43.167 -25.5 -70.5c0 -14 2.5 -27 7.5 -39s11.833 -22.5 20.5 -31.5s18.667 -16 30 -21s23.666 -7.5 36.999 -7.5z" />
    <glyph glyph-name="guillemotright" unicode="&#xbb;" horiz-adv-x="440" 
d="M314 239l-114 156l71 45l143 -201l-144 -211l-69 48zM137 239l-114 151l71 45l141 -196l-141 -207l-72 47z" />
    <glyph glyph-name="onequarter" unicode="&#xbc;" horiz-adv-x="793" 
d="M413 141l152 254h110v-249h58v-76h-58v-70h-86v70h-176v71zM527 734l63 -32l-399 -731l-62 34zM133 628h-78v81h167v-395h-89v314zM589 145v152l-88 -152h88z" />
    <glyph glyph-name="onehalf" unicode="&#xbd;" horiz-adv-x="826" 
d="M462 44l107 100.001l41 38.5c11.333 11 20.5 21 27.5 30s12.167 17.667 15.5 26s5 17.166 5 26.499c0 16.667 -5 30.5 -15 41.5s-24.667 16.5 -44 16.5c-22.667 0 -38.167 -8 -46.5 -24s-11.833 -35 -10.5 -57h-87c-1.33301 49.333 11.167 88 37.5 116
s62.833 42 109.5 42c24.667 0 46.167 -3.66699 64.5 -11s33.5 -17.166 45.5 -29.499s21 -26.333 27 -42s9 -31.834 9 -48.501c0 -18 -3.33301 -35.167 -10 -51.5s-16 -32 -28 -47s-26.5 -29.833 -43.5 -44.5s-35.833 -29.667 -56.5 -45h145v-81h-293v44zM527 734.001l63 -32
l-399 -731l-62 34zM133 628.001h-78v81h167v-395h-89v314z" />
    <glyph glyph-name="threequarters" unicode="&#xbe;" horiz-adv-x="890" 
d="M513 141l152 254h109v-249h58v-76h-58v-70h-86v70h-175v71zM625 734l62 -32l-398 -731l-62 34zM142 438c0 -40.667 18.998 -60.999 56.998 -60.999c18 0 31.667 5 41 15s14 22.333 14 37c0 15.333 -5 28.5 -15 39.5s-28 16.5 -54 16.5h-22v63h19
c22.667 0 38.667 4.83301 48 14.5s14 21.5 14 35.5c0 13.333 -4.33301 24.166 -13 32.499s-20 12.5 -34 12.5c-33.333 0 -49.333 -18.333 -48 -55h-83c0.666992 38 12.5 68.833 35.5 92.5s55.833 35.5 98.5 35.5c42 0 74.667 -11.167 98 -33.5s35 -49.5 35 -81.5
c0 -35.333 -16 -62 -48 -80c18 -6 32.5 -17.5 43.5 -34.5s16.5 -35.167 16.5 -54.5c0 -16 -3.16699 -31.667 -9.5 -47s-15.666 -28.833 -27.999 -40.5s-27.666 -21.167 -45.999 -28.5s-39.5 -11 -63.5 -11c-42 0 -75.833 12.167 -101.5 36.5s-39.167 56.5 -40.5 96.5h86z
M688.998 145.001v152l-88 -152h88z" />
    <glyph glyph-name="questiondown" unicode="&#xbf;" horiz-adv-x="538" 
d="M278 567c-21.333 0 -39.5 7.5 -54.5 22.5s-22.5 33.167 -22.5 54.5s7.5 39.5 22.5 54.5s33.167 22.5 54.5 22.5s39.5 -7.5 54.5 -22.5s22.5 -33.167 22.5 -54.5s-7.5 -39.5 -22.5 -54.5s-33.167 -22.5 -54.5 -22.5zM491 209
c0.666992 -30.667 -3.99902 -59.332 -13.999 -85.999s-24.5 -50 -43.5 -70s-42 -35.667 -69 -47s-56.833 -17 -89.5 -17c-34 0 -64.5 5.5 -91.5 16.5s-50 25.833 -69 44.5s-33.667 40.667 -44 66s-15.5 52.666 -15.5 81.999c0 26 4.16699 50.167 12.5 72.5s20 42 35 59
s32.667 31.167 53 42.5s42.5 19 66.5 23v109h115v-193h-50c-18 0 -34 -2.83301 -48 -8.5s-26 -13.5 -36 -23.5s-17.5 -21.5 -22.5 -34.5s-7.5 -26.833 -7.5 -41.5c0 -15.333 2.83301 -29.5 8.5 -42.5s13.167 -24.5 22.5 -34.5s20.5 -17.833 33.5 -23.5
s27.167 -8.5 42.5 -8.5c14.667 0 28.667 2.83301 42 8.5s24.833 13.667 34.5 24s17.167 22.5 22.5 36.5s7.66602 29.333 6.99902 46h105z" />
    <glyph glyph-name="Agrave" unicode="&#xc0;" horiz-adv-x="701" 
d="M287 709h122l284 -709h-136l-62 165h-294l-61 -165h-131zM455 272l-62 165.999c-3.33301 8.66699 -7.5 20.334 -12.5 35.001l-15.5 44l-18 53l-17 -53l-15.5 -43.5l-12.5 -35.5l-62 -166h215zM301 920.999l144 -120l-56 -56l-176 102z" />
    <glyph glyph-name="Aacute" unicode="&#xc1;" horiz-adv-x="701" 
d="M287 709h122l284 -709h-136l-62 165h-294l-61 -165h-131zM455 272l-62 165.999c-3.33301 8.66699 -7.5 20.334 -12.5 35.001l-15.5 44l-18 53l-17 -53l-15.5 -43.5l-12.5 -35.5l-62 -166h215zM263 799.999l142 120l88 -74l-175 -103z" />
    <glyph glyph-name="Acircumflex" unicode="&#xc2;" horiz-adv-x="701" 
d="M287 709h122l284 -709h-136l-62 165h-294l-61 -165h-131zM455 272l-62 165.999c-3.33301 8.66699 -7.5 20.334 -12.5 35.001l-15.5 44l-18 53l-17 -53l-15.5 -43.5l-12.5 -35.5l-62 -166h215zM179 813.999l172 91l172 -89l-43 -70l-129 61l-130 -61z" />
    <glyph glyph-name="Atilde" unicode="&#xc3;" horiz-adv-x="701" 
d="M287 709h122l284 -709h-136l-62 165h-294l-61 -165h-131zM455 272l-62 165.999c-3.33301 8.66699 -7.5 20.334 -12.5 35.001l-15.5 44l-18 53l-17 -53l-15.5 -43.5l-12.5 -35.5l-62 -166h215zM152 764.999c0 38 10.332 69.5 30.999 94.5s49 37.5 85 37.5
c16.667 0 31.5 -2.66699 44.5 -8s25.5 -11.333 37.5 -18s23.5 -12.667 34.5 -18s22.833 -8 35.5 -8c12 0 21.667 4.16699 29 12.5s11 19.833 11 34.5h84c0 -40 -11 -72.167 -33 -96.5s-51 -36.5 -87 -36.5c-16 0 -30.833 2.83301 -44.5 8.5s-26.667 11.667 -39 18l-35 18
c-11 5.66699 -21.833 8.5 -32.5 8.5c-11.333 0 -20.666 -4.5 -27.999 -13.5s-11 -20.167 -11 -33.5h-82z" />
    <glyph glyph-name="Adieresis" unicode="&#xc4;" horiz-adv-x="701" 
d="M287 709h122l284 -709h-136l-62 165h-294l-61 -165h-131zM455 272l-62 165.999c-3.33301 8.66699 -7.5 20.334 -12.5 35.001l-15.5 44l-18 53l-17 -53l-15.5 -43.5l-12.5 -35.5l-62 -166h215zM449 756.999c-19.333 0 -35.833 6.83301 -49.5 20.5s-20.5 30.167 -20.5 49.5
s6.83301 35.666 20.5 48.999s30.167 20 49.5 20s35.666 -6.66699 48.999 -20s20 -29.666 20 -48.999s-6.66699 -35.833 -20 -49.5s-29.666 -20.5 -48.999 -20.5zM248 756.999c-19.333 0 -35.666 6.83301 -48.999 20.5s-20 30.167 -20 49.5s6.66699 35.666 20 48.999
s29.666 20 48.999 20s35.833 -6.66699 49.5 -20s20.5 -29.666 20.5 -48.999s-6.83301 -35.833 -20.5 -49.5s-30.167 -20.5 -49.5 -20.5z" />
    <glyph glyph-name="Aring" unicode="&#xc5;" horiz-adv-x="701" 
d="M279 688c-12.667 9.33301 -22.665 21.167 -29.998 35.5s-11 30.166 -11 47.499c0 14.667 2.83301 28.667 8.5 42s13.5 24.666 23.5 33.999s21.667 16.833 35 22.5s27.666 8.5 42.999 8.5s29.666 -2.83301 42.999 -8.5s25 -13.167 35 -22.5s17.833 -20.666 23.5 -33.999
s8.5 -27.333 8.5 -42c0 -17.333 -3.66699 -33.166 -11 -47.499s-17.333 -26.5 -30 -36.5l276 -687h-136l-62 165h-294l-61 -165h-131zM348.002 723.001c13.333 0 24.5 4.66699 33.5 14s13.5 20.666 13.5 33.999s-4.5 24.5 -13.5 33.5s-20.167 13.5 -33.5 13.5
s-24.5 -4.5 -33.5 -13.5s-13.5 -20.167 -13.5 -33.5s4.5 -24.666 13.5 -33.999s20.167 -14 33.5 -14zM455.002 272.001l-62 165.999c-3.33301 8.66699 -7.5 20.334 -12.5 35.001l-15.5 44l-18 53l-17 -53l-15.5 -43.5l-12.5 -35.5l-62 -166h215z" />
    <glyph glyph-name="AE" unicode="&#xc6;" horiz-adv-x="926" 
d="M312 709h385l37 -113h-253l55 -176h244l35 -111h-243l62 -196h255l37 -113h-389l-49 162h-285l-66 -162h-132zM456 269l-52 169l-15 49l-12.5 42c-4.33301 14.667 -7.83301 27 -10.5 37l-25 -65.5l-25 -62.5l-69 -169h209z" />
    <glyph glyph-name="Ccedilla" unicode="&#xc7;" horiz-adv-x="645" 
d="M596 31c-26 -13.333 -56.002 -23.668 -90.002 -31.001s-69.667 -11 -107 -11c-53.333 0 -101.833 9.33301 -145.5 28s-81.167 44.334 -112.5 77.001s-55.5 71 -72.5 115s-25.5 91 -25.5 141c0 54 9 103.5 27 148.5s43 83.833 75 116.5s70.167 58.167 114.5 76.5
s92.833 27.5 145.5 27.5c70 0 132.333 -12.667 187 -38v-134c-23.333 17.333 -51.5 31.5 -84.5 42.5s-67.167 16.5 -102.5 16.5c-32.667 0 -63.167 -6 -91.5 -18s-52.833 -29 -73.5 -51s-37 -48.5 -49 -79.5s-18 -65.833 -18 -104.5c0 -34.667 5.5 -67.167 16.5 -97.5
s26.833 -56.833 47.5 -79.5s45.834 -40.5 75.501 -53.5s62.834 -19.5 99.501 -19.5c37.333 0 71.5 4.83301 102.5 14.5s58.167 23.167 81.5 40.5v-127v0zM337.998 -35.002l88 -52l-122 -135l-67 53z" />
    <glyph glyph-name="Egrave" unicode="&#xc8;" horiz-adv-x="544" 
d="M82 709h387v-113h-263v-176h255v-111h-255v-196h264v-113h-388v709zM218 921l144 -120l-56 -56l-176 102z" />
    <glyph glyph-name="Eacute" unicode="&#xc9;" horiz-adv-x="544" 
d="M82 709h387v-113h-263v-176h255v-111h-255v-196h264v-113h-388v709zM214 800l142 120l88 -74l-175 -103z" />
    <glyph glyph-name="Ecircumflex" unicode="&#xca;" horiz-adv-x="544" 
d="M82 709h387v-113h-263v-176h255v-111h-255v-196h264v-113h-388v709zM113 814l172 91l172 -89l-43 -70l-129 61l-130 -61z" />
    <glyph glyph-name="Edieresis" unicode="&#xcb;" horiz-adv-x="544" 
d="M82 709h387v-113h-263v-176h255v-111h-255v-196h264v-113h-388v709zM385 757c-19.333 0 -35.833 6.83301 -49.5 20.5s-20.5 30.167 -20.5 49.5s6.83301 35.666 20.5 48.999s30.167 20 49.5 20s35.666 -6.66699 48.999 -20s20 -29.666 20 -48.999
s-6.66699 -35.833 -20 -49.5s-29.666 -20.5 -48.999 -20.5zM184 757c-19.333 0 -35.666 6.83301 -48.999 20.5s-20 30.167 -20 49.5s6.66699 35.666 20 48.999s29.666 20 48.999 20s35.833 -6.66699 49.5 -20s20.5 -29.666 20.5 -48.999s-6.83301 -35.833 -20.5 -49.5
s-30.167 -20.5 -49.5 -20.5z" />
    <glyph glyph-name="Igrave" unicode="&#xcc;" horiz-adv-x="288" 
d="M82 709h124v-709h-124v709zM81 921l144 -120l-56 -56l-176 102z" />
    <glyph glyph-name="Iacute" unicode="&#xcd;" horiz-adv-x="288" 
d="M82 709h124v-709h-124v709zM65 800l142 120l88 -74l-175 -103z" />
    <glyph glyph-name="Icircumflex" unicode="&#xce;" horiz-adv-x="288" 
d="M82 709h124v-709h-124v709zM-24 814l172 91l172 -89l-43 -70l-129 61l-130 -61z" />
    <glyph glyph-name="Idieresis" unicode="&#xcf;" horiz-adv-x="288" 
d="M82 709h124v-709h-124v709zM246 757c-19.333 0 -35.833 6.83301 -49.5 20.5s-20.5 30.167 -20.5 49.5s6.83301 35.666 20.5 48.999s30.167 20 49.5 20s35.666 -6.66699 48.999 -20s20 -29.666 20 -48.999s-6.66699 -35.833 -20 -49.5s-29.666 -20.5 -48.999 -20.5z
M45 757c-19.333 0 -35.666 6.83301 -48.999 20.5s-20 30.167 -20 49.5s6.66699 35.666 20 48.999s29.666 20 48.999 20s35.833 -6.66699 49.5 -20s20.5 -29.666 20.5 -48.999s-6.83301 -35.833 -20.5 -49.5s-30.167 -20.5 -49.5 -20.5z" />
    <glyph glyph-name="Eth" unicode="&#xd0;" horiz-adv-x="693" 
d="M93 312l-64 0.000976562v100h64v297h186c118 0 208.667 -31.667 272 -95c32 -32 56.333 -68.833 73 -110.5s25 -89.5 25 -143.5s-8.66699 -102.833 -26 -146.5s-42.333 -81.834 -75 -114.501c-66 -66 -161.667 -99 -287 -99h-168v312zM267 104.001
c83.333 0 145.331 20.334 185.998 61.001c20.667 20.667 36.834 46.667 48.501 78s17.5 68.666 17.5 111.999c0 39.333 -5.66699 75 -17 107s-27.666 58.667 -48.999 80c-23.333 23.333 -50.333 39.833 -81 49.5s-65.667 14.5 -105 14.5h-52v-194h73v-100h-73v-208h52z" />
    <glyph glyph-name="Ntilde" unicode="&#xd1;" horiz-adv-x="779" 
d="M82 709l114.001 -0.000976562l293 -392l52 -72.5c17.333 -25 32.666 -48.167 45.999 -69.5c-1.33301 40.667 -2.5 79.834 -3.5 117.501s-1.5 76.5 -1.5 116.5v300h114v-709h-112l-309 412l-43 60l-41 60c1.33301 -33.333 2.33301 -66 3 -98s2 -64.667 4 -98v-336h-116
v709zM199.001 764.999c0 38 10.332 69.5 30.999 94.5s49 37.5 85 37.5c16.667 0 31.5 -2.66699 44.5 -8s25.5 -11.333 37.5 -18s23.5 -12.667 34.5 -18s22.833 -8 35.5 -8c12 0 21.667 4.16699 29 12.5s11 19.833 11 34.5h84c0 -40 -11 -72.167 -33 -96.5
s-51 -36.5 -87 -36.5c-16 0 -30.833 2.83301 -44.5 8.5s-26.667 11.667 -39 18l-35 18c-11 5.66699 -21.833 8.5 -32.5 8.5c-11.333 0 -20.666 -4.5 -27.999 -13.5s-11 -20.167 -11 -33.5h-82z" />
    <glyph glyph-name="Ograve" unicode="&#xd2;" horiz-adv-x="826" 
d="M412 -16c-52 0 -100.5 9.5 -145.5 28.5s-84.333 45.167 -118 78.5s-60.167 72.5 -79.5 117.5s-29 93.167 -29 144.5c0 50.667 9.83301 98.5 29.5 143.5s46.5 84.333 80.5 118s73.667 60.334 119 80.001s93.666 29.5 144.999 29.5c52 0 100.667 -9.5 146 -28.5
s84.833 -45.167 118.5 -78.5s60.167 -72.5 79.5 -117.5s29 -93.5 29 -145.5c0 -51.333 -10 -99.333 -30 -144s-47 -83.834 -81 -117.501s-73.667 -60.167 -119 -79.5s-93.666 -29 -144.999 -29zM413 102c35.333 0 68 6.50098 98 19.501s56 30.833 78 53.5
s39.167 49.334 51.5 80.001s18.5 63.667 18.5 99s-6 68.5 -18 99.5s-29 58 -51 81s-48 41 -78 54s-63 19.5 -99 19.5c-35.333 0 -68 -6.66699 -98 -20s-56 -31.5 -78 -54.5s-39.167 -49.833 -51.5 -80.5s-18.5 -63.334 -18.5 -98.001s6.33301 -67.334 19 -98.001
s30 -57.5 52 -80.5s48 -41.167 78 -54.5s62.333 -20 97 -20zM369 921.001l144 -120l-56 -56l-176 102z" />
    <glyph glyph-name="Oacute" unicode="&#xd3;" horiz-adv-x="826" 
d="M412 -16c-52 0 -100.5 9.5 -145.5 28.5s-84.333 45.167 -118 78.5s-60.167 72.5 -79.5 117.5s-29 93.167 -29 144.5c0 50.667 9.83301 98.5 29.5 143.5s46.5 84.333 80.5 118s73.667 60.334 119 80.001s93.666 29.5 144.999 29.5c52 0 100.667 -9.5 146 -28.5
s84.833 -45.167 118.5 -78.5s60.167 -72.5 79.5 -117.5s29 -93.5 29 -145.5c0 -51.333 -10 -99.333 -30 -144s-47 -83.834 -81 -117.501s-73.667 -60.167 -119 -79.5s-93.666 -29 -144.999 -29zM413 102c35.333 0 68 6.50098 98 19.501s56 30.833 78 53.5
s39.167 49.334 51.5 80.001s18.5 63.667 18.5 99s-6 68.5 -18 99.5s-29 58 -51 81s-48 41 -78 54s-63 19.5 -99 19.5c-35.333 0 -68 -6.66699 -98 -20s-56 -31.5 -78 -54.5s-39.167 -49.833 -51.5 -80.5s-18.5 -63.334 -18.5 -98.001s6.33301 -67.334 19 -98.001
s30 -57.5 52 -80.5s48 -41.167 78 -54.5s62.333 -20 97 -20zM312 800.001l142 120l88 -74l-175 -103z" />
    <glyph glyph-name="Ocircumflex" unicode="&#xd4;" horiz-adv-x="826" 
d="M412 -16c-52 0 -100.5 9.5 -145.5 28.5s-84.333 45.167 -118 78.5s-60.167 72.5 -79.5 117.5s-29 93.167 -29 144.5c0 50.667 9.83301 98.5 29.5 143.5s46.5 84.333 80.5 118s73.667 60.334 119 80.001s93.666 29.5 144.999 29.5c52 0 100.667 -9.5 146 -28.5
s84.833 -45.167 118.5 -78.5s60.167 -72.5 79.5 -117.5s29 -93.5 29 -145.5c0 -51.333 -10 -99.333 -30 -144s-47 -83.834 -81 -117.501s-73.667 -60.167 -119 -79.5s-93.666 -29 -144.999 -29zM413 102c35.333 0 68 6.50098 98 19.501s56 30.833 78 53.5
s39.167 49.334 51.5 80.001s18.5 63.667 18.5 99s-6 68.5 -18 99.5s-29 58 -51 81s-48 41 -78 54s-63 19.5 -99 19.5c-35.333 0 -68 -6.66699 -98 -20s-56 -31.5 -78 -54.5s-39.167 -49.833 -51.5 -80.5s-18.5 -63.334 -18.5 -98.001s6.33301 -67.334 19 -98.001
s30 -57.5 52 -80.5s48 -41.167 78 -54.5s62.333 -20 97 -20zM245 814.001l172 91l172 -89l-43 -70l-129 61l-130 -61z" />
    <glyph glyph-name="Otilde" unicode="&#xd5;" horiz-adv-x="826" 
d="M412 -16c-52 0 -100.5 9.5 -145.5 28.5s-84.333 45.167 -118 78.5s-60.167 72.5 -79.5 117.5s-29 93.167 -29 144.5c0 50.667 9.83301 98.5 29.5 143.5s46.5 84.333 80.5 118s73.667 60.334 119 80.001s93.666 29.5 144.999 29.5c52 0 100.667 -9.5 146 -28.5
s84.833 -45.167 118.5 -78.5s60.167 -72.5 79.5 -117.5s29 -93.5 29 -145.5c0 -51.333 -10 -99.333 -30 -144s-47 -83.834 -81 -117.501s-73.667 -60.167 -119 -79.5s-93.666 -29 -144.999 -29zM413 102c35.333 0 68 6.50098 98 19.501s56 30.833 78 53.5
s39.167 49.334 51.5 80.001s18.5 63.667 18.5 99s-6 68.5 -18 99.5s-29 58 -51 81s-48 41 -78 54s-63 19.5 -99 19.5c-35.333 0 -68 -6.66699 -98 -20s-56 -31.5 -78 -54.5s-39.167 -49.833 -51.5 -80.5s-18.5 -63.334 -18.5 -98.001s6.33301 -67.334 19 -98.001
s30 -57.5 52 -80.5s48 -41.167 78 -54.5s62.333 -20 97 -20zM214 765.001c0 38 10.332 69.5 30.999 94.5s49 37.5 85 37.5c16.667 0 31.5 -2.66699 44.5 -8s25.5 -11.333 37.5 -18s23.5 -12.667 34.5 -18s22.833 -8 35.5 -8c12 0 21.667 4.16699 29 12.5s11 19.833 11 34.5
h84c0 -40 -11 -72.167 -33 -96.5s-51 -36.5 -87 -36.5c-16 0 -30.833 2.83301 -44.5 8.5s-26.667 11.667 -39 18l-35 18c-11 5.66699 -21.833 8.5 -32.5 8.5c-11.333 0 -20.666 -4.5 -27.999 -13.5s-11 -20.167 -11 -33.5h-82z" />
    <glyph glyph-name="Odieresis" unicode="&#xd6;" horiz-adv-x="826" 
d="M412 -16c-52 0 -100.5 9.5 -145.5 28.5s-84.333 45.167 -118 78.5s-60.167 72.5 -79.5 117.5s-29 93.167 -29 144.5c0 50.667 9.83301 98.5 29.5 143.5s46.5 84.333 80.5 118s73.667 60.334 119 80.001s93.666 29.5 144.999 29.5c52 0 100.667 -9.5 146 -28.5
s84.833 -45.167 118.5 -78.5s60.167 -72.5 79.5 -117.5s29 -93.5 29 -145.5c0 -51.333 -10 -99.333 -30 -144s-47 -83.834 -81 -117.501s-73.667 -60.167 -119 -79.5s-93.666 -29 -144.999 -29zM413 102c35.333 0 68 6.50098 98 19.501s56 30.833 78 53.5
s39.167 49.334 51.5 80.001s18.5 63.667 18.5 99s-6 68.5 -18 99.5s-29 58 -51 81s-48 41 -78 54s-63 19.5 -99 19.5c-35.333 0 -68 -6.66699 -98 -20s-56 -31.5 -78 -54.5s-39.167 -49.833 -51.5 -80.5s-18.5 -63.334 -18.5 -98.001s6.33301 -67.334 19 -98.001
s30 -57.5 52 -80.5s48 -41.167 78 -54.5s62.333 -20 97 -20zM514 757.001c-19.333 0 -35.833 6.83301 -49.5 20.5s-20.5 30.167 -20.5 49.5s6.83301 35.666 20.5 48.999s30.167 20 49.5 20s35.666 -6.66699 48.999 -20s20 -29.666 20 -48.999s-6.66699 -35.833 -20 -49.5
s-29.666 -20.5 -48.999 -20.5zM313 757.001c-19.333 0 -35.666 6.83301 -48.999 20.5s-20 30.167 -20 49.5s6.66699 35.666 20 48.999s29.666 20 48.999 20s35.833 -6.66699 49.5 -20s20.5 -29.666 20.5 -48.999s-6.83301 -35.833 -20.5 -49.5s-30.167 -20.5 -49.5 -20.5z
" />
    <glyph glyph-name="multiply" unicode="&#xd7;" horiz-adv-x="675" 
d="M68 100l192 191l-192 192l73 72l192 -191l192 191l74 -72l-191 -192l191 -191l-74 -75l-192 191l-192 -191z" />
    <glyph glyph-name="Oslash" unicode="&#xd8;" horiz-adv-x="831" 
d="M123 120c-26 32 -46.167 67.5 -60.5 106.5s-21.5 81.167 -21.5 126.5c0 50.667 9.83301 98.5 29.5 143.5s46.5 84.333 80.5 118s73.667 60.334 119 80.001s93.666 29.5 144.999 29.5c44 0 85.833 -7 125.5 -21s75.5 -33.667 107.5 -59l85 85l50 -49l-84 -84
c28 -32 49.833 -68.5 65.5 -109.5s23.5 -85.167 23.5 -132.5c0 -51.333 -10 -99.333 -30 -144s-47 -83.834 -81 -117.501s-73.667 -60.167 -119 -79.5s-93.666 -29 -144.999 -29c-46 0 -89.333 7.5 -130 22.5s-78 36.167 -112 63.5l-91 -91l-49 49zM564 561
c-20 15.333 -42.501 27.5 -67.501 36.5s-52.5 13.5 -82.5 13.5c-36 0 -69.167 -6.83301 -99.5 -20.5s-56.5 -32.167 -78.5 -55.5s-39.167 -50.5 -51.5 -81.5s-18.5 -63.833 -18.5 -98.5c0 -26.667 3.83301 -52.5 11.5 -77.5s18.834 -47.833 33.501 -68.5zM256.999 156
c21.333 -17.333 45.167 -31.167 71.5 -41.5s54.833 -15.5 85.5 -15.5c36 0 69.167 6.5 99.5 19.5s56.5 31 78.5 54s39.167 50 51.5 81s18.5 64.5 18.5 100.5c0 60.667 -16.333 113 -49 157z" />
    <glyph glyph-name="Ugrave" unicode="&#xd9;" horiz-adv-x="713" 
d="M80 709l124 -0.00195312v-435c0 -33.333 3 -60.666 9 -81.999s17 -40 33 -56c12.667 -12.667 28.167 -22.667 46.5 -30s40.166 -11 65.499 -11c24 0 45.167 3.5 63.5 10.5s33.833 16.5 46.5 28.5c14 14 24.833 31.333 32.5 52s11.5 47.334 11.5 80.001v443h121v-431
c0 -50 -6.5 -92.833 -19.5 -128.5s-31.833 -66.167 -56.5 -91.5c-25.333 -25.333 -55.5 -43.5 -90.5 -54.5s-72.167 -16.5 -111.5 -16.5c-42 0 -80.5 6 -115.5 18s-65.167 30.667 -90.5 56c-21.333 20.667 -38.166 47.167 -50.499 79.5s-18.5 73.5 -18.5 123.5v445z
M269 920.998l144 -120l-56 -56l-176 102z" />
    <glyph glyph-name="Uacute" unicode="&#xda;" horiz-adv-x="713" 
d="M80 709l124 -0.00195312v-435c0 -33.333 3 -60.666 9 -81.999s17 -40 33 -56c12.667 -12.667 28.167 -22.667 46.5 -30s40.166 -11 65.499 -11c24 0 45.167 3.5 63.5 10.5s33.833 16.5 46.5 28.5c14 14 24.833 31.333 32.5 52s11.5 47.334 11.5 80.001v443h121v-431
c0 -50 -6.5 -92.833 -19.5 -128.5s-31.833 -66.167 -56.5 -91.5c-25.333 -25.333 -55.5 -43.5 -90.5 -54.5s-72.167 -16.5 -111.5 -16.5c-42 0 -80.5 6 -115.5 18s-65.167 30.667 -90.5 56c-21.333 20.667 -38.166 47.167 -50.499 79.5s-18.5 73.5 -18.5 123.5v445z
M258 799.998l142 120l88 -74l-175 -103z" />
    <glyph glyph-name="Ucircumflex" unicode="&#xdb;" horiz-adv-x="713" 
d="M80 709l124 -0.00195312v-435c0 -33.333 3 -60.666 9 -81.999s17 -40 33 -56c12.667 -12.667 28.167 -22.667 46.5 -30s40.166 -11 65.499 -11c24 0 45.167 3.5 63.5 10.5s33.833 16.5 46.5 28.5c14 14 24.833 31.333 32.5 52s11.5 47.334 11.5 80.001v443h121v-431
c0 -50 -6.5 -92.833 -19.5 -128.5s-31.833 -66.167 -56.5 -91.5c-25.333 -25.333 -55.5 -43.5 -90.5 -54.5s-72.167 -16.5 -111.5 -16.5c-42 0 -80.5 6 -115.5 18s-65.167 30.667 -90.5 56c-21.333 20.667 -38.166 47.167 -50.499 79.5s-18.5 73.5 -18.5 123.5v445z
M189 813.998l172 91l172 -89l-43 -70l-129 61l-130 -61z" />
    <glyph glyph-name="Udieresis" unicode="&#xdc;" horiz-adv-x="713" 
d="M80 709l124 -0.00195312v-435c0 -33.333 3 -60.666 9 -81.999s17 -40 33 -56c12.667 -12.667 28.167 -22.667 46.5 -30s40.166 -11 65.499 -11c24 0 45.167 3.5 63.5 10.5s33.833 16.5 46.5 28.5c14 14 24.833 31.333 32.5 52s11.5 47.334 11.5 80.001v443h121v-431
c0 -50 -6.5 -92.833 -19.5 -128.5s-31.833 -66.167 -56.5 -91.5c-25.333 -25.333 -55.5 -43.5 -90.5 -54.5s-72.167 -16.5 -111.5 -16.5c-42 0 -80.5 6 -115.5 18s-65.167 30.667 -90.5 56c-21.333 20.667 -38.166 47.167 -50.499 79.5s-18.5 73.5 -18.5 123.5v445z
M458 756.998c-19.333 0 -35.833 6.83301 -49.5 20.5s-20.5 30.167 -20.5 49.5s6.83301 35.666 20.5 48.999s30.167 20 49.5 20s35.666 -6.66699 48.999 -20s20 -29.666 20 -48.999s-6.66699 -35.833 -20 -49.5s-29.666 -20.5 -48.999 -20.5zM257 756.998
c-19.333 0 -35.666 6.83301 -48.999 20.5s-20 30.167 -20 49.5s6.66699 35.666 20 48.999s29.666 20 48.999 20s35.833 -6.66699 49.5 -20s20.5 -29.666 20.5 -48.999s-6.83301 -35.833 -20.5 -49.5s-30.167 -20.5 -49.5 -20.5z" />
    <glyph glyph-name="Yacute" unicode="&#xdd;" horiz-adv-x="604" 
d="M239 317l-230 392h142l154 -288l154 288h137l-233 -388v-321h-124v317zM230 800l142 120l88 -74l-175 -103z" />
    <glyph glyph-name="Thorn" unicode="&#xde;" horiz-adv-x="544" 
d="M85 709l123.002 -0.00195312v-138h57c44 0 82.667 -4.5 116 -13.5s61.666 -25.167 84.999 -48.5c17.333 -17.333 30.666 -38.666 39.999 -63.999s14 -53.333 14 -84c0 -30 -5 -57.667 -15 -83s-24.333 -47.333 -43 -66c-23.333 -23.333 -51.833 -40.666 -85.5 -51.999
s-71.5 -17 -113.5 -17h-55v-143h-123v709zM264.002 248.998c44.667 0 78 10.999 100 32.999c9.33301 9.33301 16.333 20.5 21 33.5s7 26.5 7 40.5c0 15.333 -2 29.833 -6 43.5s-10.333 24.834 -19 33.501c-10.667 10.667 -23.5 18.667 -38.5 24s-35.167 8 -60.5 8h-60v-216
h56z" />
    <glyph glyph-name="germandbls" unicode="&#xdf;" horiz-adv-x="550" 
d="M63 555c0 27.333 3.66797 53 11.001 77s18.833 45 34.5 63s35.834 32.167 60.501 42.5s54.334 15.5 89.001 15.5c28.667 0 54.5 -4.16699 77.5 -12.5s42.167 -19.833 57.5 -34.5s27.166 -32 35.499 -52s12.5 -41.667 12.5 -65c0 -25.333 -3.83301 -46.166 -11.5 -62.499
s-16 -31.166 -25 -44.499s-17.167 -26.333 -24.5 -39s-11 -27.334 -11 -44.001c0 -11.333 3.66699 -21.5 11 -30.5s16.333 -18 27 -27s22.5 -18.333 35.5 -28s24.833 -21 35.5 -34s19.667 -28.167 27 -45.5s11 -37.666 11 -60.999c0 -28 -4.66699 -53 -14 -75
s-22 -40.833 -38 -56.5s-34.833 -27.5 -56.5 -35.5s-44.834 -12 -69.501 -12c-21.333 0 -41 2.5 -59 7.5s-34.333 12.167 -49 21.5l39 91c17.333 -15.333 38.666 -23 63.999 -23c16.667 0 31.834 6.16699 45.501 18.5s20.5 30.166 20.5 53.499c0 16 -3.66699 29.5 -11 40.5
s-16.333 21 -27 30s-22.334 18 -35.001 27s-24.334 19.167 -35.001 30.5s-19.667 24.666 -27 39.999s-11 34.333 -11 57c0 24 3.66699 44 11 60s15.5 30.667 24.5 44s17.333 26.833 25 40.5s11.5 30.167 11.5 49.5c0 20 -6.33301 37.5 -19 52.5s-30.667 22.5 -54 22.5
c-25.333 0 -44.166 -8.66699 -56.499 -26s-18.5 -39 -18.5 -65v-566h-114v555z" />
    <glyph glyph-name="agrave" unicode="&#xe0;" 
d="M401 54c-16.667 -20 -37.501 -36.001 -62.501 -48.001s-53.833 -18 -86.5 -18c-31.333 0 -60 5.66699 -86 17s-48.167 27 -66.5 47s-32.666 43.833 -42.999 71.5s-15.5 57.834 -15.5 90.501c0 34 5.33301 65.333 16 94s25.5 53.5 44.5 74.5s41.833 37.5 68.5 49.5
s56 18 88 18c30.667 0 58.5 -6.16699 83.5 -18.5s44.833 -28.833 59.5 -49.5v56h113v-438h-113v54zM282.999 80.999c18.667 0 35.665 3.50195 50.998 10.502s28.333 16.5 39 28.5s18.834 26.167 24.501 42.5s8.5 33.833 8.5 52.5c0 39.333 -11.667 71.666 -35 96.999
s-53.666 38 -90.999 38c-17.333 0 -33.333 -3.33301 -48 -10s-27.5 -15.834 -38.5 -27.501s-19.667 -25.667 -26 -42s-9.5 -33.833 -9.5 -52.5s3.16699 -36.334 9.5 -53.001s15 -31.167 26 -43.5s24.167 -22.166 39.5 -29.499s32 -11 50 -11zM224.997 705.001l135 -150
l-65 -46l-159 127z" />
    <glyph glyph-name="aacute" unicode="&#xe1;" 
d="M401 54c-16.667 -20 -37.501 -36.001 -62.501 -48.001s-53.833 -18 -86.5 -18c-31.333 0 -60 5.66699 -86 17s-48.167 27 -66.5 47s-32.666 43.833 -42.999 71.5s-15.5 57.834 -15.5 90.501c0 34 5.33301 65.333 16 94s25.5 53.5 44.5 74.5s41.833 37.5 68.5 49.5
s56 18 88 18c30.667 0 58.5 -6.16699 83.5 -18.5s44.833 -28.833 59.5 -49.5v56h113v-438h-113v54zM282.999 80.999c18.667 0 35.665 3.50195 50.998 10.502s28.333 16.5 39 28.5s18.834 26.167 24.501 42.5s8.5 33.833 8.5 52.5c0 39.333 -11.667 71.666 -35 96.999
s-53.666 38 -90.999 38c-17.333 0 -33.333 -3.33301 -48 -10s-27.5 -15.834 -38.5 -27.501s-19.667 -25.667 -26 -42s-9.5 -33.833 -9.5 -52.5s3.16699 -36.334 9.5 -53.001s15 -31.167 26 -43.5s24.167 -22.166 39.5 -29.499s32 -11 50 -11zM361.997 705.001l90 -68
l-159 -128l-65 47z" />
    <glyph glyph-name="acircumflex" unicode="&#xe2;" 
d="M401 54c-16.667 -20 -37.501 -36.001 -62.501 -48.001s-53.833 -18 -86.5 -18c-31.333 0 -60 5.66699 -86 17s-48.167 27 -66.5 47s-32.666 43.833 -42.999 71.5s-15.5 57.834 -15.5 90.501c0 34 5.33301 65.333 16 94s25.5 53.5 44.5 74.5s41.833 37.5 68.5 49.5
s56 18 88 18c30.667 0 58.5 -6.16699 83.5 -18.5s44.833 -28.833 59.5 -49.5v56h113v-438h-113v54zM282.999 80.999c18.667 0 35.665 3.50195 50.998 10.502s28.333 16.5 39 28.5s18.834 26.167 24.501 42.5s8.5 33.833 8.5 52.5c0 39.333 -11.667 71.666 -35 96.999
s-53.666 38 -90.999 38c-17.333 0 -33.333 -3.33301 -48 -10s-27.5 -15.834 -38.5 -27.501s-19.667 -25.667 -26 -42s-9.5 -33.833 -9.5 -52.5s3.16699 -36.334 9.5 -53.001s15 -31.167 26 -43.5s24.167 -22.166 39.5 -29.499s32 -11 50 -11zM127.997 576.001l169 135
l159 -132l-54 -65l-109 85l-109 -86z" />
    <glyph glyph-name="atilde" unicode="&#xe3;" 
d="M401 54c-16.667 -20 -37.501 -36.001 -62.501 -48.001s-53.833 -18 -86.5 -18c-31.333 0 -60 5.66699 -86 17s-48.167 27 -66.5 47s-32.666 43.833 -42.999 71.5s-15.5 57.834 -15.5 90.501c0 34 5.33301 65.333 16 94s25.5 53.5 44.5 74.5s41.833 37.5 68.5 49.5
s56 18 88 18c30.667 0 58.5 -6.16699 83.5 -18.5s44.833 -28.833 59.5 -49.5v56h113v-438h-113v54zM282.999 80.999c18.667 0 35.665 3.50195 50.998 10.502s28.333 16.5 39 28.5s18.834 26.167 24.501 42.5s8.5 33.833 8.5 52.5c0 39.333 -11.667 71.666 -35 96.999
s-53.666 38 -90.999 38c-17.333 0 -33.333 -3.33301 -48 -10s-27.5 -15.834 -38.5 -27.501s-19.667 -25.667 -26 -42s-9.5 -33.833 -9.5 -52.5s3.16699 -36.334 9.5 -53.001s15 -31.167 26 -43.5s24.167 -22.166 39.5 -29.499s32 -11 50 -11zM96.9971 538.001
c0 38 10.332 69.5 30.999 94.5s49 37.5 85 37.5c16.667 0 31.5 -2.66699 44.5 -8s25.333 -11.333 37 -18s23.167 -12.667 34.5 -18s23 -8 35 -8c12.667 0 22.667 4.16699 30 12.5s11 19.833 11 34.5h84c0 -40 -11 -72.167 -33 -96.5s-51 -36.5 -87 -36.5
c-16 0 -30.833 2.83301 -44.5 8.5s-26.667 11.667 -39 18l-35 18c-11 5.66699 -21.833 8.5 -32.5 8.5c-11.333 0 -20.666 -4.5 -27.999 -13.5s-11 -20.167 -11 -33.5h-82v0z" />
    <glyph glyph-name="adieresis" unicode="&#xe4;" 
d="M401 54c-16.667 -20 -37.501 -36.001 -62.501 -48.001s-53.833 -18 -86.5 -18c-31.333 0 -60 5.66699 -86 17s-48.167 27 -66.5 47s-32.666 43.833 -42.999 71.5s-15.5 57.834 -15.5 90.501c0 34 5.33301 65.333 16 94s25.5 53.5 44.5 74.5s41.833 37.5 68.5 49.5
s56 18 88 18c30.667 0 58.5 -6.16699 83.5 -18.5s44.833 -28.833 59.5 -49.5v56h113v-438h-113v54zM282.999 80.999c18.667 0 35.665 3.50195 50.998 10.502s28.333 16.5 39 28.5s18.834 26.167 24.501 42.5s8.5 33.833 8.5 52.5c0 39.333 -11.667 71.666 -35 96.999
s-53.666 38 -90.999 38c-17.333 0 -33.333 -3.33301 -48 -10s-27.5 -15.834 -38.5 -27.501s-19.667 -25.667 -26 -42s-9.5 -33.833 -9.5 -52.5s3.16699 -36.334 9.5 -53.001s15 -31.167 26 -43.5s24.167 -22.166 39.5 -29.499s32 -11 50 -11zM398.997 541.001
c-19.333 0 -35.833 6.83301 -49.5 20.5s-20.5 30.167 -20.5 49.5s6.83301 35.666 20.5 48.999s30.167 20 49.5 20s35.666 -6.66699 48.999 -20s20 -29.666 20 -48.999s-6.66699 -35.833 -20 -49.5s-29.666 -20.5 -48.999 -20.5zM197.997 541.001
c-19.333 0 -35.666 6.83301 -48.999 20.5s-20 30.167 -20 49.5s6.66699 35.666 20 48.999s29.666 20 48.999 20s35.833 -6.66699 49.5 -20s20.5 -29.666 20.5 -48.999s-6.83301 -35.833 -20.5 -49.5s-30.167 -20.5 -49.5 -20.5z" />
    <glyph glyph-name="aring" unicode="&#xe5;" 
d="M401 54c-16.667 -20 -37.501 -36.001 -62.501 -48.001s-53.833 -18 -86.5 -18c-31.333 0 -60 5.66699 -86 17s-48.167 27 -66.5 47s-32.666 43.833 -42.999 71.5s-15.5 57.834 -15.5 90.501c0 34 5.33301 65.333 16 94s25.5 53.5 44.5 74.5s41.833 37.5 68.5 49.5
s56 18 88 18c30.667 0 58.5 -6.16699 83.5 -18.5s44.833 -28.833 59.5 -49.5v56h113v-438h-113v54zM282.999 80.999c18.667 0 35.665 3.50195 50.998 10.502s28.333 16.5 39 28.5s18.834 26.167 24.501 42.5s8.5 33.833 8.5 52.5c0 39.333 -11.667 71.666 -35 96.999
s-53.666 38 -90.999 38c-17.333 0 -33.333 -3.33301 -48 -10s-27.5 -15.834 -38.5 -27.501s-19.667 -25.667 -26 -42s-9.5 -33.833 -9.5 -52.5s3.16699 -36.334 9.5 -53.001s15 -31.167 26 -43.5s24.167 -22.166 39.5 -29.499s32 -11 50 -11zM297.997 507.001
c-15.333 0 -29.665 2.66699 -42.998 8s-25 12.833 -35 22.5s-17.833 21 -23.5 34s-8.5 27.167 -8.5 42.5s2.83301 29.5 8.5 42.5s13.5 24.333 23.5 34s21.667 17.334 35 23.001s27.666 8.5 42.999 8.5s29.666 -2.83301 42.999 -8.5s25 -13.334 35 -23.001
s17.833 -21 23.5 -34s8.5 -27.167 8.5 -42.5s-3 -29.5 -9 -42.5s-14 -24.167 -24 -33.5s-21.667 -16.833 -35 -22.5s-27.333 -8.5 -42 -8.5zM297.998 567.001c13.333 0 24.5 4.5 33.5 13.5s13.5 20.167 13.5 33.5s-4.5 24.666 -13.5 33.999s-20.167 14 -33.5 14
s-24.5 -4.66699 -33.5 -14s-13.5 -20.666 -13.5 -33.999s4.5 -24.5 13.5 -33.5s20.167 -13.5 33.5 -13.5z" />
    <glyph glyph-name="ae" unicode="&#xe6;" horiz-adv-x="811" 
d="M49 371c21.333 22 47.666 40.8291 78.999 56.4961s68.333 23.5 111 23.5c35.333 0 66.333 -6.33301 93 -19s48.667 -28.667 66 -48c19.333 21.333 42.166 37.833 68.499 49.5s55.5 17.5 87.5 17.5s61.333 -5.16699 88 -15.5s49.5 -25.166 68.5 -44.499
s33.833 -43 44.5 -71s16 -59.333 16 -94c0 -5.33301 -0.166992 -11.166 -0.5 -17.499s-0.5 -13.166 -0.5 -20.499h-325c2 -32 14.167 -58.667 36.5 -80s50.833 -32 85.5 -32c24.667 0 47 5.33301 67 16s37.667 25.667 53 45l75 -53c-25.333 -32 -54.5 -56.167 -87.5 -72.5
s-72.833 -24.5 -119.5 -24.5c-33.333 0 -64.5 6.66699 -93.5 20s-53.5 31.666 -73.5 54.999c-17.333 -21.333 -40 -39.166 -68 -53.499s-59.333 -21.5 -94 -21.5c-32 0 -60 3.66699 -84 11s-43.667 17.5 -59 30.5s-26.833 28.167 -34.5 45.5s-11.5 36 -11.5 56
c0 18.667 3.33301 36.167 10 52.5s17.667 30.666 33 42.999s35 22 59 29s53.667 10.5 89 10.5h117c-1.33301 12.667 -4.66602 24.834 -9.99902 36.501s-12.666 22.167 -21.999 31.5s-21 16.833 -35 22.5s-30 8.5 -48 8.5c-22.667 0 -43.167 -4.66699 -61.5 -14
s-33.833 -21.666 -46.5 -36.999zM656 265.996c0 12.667 -2.50098 25.166 -7.50098 37.499s-12 23 -21 32s-19.833 16.333 -32.5 22s-27 8.5 -43 8.5c-15.333 0 -29.166 -2.66699 -41.499 -8s-23 -12.666 -32 -21.999s-16.333 -20 -22 -32s-9.16699 -24.667 -10.5 -38h210z
M226.999 186.995c-28 0 -48.5 -5 -61.5 -15s-19.5 -23.333 -19.5 -40c0 -16 7.33301 -29.667 22 -41s35 -17 61 -17c32.667 0 60.167 10.333 82.5 31s33.5 48 33.5 82h-118z" />
    <glyph glyph-name="ccedilla" unicode="&#xe7;" horiz-adv-x="441" 
d="M398 13c-15.333 -6.66699 -34.1699 -12.4971 -56.5029 -17.4971s-45.5 -7.5 -69.5 -7.5c-38 0 -71.333 6.33301 -100 19s-52.667 29.667 -72 51s-34 45.666 -44 72.999s-15 55.666 -15 84.999c0 30 5.5 59.167 16.5 87.5s26.667 53.166 47 74.499s45.333 38.5 75 51.5
s63.167 19.5 100.5 19.5c20.667 0 41.5 -2 62.5 -6s39.5 -9.66699 55.5 -17v-107c-13.333 8 -29.666 14.833 -48.999 20.5s-38.666 8.5 -57.999 8.5c-18.667 0 -36 -3.16699 -52 -9.5s-29.667 -15.166 -41 -26.499s-20.333 -24.833 -27 -40.5s-10 -32.834 -10 -51.501
c0 -18 3 -34.833 9 -50.5s14.667 -29.5 26 -41.5s25 -21.5 41 -28.5s34 -10.5 54 -10.5c19.333 0 38.333 2.66699 57 8s35.334 13.333 50.001 24v-108v0zM229.996 -34.9971l88 -52l-122 -135l-67 53z" />
    <glyph glyph-name="egrave" unicode="&#xe8;" horiz-adv-x="520" 
d="M471 85c-25.333 -32.667 -54.665 -57.1699 -87.998 -73.5029s-73 -24.5 -119 -24.5c-30.667 0 -59.5 5.16699 -86.5 15.5s-50.667 25.166 -71 44.499s-36.333 43.333 -48 72s-17.5 61.334 -17.5 98.001c0 34.667 5.66699 66.334 17 95.001s27 53.334 47 74.001
s43.5 36.667 70.5 48s56.167 17 87.5 17c32 0 61.167 -5.16699 87.5 -15.5s49.166 -25.166 68.499 -44.499s34.333 -43 45 -71s16 -59.333 16 -94c0 -6 -0.166992 -12 -0.5 -18s-0.5 -12.333 -0.5 -19h-325c0.666992 -16 4.16699 -30.833 10.5 -44.5
s14.833 -25.667 25.5 -36s23.167 -18.333 37.5 -24s30.166 -8.5 47.499 -8.5c25.333 0 48 5.5 68 16.5s37.667 26.167 53 45.5zM364.001 264.997c0 13.333 -2.33105 26 -6.99805 38s-11.5 22.667 -20.5 32s-19.833 16.833 -32.5 22.5s-27 8.5 -43 8.5
c-30.667 0 -55.334 -10 -74.001 -30s-29.334 -43.667 -32.001 -71h209zM204.003 704.997l135 -150l-65 -46l-159 127z" />
    <glyph glyph-name="eacute" unicode="&#xe9;" horiz-adv-x="520" 
d="M471 85c-25.333 -32.667 -54.665 -57.1699 -87.998 -73.5029s-73 -24.5 -119 -24.5c-30.667 0 -59.5 5.16699 -86.5 15.5s-50.667 25.166 -71 44.499s-36.333 43.333 -48 72s-17.5 61.334 -17.5 98.001c0 34.667 5.66699 66.334 17 95.001s27 53.334 47 74.001
s43.5 36.667 70.5 48s56.167 17 87.5 17c32 0 61.167 -5.16699 87.5 -15.5s49.166 -25.166 68.499 -44.499s34.333 -43 45 -71s16 -59.333 16 -94c0 -6 -0.166992 -12 -0.5 -18s-0.5 -12.333 -0.5 -19h-325c0.666992 -16 4.16699 -30.833 10.5 -44.5
s14.833 -25.667 25.5 -36s23.167 -18.333 37.5 -24s30.166 -8.5 47.499 -8.5c25.333 0 48 5.5 68 16.5s37.667 26.167 53 45.5zM364.001 264.997c0 13.333 -2.33105 26 -6.99805 38s-11.5 22.667 -20.5 32s-19.833 16.833 -32.5 22.5s-27 8.5 -43 8.5
c-30.667 0 -55.334 -10 -74.001 -30s-29.334 -43.667 -32.001 -71h209zM320.003 704.997l90 -68l-159 -128l-65 47z" />
    <glyph glyph-name="ecircumflex" unicode="&#xea;" horiz-adv-x="520" 
d="M471 85c-25.333 -32.667 -54.665 -57.1699 -87.998 -73.5029s-73 -24.5 -119 -24.5c-30.667 0 -59.5 5.16699 -86.5 15.5s-50.667 25.166 -71 44.499s-36.333 43.333 -48 72s-17.5 61.334 -17.5 98.001c0 34.667 5.66699 66.334 17 95.001s27 53.334 47 74.001
s43.5 36.667 70.5 48s56.167 17 87.5 17c32 0 61.167 -5.16699 87.5 -15.5s49.166 -25.166 68.499 -44.499s34.333 -43 45 -71s16 -59.333 16 -94c0 -6 -0.166992 -12 -0.5 -18s-0.5 -12.333 -0.5 -19h-325c0.666992 -16 4.16699 -30.833 10.5 -44.5
s14.833 -25.667 25.5 -36s23.167 -18.333 37.5 -24s30.166 -8.5 47.499 -8.5c25.333 0 48 5.5 68 16.5s37.667 26.167 53 45.5zM364.001 264.997c0 13.333 -2.33105 26 -6.99805 38s-11.5 22.667 -20.5 32s-19.833 16.833 -32.5 22.5s-27 8.5 -43 8.5
c-30.667 0 -55.334 -10 -74.001 -30s-29.334 -43.667 -32.001 -71h209zM97.0029 575.997l169 135l159 -132l-54 -65l-109 85l-109 -86z" />
    <glyph glyph-name="edieresis" unicode="&#xeb;" horiz-adv-x="520" 
d="M471 85c-25.333 -32.667 -54.665 -57.1699 -87.998 -73.5029s-73 -24.5 -119 -24.5c-30.667 0 -59.5 5.16699 -86.5 15.5s-50.667 25.166 -71 44.499s-36.333 43.333 -48 72s-17.5 61.334 -17.5 98.001c0 34.667 5.66699 66.334 17 95.001s27 53.334 47 74.001
s43.5 36.667 70.5 48s56.167 17 87.5 17c32 0 61.167 -5.16699 87.5 -15.5s49.166 -25.166 68.499 -44.499s34.333 -43 45 -71s16 -59.333 16 -94c0 -6 -0.166992 -12 -0.5 -18s-0.5 -12.333 -0.5 -19h-325c0.666992 -16 4.16699 -30.833 10.5 -44.5
s14.833 -25.667 25.5 -36s23.167 -18.333 37.5 -24s30.166 -8.5 47.499 -8.5c25.333 0 48 5.5 68 16.5s37.667 26.167 53 45.5zM364.001 264.997c0 13.333 -2.33105 26 -6.99805 38s-11.5 22.667 -20.5 32s-19.833 16.833 -32.5 22.5s-27 8.5 -43 8.5
c-30.667 0 -55.334 -10 -74.001 -30s-29.334 -43.667 -32.001 -71h209zM363.003 540.997c-19.333 0 -35.833 6.83301 -49.5 20.5s-20.5 30.167 -20.5 49.5s6.83301 35.666 20.5 48.999s30.167 20 49.5 20s35.666 -6.66699 48.999 -20s20 -29.666 20 -48.999
s-6.66699 -35.833 -20 -49.5s-29.666 -20.5 -48.999 -20.5zM162.003 540.997c-19.333 0 -35.666 6.83301 -48.999 20.5s-20 30.167 -20 49.5s6.66699 35.666 20 48.999s29.666 20 48.999 20s35.833 -6.66699 49.5 -20s20.5 -29.666 20.5 -48.999
s-6.83301 -35.833 -20.5 -49.5s-30.167 -20.5 -49.5 -20.5z" />
    <glyph glyph-name="igrave" unicode="&#xec;" horiz-adv-x="248" 
d="M67 438h114v-438h-114v438zM77 705l135 -150l-65 -46l-159 127z" />
    <glyph glyph-name="iacute" unicode="&#xed;" horiz-adv-x="248" 
d="M67 438h114v-438h-114v438zM179 705l90 -68l-159 -128l-65 47z" />
    <glyph glyph-name="icircumflex" unicode="&#xee;" horiz-adv-x="248" 
d="M67 438h114v-438h-114v438zM-41 576l169 135l159 -132l-54 -65l-109 85l-109 -86z" />
    <glyph glyph-name="idieresis" unicode="&#xef;" horiz-adv-x="248" 
d="M67 438h114v-438h-114v438zM227 541c-19.333 0 -35.833 6.83301 -49.5 20.5s-20.5 30.167 -20.5 49.5s6.83301 35.666 20.5 48.999s30.167 20 49.5 20s35.666 -6.66699 48.999 -20s20 -29.666 20 -48.999s-6.66699 -35.833 -20 -49.5s-29.666 -20.5 -48.999 -20.5z
M26 541c-19.333 0 -35.666 6.83301 -48.999 20.5s-20 30.167 -20 49.5s6.66699 35.666 20 48.999s29.666 20 48.999 20s35.833 -6.66699 49.5 -20s20.5 -29.666 20.5 -48.999s-6.83301 -35.833 -20.5 -49.5s-30.167 -20.5 -49.5 -20.5z" />
    <glyph glyph-name="eth" unicode="&#xf0;" horiz-adv-x="574" 
d="M153 578l68.001 42.0039c-17.333 9.33301 -36 17.333 -56 24s-41.667 12 -65 16l15 98c77.333 -13.333 147 -39 209 -77l94 58l47 -79l-64 -38c42.667 -42 75.167 -91.333 97.5 -148s33.5 -119.334 33.5 -188.001c0 -44.667 -6.33301 -85.334 -19 -122.001
s-30.5 -68 -53.5 -94s-50.5 -46 -82.5 -60s-67.667 -21 -107 -21c-34 0 -65.333 5.5 -94 16.5s-53.5 26.667 -74.5 47s-37.333 44.5 -49 72.5s-17.5 59 -17.5 93c0 31.333 5.5 61 16.5 89s26.167 52.5 45.5 73.5s42.666 37.667 69.999 50s57 18.5 89 18.5s60 -5 84 -15
s44 -24.333 60 -43c-6.66699 33.333 -18.167 65.166 -34.5 95.499s-36.833 56.166 -61.5 77.499l-105 -64zM278.001 89.0039c36 0 65.334 12.333 88.001 37s34 56.334 34 95.001c0 39.333 -11.5 70.833 -34.5 94.5s-52.5 35.5 -88.5 35.5c-17.333 0 -33.5 -3.5 -48.5 -10.5
s-28 -16.333 -39 -28s-19.667 -25.334 -26 -41.001s-9.5 -32.5 -9.5 -50.5c0 -18.667 3.16699 -36 9.5 -52s15.166 -30 26.499 -42s24.5 -21.333 39.5 -28s31.167 -10 48.5 -10z" />
    <glyph glyph-name="ntilde" unicode="&#xf1;" horiz-adv-x="538" 
d="M66 438l111.999 0.000976562v-58c12 16 29.167 31.167 51.5 45.5s51.833 21.5 88.5 21.5c27.333 0 50.333 -4 69 -12s34.334 -18 47.001 -30c14.667 -14.667 25.167 -32.334 31.5 -53.001s9.5 -46 9.5 -76v-276h-114v252c0 28.667 -6 52.167 -18 70.5
s-32.667 27.5 -62 27.5c-11.333 0 -23 -2.16699 -35 -6.5s-23 -11 -33 -20s-18.167 -20.333 -24.5 -34s-9.5 -30.167 -9.5 -49.5v-240h-113v438zM71.999 538.001c0 38 10.332 69.5 30.999 94.5s49 37.5 85 37.5c16.667 0 31.5 -2.66699 44.5 -8s25.333 -11.333 37 -18
s23.167 -12.667 34.5 -18s23 -8 35 -8c12.667 0 22.667 4.16699 30 12.5s11 19.833 11 34.5h84c0 -40 -11 -72.167 -33 -96.5s-51 -36.5 -87 -36.5c-16 0 -30.833 2.83301 -44.5 8.5s-26.667 11.667 -39 18l-35 18c-11 5.66699 -21.833 8.5 -32.5 8.5
c-11.333 0 -20.666 -4.5 -27.999 -13.5s-11 -20.167 -11 -33.5h-82v0z" />
    <glyph glyph-name="ograve" unicode="&#xf2;" horiz-adv-x="561" 
d="M276 -13c-33.333 0 -64.3311 5.66602 -92.998 16.999s-53.5 27.333 -74.5 48s-37.5 45.167 -49.5 73.5s-18 59.166 -18 92.499c0 32 6 62 18 90s28.667 52.5 50 73.5s46.666 37.667 75.999 50s61.333 18.5 96 18.5c34 0 65.667 -5.83301 95 -17.5
s54.666 -27.667 75.999 -48s38 -44.666 50 -72.999s18 -59.166 18 -92.499c0 -30.667 -5.83301 -60 -17.5 -88s-28.167 -52.667 -49.5 -74s-47 -38.333 -77 -51s-63.333 -19 -100 -19zM281.002 87.999c18 0 34.4971 3.50098 49.4971 10.501s28 16.5 39 28.5
s19.5 25.833 25.5 41.5s9 32.167 9 49.5c0 18.667 -3.16699 36 -9.5 52s-15.166 29.833 -26.499 41.5s-24.666 20.834 -39.999 27.501s-31.666 10 -48.999 10c-18 0 -34.5 -3.5 -49.5 -10.5s-28 -16.333 -39 -28s-19.5 -25.334 -25.5 -41.001s-9 -32.5 -9 -50.5
c0 -18.667 3.33301 -36 10 -52s15.667 -29.833 27 -41.5s24.5 -20.834 39.5 -27.501s31.167 -10 48.5 -10zM223.999 705l135 -150l-65 -46l-159 127z" />
    <glyph glyph-name="oacute" unicode="&#xf3;" horiz-adv-x="561" 
d="M276 -13c-33.333 0 -64.3311 5.66602 -92.998 16.999s-53.5 27.333 -74.5 48s-37.5 45.167 -49.5 73.5s-18 59.166 -18 92.499c0 32 6 62 18 90s28.667 52.5 50 73.5s46.666 37.667 75.999 50s61.333 18.5 96 18.5c34 0 65.667 -5.83301 95 -17.5
s54.666 -27.667 75.999 -48s38 -44.666 50 -72.999s18 -59.166 18 -92.499c0 -30.667 -5.83301 -60 -17.5 -88s-28.167 -52.667 -49.5 -74s-47 -38.333 -77 -51s-63.333 -19 -100 -19zM281.002 87.999c18 0 34.4971 3.50098 49.4971 10.501s28 16.5 39 28.5
s19.5 25.833 25.5 41.5s9 32.167 9 49.5c0 18.667 -3.16699 36 -9.5 52s-15.166 29.833 -26.499 41.5s-24.666 20.834 -39.999 27.501s-31.666 10 -48.999 10c-18 0 -34.5 -3.5 -49.5 -10.5s-28 -16.333 -39 -28s-19.5 -25.334 -25.5 -41.001s-9 -32.5 -9 -50.5
c0 -18.667 3.33301 -36 10 -52s15.667 -29.833 27 -41.5s24.5 -20.834 39.5 -27.501s31.167 -10 48.5 -10zM342.999 705l90 -68l-159 -128l-65 47z" />
    <glyph glyph-name="ocircumflex" unicode="&#xf4;" horiz-adv-x="561" 
d="M276 -13c-33.333 0 -64.3311 5.66602 -92.998 16.999s-53.5 27.333 -74.5 48s-37.5 45.167 -49.5 73.5s-18 59.166 -18 92.499c0 32 6 62 18 90s28.667 52.5 50 73.5s46.666 37.667 75.999 50s61.333 18.5 96 18.5c34 0 65.667 -5.83301 95 -17.5
s54.666 -27.667 75.999 -48s38 -44.666 50 -72.999s18 -59.166 18 -92.499c0 -30.667 -5.83301 -60 -17.5 -88s-28.167 -52.667 -49.5 -74s-47 -38.333 -77 -51s-63.333 -19 -100 -19zM281.002 87.999c18 0 34.4971 3.50098 49.4971 10.501s28 16.5 39 28.5
s19.5 25.833 25.5 41.5s9 32.167 9 49.5c0 18.667 -3.16699 36 -9.5 52s-15.166 29.833 -26.499 41.5s-24.666 20.834 -39.999 27.501s-31.666 10 -48.999 10c-18 0 -34.5 -3.5 -49.5 -10.5s-28 -16.333 -39 -28s-19.5 -25.334 -25.5 -41.001s-9 -32.5 -9 -50.5
c0 -18.667 3.33301 -36 10 -52s15.667 -29.833 27 -41.5s24.5 -20.834 39.5 -27.501s31.167 -10 48.5 -10zM113.999 576l169 135l159 -132l-54 -65l-109 85l-109 -86z" />
    <glyph glyph-name="otilde" unicode="&#xf5;" horiz-adv-x="561" 
d="M276 -13c-33.333 0 -64.3311 5.66602 -92.998 16.999s-53.5 27.333 -74.5 48s-37.5 45.167 -49.5 73.5s-18 59.166 -18 92.499c0 32 6 62 18 90s28.667 52.5 50 73.5s46.666 37.667 75.999 50s61.333 18.5 96 18.5c34 0 65.667 -5.83301 95 -17.5
s54.666 -27.667 75.999 -48s38 -44.666 50 -72.999s18 -59.166 18 -92.499c0 -30.667 -5.83301 -60 -17.5 -88s-28.167 -52.667 -49.5 -74s-47 -38.333 -77 -51s-63.333 -19 -100 -19zM281.002 87.999c18 0 34.4971 3.50098 49.4971 10.501s28 16.5 39 28.5
s19.5 25.833 25.5 41.5s9 32.167 9 49.5c0 18.667 -3.16699 36 -9.5 52s-15.166 29.833 -26.499 41.5s-24.666 20.834 -39.999 27.501s-31.666 10 -48.999 10c-18 0 -34.5 -3.5 -49.5 -10.5s-28 -16.333 -39 -28s-19.5 -25.334 -25.5 -41.001s-9 -32.5 -9 -50.5
c0 -18.667 3.33301 -36 10 -52s15.667 -29.833 27 -41.5s24.5 -20.834 39.5 -27.501s31.167 -10 48.5 -10zM81.999 538c0 38 10.332 69.5 30.999 94.5s49 37.5 85 37.5c16.667 0 31.5 -2.66699 44.5 -8s25.333 -11.333 37 -18s23.167 -12.667 34.5 -18s23 -8 35 -8
c12.667 0 22.667 4.16699 30 12.5s11 19.833 11 34.5h84c0 -40 -11 -72.167 -33 -96.5s-51 -36.5 -87 -36.5c-16 0 -30.833 2.83301 -44.5 8.5s-26.667 11.667 -39 18l-35 18c-11 5.66699 -21.833 8.5 -32.5 8.5c-11.333 0 -20.666 -4.5 -27.999 -13.5
s-11 -20.167 -11 -33.5h-82v0z" />
    <glyph glyph-name="odieresis" unicode="&#xf6;" horiz-adv-x="561" 
d="M276 -13c-33.333 0 -64.3311 5.66602 -92.998 16.999s-53.5 27.333 -74.5 48s-37.5 45.167 -49.5 73.5s-18 59.166 -18 92.499c0 32 6 62 18 90s28.667 52.5 50 73.5s46.666 37.667 75.999 50s61.333 18.5 96 18.5c34 0 65.667 -5.83301 95 -17.5
s54.666 -27.667 75.999 -48s38 -44.666 50 -72.999s18 -59.166 18 -92.499c0 -30.667 -5.83301 -60 -17.5 -88s-28.167 -52.667 -49.5 -74s-47 -38.333 -77 -51s-63.333 -19 -100 -19zM281.002 87.999c18 0 34.4971 3.50098 49.4971 10.501s28 16.5 39 28.5
s19.5 25.833 25.5 41.5s9 32.167 9 49.5c0 18.667 -3.16699 36 -9.5 52s-15.166 29.833 -26.499 41.5s-24.666 20.834 -39.999 27.501s-31.666 10 -48.999 10c-18 0 -34.5 -3.5 -49.5 -10.5s-28 -16.333 -39 -28s-19.5 -25.334 -25.5 -41.001s-9 -32.5 -9 -50.5
c0 -18.667 3.33301 -36 10 -52s15.667 -29.833 27 -41.5s24.5 -20.834 39.5 -27.501s31.167 -10 48.5 -10zM378.999 541c-19.333 0 -35.833 6.83301 -49.5 20.5s-20.5 30.167 -20.5 49.5s6.83301 35.666 20.5 48.999s30.167 20 49.5 20s35.666 -6.66699 48.999 -20
s20 -29.666 20 -48.999s-6.66699 -35.833 -20 -49.5s-29.666 -20.5 -48.999 -20.5zM177.999 541c-19.333 0 -35.666 6.83301 -48.999 20.5s-20 30.167 -20 49.5s6.66699 35.666 20 48.999s29.666 20 48.999 20s35.833 -6.66699 49.5 -20s20.5 -29.666 20.5 -48.999
s-6.83301 -35.833 -20.5 -49.5s-30.167 -20.5 -49.5 -20.5z" />
    <glyph glyph-name="divide" unicode="&#xf7;" horiz-adv-x="675" 
d="M337 424c-20 0 -37.167 7.16699 -51.5 21.5s-21.5 31.833 -21.5 52.5c0 20 7.16699 37.333 21.5 52s31.5 22 51.5 22c20.667 0 38.167 -7.33301 52.5 -22s21.5 -32 21.5 -52c0 -20.667 -7.16699 -38.167 -21.5 -52.5s-31.833 -21.5 -52.5 -21.5zM47 340h581v-105h-581
v105zM337 3c-20 0 -37.167 7.16699 -51.5 21.5s-21.5 31.833 -21.5 52.5c0 20 7.16699 37.333 21.5 52s31.5 22 51.5 22c20.667 0 38.167 -7.33301 52.5 -22s21.5 -32 21.5 -52c0 -20.667 -7.16699 -38.167 -21.5 -52.5s-31.833 -21.5 -52.5 -21.5z" />
    <glyph glyph-name="oslash" unicode="&#xf8;" horiz-adv-x="563" 
d="M41 19l52.001 52.9971c-16 19.333 -28.5 41.333 -37.5 66s-13.5 51.334 -13.5 80.001c0 32 6 62 18 90s28.833 52.5 50.5 73.5s47.167 37.667 76.5 50s61.333 18.5 96 18.5c27.333 0 53 -3.66699 77 -11s45.667 -17.666 65 -30.999l54 55l44 -47l-51 -52
c15.333 -19.333 27.333 -41.166 36 -65.499s13 -50.833 13 -79.5c0 -30.667 -5.83301 -60 -17.5 -88s-28.167 -52.667 -49.5 -74s-47 -38.333 -77 -51s-63.333 -19 -100 -19c-52.667 0 -98.334 13.667 -137.001 41l-55 -56zM350.001 333.997
c-20 14 -43.3311 20.9971 -69.998 20.9971c-18.667 0 -35.834 -3.66699 -51.501 -11s-29 -17.166 -40 -29.499s-19.667 -26.666 -26 -42.999s-9.5 -33.833 -9.5 -52.5c0 -13.333 1.66699 -25.666 5 -36.999s7.66602 -22 12.999 -32zM215.003 102.994
c20 -14 42.6689 -20.999 68.002 -20.999c18.667 0 35.667 3.66699 51 11s28.666 17.166 39.999 29.499s20.166 26.666 26.499 42.999s9.5 33.833 9.5 52.5c0 24.667 -5.66699 47.334 -17 68.001z" />
    <glyph glyph-name="ugrave" unicode="&#xf9;" horiz-adv-x="540" 
d="M63 438l113.999 -0.00195312v-229c0 -17.333 1.16699 -33.5 3.5 -48.5s7 -28 14 -39s16.667 -19.833 29 -26.5s28.5 -10 48.5 -10s35.833 3.5 47.5 10.5s20.834 16.333 27.501 28s11 24.667 13 39s3 28.833 3 43.5v232h114v-229c0 -36 -3.5 -68 -10.5 -96
s-20.5 -52 -40.5 -72c-19.333 -19.333 -42.333 -33.166 -69 -41.499s-56 -12.5 -88 -12.5c-66.667 0 -119 19 -157 57c-17.333 17.333 -29.833 38.833 -37.5 64.5s-11.5 56.834 -11.5 93.501v236zM210.999 704.998l135 -150l-65 -46l-159 127z" />
    <glyph glyph-name="uacute" unicode="&#xfa;" horiz-adv-x="540" 
d="M63 438l113.999 -0.00195312v-229c0 -17.333 1.16699 -33.5 3.5 -48.5s7 -28 14 -39s16.667 -19.833 29 -26.5s28.5 -10 48.5 -10s35.833 3.5 47.5 10.5s20.834 16.333 27.501 28s11 24.667 13 39s3 28.833 3 43.5v232h114v-229c0 -36 -3.5 -68 -10.5 -96
s-20.5 -52 -40.5 -72c-19.333 -19.333 -42.333 -33.166 -69 -41.499s-56 -12.5 -88 -12.5c-66.667 0 -119 19 -157 57c-17.333 17.333 -29.833 38.833 -37.5 64.5s-11.5 56.834 -11.5 93.501v236zM338.999 704.998l90 -68l-159 -128l-65 47z" />
    <glyph glyph-name="ucircumflex" unicode="&#xfb;" horiz-adv-x="540" 
d="M63 438l113.999 -0.00195312v-229c0 -17.333 1.16699 -33.5 3.5 -48.5s7 -28 14 -39s16.667 -19.833 29 -26.5s28.5 -10 48.5 -10s35.833 3.5 47.5 10.5s20.834 16.333 27.501 28s11 24.667 13 39s3 28.833 3 43.5v232h114v-229c0 -36 -3.5 -68 -10.5 -96
s-20.5 -52 -40.5 -72c-19.333 -19.333 -42.333 -33.166 -69 -41.499s-56 -12.5 -88 -12.5c-66.667 0 -119 19 -157 57c-17.333 17.333 -29.833 38.833 -37.5 64.5s-11.5 56.834 -11.5 93.501v236zM103.999 575.998l169 135l159 -132l-54 -65l-109 85l-109 -86z" />
    <glyph glyph-name="udieresis" unicode="&#xfc;" horiz-adv-x="540" 
d="M63 438l113.999 -0.00195312v-229c0 -17.333 1.16699 -33.5 3.5 -48.5s7 -28 14 -39s16.667 -19.833 29 -26.5s28.5 -10 48.5 -10s35.833 3.5 47.5 10.5s20.834 16.333 27.501 28s11 24.667 13 39s3 28.833 3 43.5v232h114v-229c0 -36 -3.5 -68 -10.5 -96
s-20.5 -52 -40.5 -72c-19.333 -19.333 -42.333 -33.166 -69 -41.499s-56 -12.5 -88 -12.5c-66.667 0 -119 19 -157 57c-17.333 17.333 -29.833 38.833 -37.5 64.5s-11.5 56.834 -11.5 93.501v236zM368.999 540.998c-19.333 0 -35.833 6.83301 -49.5 20.5
s-20.5 30.167 -20.5 49.5s6.83301 35.666 20.5 48.999s30.167 20 49.5 20s35.666 -6.66699 48.999 -20s20 -29.666 20 -48.999s-6.66699 -35.833 -20 -49.5s-29.666 -20.5 -48.999 -20.5zM167.999 540.998c-19.333 0 -35.666 6.83301 -48.999 20.5s-20 30.167 -20 49.5
s6.66699 35.666 20 48.999s29.666 20 48.999 20s35.833 -6.66699 49.5 -20s20.5 -29.666 20.5 -48.999s-6.83301 -35.833 -20.5 -49.5s-30.167 -20.5 -49.5 -20.5z" />
    <glyph glyph-name="yacute" unicode="&#xfd;" horiz-adv-x="510" 
d="M202 21l-200 417h132l79 -177l20 -44l16.5 -39.5l14.5 -34.5l22.5 54.5l22.5 54.5l79 186h120l-290 -639h-120zM318 705l90 -68l-159 -128l-65 47z" />
    <glyph glyph-name="thorn" unicode="&#xfe;" horiz-adv-x="583" 
d="M67 749l113.996 0.00292969v-370c15.333 22 35.5 39.167 60.5 51.5s54.5 18.5 88.5 18.5c30.667 0 58.834 -5.83301 84.501 -17.5s47.834 -27.834 66.501 -48.501s33.334 -44.834 44.001 -72.501s16 -57.5 16 -89.5c0 -30.667 -5.16699 -60 -15.5 -88
s-25 -52.667 -44 -74s-42 -38.333 -69 -51s-56.833 -19 -89.5 -19c-30.667 0 -58.167 5.66699 -82.5 17s-44.166 26.666 -59.499 45.999v-253h-114v950zM298.996 82.0029c18.667 0 35.5 3.66992 50.5 11.0029s27.833 17.166 38.5 29.499s19 26.666 25 42.999
s9 33.166 9 50.499c0 18 -2.83301 35 -8.5 51s-13.834 30.167 -24.501 42.5s-23.667 22.166 -39 29.499s-32.666 11 -51.999 11c-18.667 0 -35.5 -3.5 -50.5 -10.5s-27.833 -16.667 -38.5 -29s-18.834 -26.666 -24.501 -42.999s-8.5 -33.833 -8.5 -52.5
c0 -39.333 11.333 -71.333 34 -96s52.334 -37 89.001 -37z" />
    <glyph glyph-name="ydieresis" unicode="&#xff;" horiz-adv-x="510" 
d="M202 21l-200 417h132l79 -177l20 -44l16.5 -39.5l14.5 -34.5l22.5 54.5l22.5 54.5l79 186h120l-290 -639h-120zM360 541c-19.333 0 -35.833 6.83301 -49.5 20.5s-20.5 30.167 -20.5 49.5s6.83301 35.666 20.5 48.999s30.167 20 49.5 20s35.666 -6.66699 48.999 -20
s20 -29.666 20 -48.999s-6.66699 -35.833 -20 -49.5s-29.666 -20.5 -48.999 -20.5zM159 541c-19.333 0 -35.666 6.83301 -48.999 20.5s-20 30.167 -20 49.5s6.66699 35.666 20 48.999s29.666 20 48.999 20s35.833 -6.66699 49.5 -20s20.5 -29.666 20.5 -48.999
s-6.83301 -35.833 -20.5 -49.5s-30.167 -20.5 -49.5 -20.5z" />
    <glyph glyph-name="Amacron" unicode="&#x100;" horiz-adv-x="701" 
d="M287 709h122l284 -709h-136l-62 165h-294l-61 -165h-131zM455 272l-62 165.999c-3.33301 8.66699 -7.5 20.334 -12.5 35.001l-15.5 44l-18 53l-17 -53l-15.5 -43.5l-12.5 -35.5l-62 -166h215zM208 873.999h285v-94h-285v94z" />
    <glyph glyph-name="amacron" unicode="&#x101;" 
d="M401 54c-16.667 -20 -37.501 -36.001 -62.501 -48.001s-53.833 -18 -86.5 -18c-31.333 0 -60 5.66699 -86 17s-48.167 27 -66.5 47s-32.666 43.833 -42.999 71.5s-15.5 57.834 -15.5 90.501c0 34 5.33301 65.333 16 94s25.5 53.5 44.5 74.5s41.833 37.5 68.5 49.5
s56 18 88 18c30.667 0 58.5 -6.16699 83.5 -18.5s44.833 -28.833 59.5 -49.5v56h113v-438h-113v54zM282.999 80.999c18.667 0 35.665 3.50195 50.998 10.502s28.333 16.5 39 28.5s18.834 26.167 24.501 42.5s8.5 33.833 8.5 52.5c0 39.333 -11.667 71.666 -35 96.999
s-53.666 38 -90.999 38c-17.333 0 -33.333 -3.33301 -48 -10s-27.5 -15.834 -38.5 -27.501s-19.667 -25.667 -26 -42s-9.5 -33.833 -9.5 -52.5s3.16699 -36.334 9.5 -53.001s15 -31.167 26 -43.5s24.167 -22.166 39.5 -29.499s32 -11 50 -11zM155.997 650.001h285v-94h-285
v94z" />
    <glyph glyph-name="Abreve" unicode="&#x102;" horiz-adv-x="701" 
d="M287 709h122l284 -709h-136l-62 165h-294l-61 -165h-131zM455 272l-62 165.999c-3.33301 8.66699 -7.5 20.334 -12.5 35.001l-15.5 44l-18 53l-17 -53l-15.5 -43.5l-12.5 -35.5l-62 -166h215zM283 929.999c0 -25.333 4.99902 -44.167 14.999 -56.5s26.667 -18.5 50 -18.5
c47.333 0 71 25 71 75h92c0 -31.333 -4.16699 -58 -12.5 -80s-19.666 -39.833 -33.999 -53.5s-31.5 -23.667 -51.5 -30s-41.667 -9.5 -65 -9.5c-104.667 0 -157 57.667 -157 173h92z" />
    <glyph glyph-name="abreve" unicode="&#x103;" 
d="M401 54c-16.667 -20 -37.501 -36.001 -62.501 -48.001s-53.833 -18 -86.5 -18c-31.333 0 -60 5.66699 -86 17s-48.167 27 -66.5 47s-32.666 43.833 -42.999 71.5s-15.5 57.834 -15.5 90.501c0 34 5.33301 65.333 16 94s25.5 53.5 44.5 74.5s41.833 37.5 68.5 49.5
s56 18 88 18c30.667 0 58.5 -6.16699 83.5 -18.5s44.833 -28.833 59.5 -49.5v56h113v-438h-113v54zM282.999 80.999c18.667 0 35.665 3.50195 50.998 10.502s28.333 16.5 39 28.5s18.834 26.167 24.501 42.5s8.5 33.833 8.5 52.5c0 39.333 -11.667 71.666 -35 96.999
s-53.666 38 -90.999 38c-17.333 0 -33.333 -3.33301 -48 -10s-27.5 -15.834 -38.5 -27.501s-19.667 -25.667 -26 -42s-9.5 -33.833 -9.5 -52.5s3.16699 -36.334 9.5 -53.001s15 -31.167 26 -43.5s24.167 -22.166 39.5 -29.499s32 -11 50 -11zM226.997 696.001
c0 -25.333 4.99902 -44.167 14.999 -56.5s26.667 -18.5 50 -18.5c47.333 0 71 25 71 75h92c0 -31.333 -4.16699 -58 -12.5 -80s-19.666 -39.833 -33.999 -53.5s-31.5 -23.667 -51.5 -30s-41.667 -9.5 -65 -9.5c-104.667 0 -157 57.667 -157 173h92z" />
    <glyph glyph-name="Aogonek" unicode="&#x104;" horiz-adv-x="701" 
d="M636 0c-14 -9.33301 -26.5 -21.334 -37.5 -36.001s-16.5 -29.667 -16.5 -45c0 -35.333 20.667 -53 62 -53c5.33301 0 11.166 0.333008 17.499 1s12.833 1.66699 19.5 3l8 -74c-27.333 -8 -53.666 -12 -78.999 -12c-18.667 0 -36.167 2.16699 -52.5 6.5
s-30.5 10.833 -42.5 19.5s-21.333 19.334 -28 32.001s-10 27.667 -10 45c0 12 2.66699 23.667 8 35s12 22 20 32s16.667 19 26 27s18 14.333 26 19l-62 165h-294l-61 -165h-131l278 709h122l284 -709h-57zM393 437.999c-3.33301 8.66699 -7.5 20.333 -12.5 35l-15.5 44
l-18 53l-17 -53l-15.5 -43.5l-12.5 -35.5l-62 -166h215z" />
    <glyph glyph-name="aogonek" unicode="&#x105;" 
d="M533 -204c-27.333 -8 -53.667 -12.002 -79 -12.002c-18.667 0 -36.167 2.16699 -52.5 6.5s-30.5 10.833 -42.5 19.5s-21.333 19.334 -28 32.001s-10 27.667 -10 45c0 12 2.66699 23.667 8 35s12 22 20 32s16.667 19 26 27s18 14.333 26 19v54
c-16.667 -20 -37.5 -36 -62.5 -48s-53.833 -18 -86.5 -18c-31.333 0 -60 5.66699 -86 17s-48.167 27 -66.5 47s-32.666 43.833 -42.999 71.5s-15.5 57.834 -15.5 90.501c0 34 5.33301 65.333 16 94s25.5 53.5 44.5 74.5s41.833 37.5 68.5 49.5s56 18 88 18
c30.667 0 58.5 -6.16699 83.5 -18.5s44.833 -28.833 59.5 -49.5v56h113v-438h-34c-14 -9.33301 -26.5 -21.333 -37.5 -36s-16.5 -29.667 -16.5 -45c0 -35.333 20.667 -53 62 -53c5.33301 0 11.166 0.333008 17.499 1s12.833 1.66699 19.5 3zM405.999 214.998
c0 39.333 -11.6689 71.668 -35.002 97.001s-53.666 38 -90.999 38c-17.333 0 -33.333 -3.33301 -48 -10s-27.5 -15.834 -38.5 -27.501s-19.667 -25.667 -26 -42s-9.5 -33.833 -9.5 -52.5s3.16699 -36.334 9.5 -53.001s15 -31.167 26 -43.5s24.167 -22.166 39.5 -29.499
s32 -11 50 -11c18.667 0 35.667 3.5 51 10.5s28.333 16.5 39 28.5s18.834 26.167 24.501 42.5s8.5 33.833 8.5 52.5z" />
    <glyph glyph-name="Cacute" unicode="&#x106;" horiz-adv-x="645" 
d="M596 31c-26 -13.333 -56.002 -23.668 -90.002 -31.001s-69.667 -11 -107 -11c-53.333 0 -101.833 9.33301 -145.5 28s-81.167 44.334 -112.5 77.001s-55.5 71 -72.5 115s-25.5 91 -25.5 141c0 54 9 103.5 27 148.5s43 83.833 75 116.5s70.167 58.167 114.5 76.5
s92.833 27.5 145.5 27.5c70 0 132.333 -12.667 187 -38v-134c-23.333 17.333 -51.5 31.5 -84.5 42.5s-67.167 16.5 -102.5 16.5c-32.667 0 -63.167 -6 -91.5 -18s-52.833 -29 -73.5 -51s-37 -48.5 -49 -79.5s-18 -65.833 -18 -104.5c0 -34.667 5.5 -67.167 16.5 -97.5
s26.833 -56.833 47.5 -79.5s45.834 -40.5 75.501 -53.5s62.834 -19.5 99.501 -19.5c37.333 0 71.5 4.83301 102.5 14.5s58.167 23.167 81.5 40.5v-127v0zM264.998 799.998l142 120l88 -74l-175 -103z" />
    <glyph glyph-name="cacute" unicode="&#x107;" horiz-adv-x="441" 
d="M398 13c-15.333 -6.66699 -34.1699 -12.4971 -56.5029 -17.4971s-45.5 -7.5 -69.5 -7.5c-38 0 -71.333 6.33301 -100 19s-52.667 29.667 -72 51s-34 45.666 -44 72.999s-15 55.666 -15 84.999c0 30 5.5 59.167 16.5 87.5s26.667 53.166 47 74.499s45.333 38.5 75 51.5
s63.167 19.5 100.5 19.5c20.667 0 41.5 -2 62.5 -6s39.5 -9.66699 55.5 -17v-107c-13.333 8 -29.666 14.833 -48.999 20.5s-38.666 8.5 -57.999 8.5c-18.667 0 -36 -3.16699 -52 -9.5s-29.667 -15.166 -41 -26.499s-20.333 -24.833 -27 -40.5s-10 -32.834 -10 -51.501
c0 -18 3 -34.833 9 -50.5s14.667 -29.5 26 -41.5s25 -21.5 41 -28.5s34 -10.5 54 -10.5c19.333 0 38.333 2.66699 57 8s35.334 13.333 50.001 24v-108v0zM294.996 705.003l90 -68l-159 -128l-65 47z" />
    <glyph glyph-name="Cdotaccent" unicode="&#x10a;" horiz-adv-x="645" 
d="M596 31c-26 -13.333 -56.002 -23.668 -90.002 -31.001s-69.667 -11 -107 -11c-53.333 0 -101.833 9.33301 -145.5 28s-81.167 44.334 -112.5 77.001s-55.5 71 -72.5 115s-25.5 91 -25.5 141c0 54 9 103.5 27 148.5s43 83.833 75 116.5s70.167 58.167 114.5 76.5
s92.833 27.5 145.5 27.5c70 0 132.333 -12.667 187 -38v-134c-23.333 17.333 -51.5 31.5 -84.5 42.5s-67.167 16.5 -102.5 16.5c-32.667 0 -63.167 -6 -91.5 -18s-52.833 -29 -73.5 -51s-37 -48.5 -49 -79.5s-18 -65.833 -18 -104.5c0 -34.667 5.5 -67.167 16.5 -97.5
s26.833 -56.833 47.5 -79.5s45.834 -40.5 75.501 -53.5s62.834 -19.5 99.501 -19.5c37.333 0 71.5 4.83301 102.5 14.5s58.167 23.167 81.5 40.5v-127v0zM367.998 763.998c-22 0 -40.5 7.66699 -55.5 23s-22.5 33.666 -22.5 54.999c0 22 7.5 40.5 22.5 55.5
s33.5 22.5 55.5 22.5c21.333 0 39.666 -7.5 54.999 -22.5s23 -33.5 23 -55.5c0 -21.333 -7.66699 -39.666 -23 -54.999s-33.666 -23 -54.999 -23z" />
    <glyph glyph-name="cdotaccent" unicode="&#x10b;" horiz-adv-x="441" 
d="M398 13c-15.333 -6.66699 -34.1699 -12.4971 -56.5029 -17.4971s-45.5 -7.5 -69.5 -7.5c-38 0 -71.333 6.33301 -100 19s-52.667 29.667 -72 51s-34 45.666 -44 72.999s-15 55.666 -15 84.999c0 30 5.5 59.167 16.5 87.5s26.667 53.166 47 74.499s45.333 38.5 75 51.5
s63.167 19.5 100.5 19.5c20.667 0 41.5 -2 62.5 -6s39.5 -9.66699 55.5 -17v-107c-13.333 8 -29.666 14.833 -48.999 20.5s-38.666 8.5 -57.999 8.5c-18.667 0 -36 -3.16699 -52 -9.5s-29.667 -15.166 -41 -26.499s-20.333 -24.833 -27 -40.5s-10 -32.834 -10 -51.501
c0 -18 3 -34.833 9 -50.5s14.667 -29.5 26 -41.5s25 -21.5 41 -28.5s34 -10.5 54 -10.5c19.333 0 38.333 2.66699 57 8s35.334 13.333 50.001 24v-108v0zM246.996 535.003c-22 0 -40.5 7.66699 -55.5 23s-22.5 33.666 -22.5 54.999c0 22 7.5 40.5 22.5 55.5
s33.5 22.5 55.5 22.5c21.333 0 39.666 -7.5 54.999 -22.5s23 -33.5 23 -55.5c0 -21.333 -7.66699 -39.666 -23 -54.999s-33.666 -23 -54.999 -23z" />
    <glyph glyph-name="Ccaron" unicode="&#x10c;" horiz-adv-x="645" 
d="M596 31c-26 -13.333 -56.002 -23.668 -90.002 -31.001s-69.667 -11 -107 -11c-53.333 0 -101.833 9.33301 -145.5 28s-81.167 44.334 -112.5 77.001s-55.5 71 -72.5 115s-25.5 91 -25.5 141c0 54 9 103.5 27 148.5s43 83.833 75 116.5s70.167 58.167 114.5 76.5
s92.833 27.5 145.5 27.5c70 0 132.333 -12.667 187 -38v-134c-23.333 17.333 -51.5 31.5 -84.5 42.5s-67.167 16.5 -102.5 16.5c-32.667 0 -63.167 -6 -91.5 -18s-52.833 -29 -73.5 -51s-37 -48.5 -49 -79.5s-18 -65.833 -18 -104.5c0 -34.667 5.5 -67.167 16.5 -97.5
s26.833 -56.833 47.5 -79.5s45.834 -40.5 75.501 -53.5s62.834 -19.5 99.501 -19.5c37.333 0 71.5 4.83301 102.5 14.5s58.167 23.167 81.5 40.5v-127v0zM236.998 909.998l132 -61l128 61l43 -69l-172 -90l-173 93z" />
    <glyph glyph-name="ccaron" unicode="&#x10d;" horiz-adv-x="441" 
d="M398 13c-15.333 -6.66699 -34.1699 -12.4971 -56.5029 -17.4971s-45.5 -7.5 -69.5 -7.5c-38 0 -71.333 6.33301 -100 19s-52.667 29.667 -72 51s-34 45.666 -44 72.999s-15 55.666 -15 84.999c0 30 5.5 59.167 16.5 87.5s26.667 53.166 47 74.499s45.333 38.5 75 51.5
s63.167 19.5 100.5 19.5c20.667 0 41.5 -2 62.5 -6s39.5 -9.66699 55.5 -17v-107c-13.333 8 -29.666 14.833 -48.999 20.5s-38.666 8.5 -57.999 8.5c-18.667 0 -36 -3.16699 -52 -9.5s-29.667 -15.166 -41 -26.499s-20.333 -24.833 -27 -40.5s-10 -32.834 -10 -51.501
c0 -18 3 -34.833 9 -50.5s14.667 -29.5 26 -41.5s25 -21.5 41 -28.5s34 -10.5 54 -10.5c19.333 0 38.333 2.66699 57 8s35.334 13.333 50.001 24v-108v0zM128.996 701.003l109 -83l110 84l55 -64l-168 -131l-159 129z" />
    <glyph glyph-name="Dcaron" unicode="&#x10e;" horiz-adv-x="683" 
d="M82 709h187c56.667 0 108 -7.83301 154 -23.5s85.333 -39.5 118 -71.5c32 -32 56.333 -68.833 73 -110.5s25 -89.5 25 -143.5c0 -107.333 -33.333 -194.333 -100 -261c-66 -66 -162 -99 -288 -99h-169v709zM256 104c43.333 0 80.166 5.16797 110.499 15.501
s55.5 25.5 75.5 45.5c21.333 20.667 37.833 46.667 49.5 78s17.5 68.666 17.5 111.999c0 39.333 -5.66699 75 -17 107s-27.666 58.667 -48.999 80c-23.333 23.333 -50.5 39.833 -81.5 49.5s-65.833 14.5 -104.5 14.5h-52v-502h51zM210 910.001l132 -61l128 61l43 -69
l-172 -90l-173 93z" />
    <glyph glyph-name="dcaron" unicode="&#x10f;" 
d="M401 59c-16.667 -20 -37.3311 -36.502 -61.998 -49.502s-54.334 -19.5 -89.001 -19.5c-31.333 0 -59.833 5.83301 -85.5 17.5s-47.667 27.834 -66 48.501s-32.5 44.667 -42.5 72s-15 57 -15 89s5.33301 61.833 16 89.5s25.667 52 45 73s42.333 37.5 69 49.5s56 18 88 18
c29.333 0 56.166 -5.16699 80.499 -15.5s44.833 -25.166 61.5 -44.499v361h113v-748h-113v59zM281.003 85.998c18.667 0 35.5 3.50098 50.5 10.501s28 16.667 39 29s19.5 26.666 25.5 42.999s9 33.833 9 52.5c0 20 -3.16699 38 -9.5 54s-15 29.667 -26 41s-24 20 -39 26
s-30.833 9 -47.5 9c-18 0 -34.5 -3.5 -49.5 -10.5s-28 -16.5 -39 -28.5s-19.5 -26.167 -25.5 -42.5s-9 -33.5 -9 -51.5c0 -20 3.33301 -38 10 -54s15.5 -29.833 26.5 -41.5s23.833 -20.667 38.5 -27s30 -9.5 46 -9.5zM714.003 740.999
c0 -29.333 -10.166 -57.5 -30.499 -84.5s-48.166 -52.167 -83.499 -75.5l-35 35c14 12 25.333 23.5 34 34.5s13 22.167 13 33.5c0 7.33301 -1.33301 13.833 -4 19.5s-5.83398 11 -9.50098 16s-6.83398 10.333 -9.50098 16s-4 12.5 -4 20.5c0 16 5.83301 29.333 17.5 40
s27.167 16 46.5 16s35 -6.83301 47 -20.5s18 -30.5 18 -50.5z" />
    <glyph glyph-name="Dcroat" unicode="&#x110;" horiz-adv-x="693" 
d="M93 312l-64 0.000976562v100h64v297h186c118 0 208.667 -31.667 272 -95c32 -32 56.333 -68.833 73 -110.5s25 -89.5 25 -143.5s-8.66699 -102.833 -26 -146.5s-42.333 -81.834 -75 -114.501c-66 -66 -161.667 -99 -287 -99h-168v312zM267 104.001
c83.333 0 145.331 20.334 185.998 61.001c20.667 20.667 36.834 46.667 48.501 78s17.5 68.666 17.5 111.999c0 39.333 -5.66699 75 -17 107s-27.666 58.667 -48.999 80c-23.333 23.333 -50.333 39.833 -81 49.5s-65.667 14.5 -105 14.5h-52v-194h73v-100h-73v-208h52z" />
    <glyph glyph-name="dcroat" unicode="&#x111;" horiz-adv-x="583" 
d="M514 502l0.00292969 -502.002h-113v59c-16.667 -20 -37.334 -36.5 -62.001 -49.5s-54.334 -19.5 -89.001 -19.5c-31.333 0 -59.833 5.83301 -85.5 17.5s-47.667 27.834 -66 48.501s-32.5 44.667 -42.5 72s-15 57 -15 89s5.33301 61.833 16 89.5s25.667 52 45 73
s42.333 37.5 69 49.5s56 18 88 18c29.333 0 56.166 -5.16699 80.499 -15.5s44.833 -25.166 61.5 -44.499v115h-77v87h77v159h113v-159h61v-87h-61zM405.003 220.998c0 20 -3.16699 38.001 -9.5 54.001s-15 29.667 -26 41s-24 20 -39 26s-30.833 9 -47.5 9
c-18 0 -34.5 -3.5 -49.5 -10.5s-28 -16.5 -39 -28.5s-19.5 -26.167 -25.5 -42.5s-9 -33.5 -9 -51.5c0 -20 3.33301 -38 10 -54s15.5 -29.833 26.5 -41.5s23.833 -20.667 38.5 -27s30 -9.5 46 -9.5c18.667 0 35.5 3.5 50.5 10.5s28 16.667 39 29s19.5 26.666 25.5 42.999
s9 33.833 9 52.5z" />
    <glyph glyph-name="Emacron" unicode="&#x112;" horiz-adv-x="544" 
d="M82 709h387v-113h-263v-176h255v-111h-255v-196h264v-113h-388v709zM130 874h285v-94h-285v94z" />
    <glyph glyph-name="emacron" unicode="&#x113;" horiz-adv-x="520" 
d="M471 85c-25.333 -32.667 -54.665 -57.1699 -87.998 -73.5029s-73 -24.5 -119 -24.5c-30.667 0 -59.5 5.16699 -86.5 15.5s-50.667 25.166 -71 44.499s-36.333 43.333 -48 72s-17.5 61.334 -17.5 98.001c0 34.667 5.66699 66.334 17 95.001s27 53.334 47 74.001
s43.5 36.667 70.5 48s56.167 17 87.5 17c32 0 61.167 -5.16699 87.5 -15.5s49.166 -25.166 68.499 -44.499s34.333 -43 45 -71s16 -59.333 16 -94c0 -6 -0.166992 -12 -0.5 -18s-0.5 -12.333 -0.5 -19h-325c0.666992 -16 4.16699 -30.833 10.5 -44.5
s14.833 -25.667 25.5 -36s23.167 -18.333 37.5 -24s30.166 -8.5 47.499 -8.5c25.333 0 48 5.5 68 16.5s37.667 26.167 53 45.5zM364.001 264.997c0 13.333 -2.33105 26 -6.99805 38s-11.5 22.667 -20.5 32s-19.833 16.833 -32.5 22.5s-27 8.5 -43 8.5
c-30.667 0 -55.334 -10 -74.001 -30s-29.334 -43.667 -32.001 -71h209zM120.003 649.997h285v-94h-285v94z" />
    <glyph glyph-name="Edotaccent" unicode="&#x116;" horiz-adv-x="544" 
d="M82 709h387v-113h-263v-176h255v-111h-255v-196h264v-113h-388v709zM274 764c-22 0 -40.5 7.66699 -55.5 23s-22.5 33.666 -22.5 54.999c0 22 7.5 40.5 22.5 55.5s33.5 22.5 55.5 22.5c21.333 0 39.666 -7.5 54.999 -22.5s23 -33.5 23 -55.5
c0 -21.333 -7.66699 -39.666 -23 -54.999s-33.666 -23 -54.999 -23z" />
    <glyph glyph-name="edotaccent" unicode="&#x117;" horiz-adv-x="520" 
d="M471 85c-25.333 -32.667 -54.665 -57.1699 -87.998 -73.5029s-73 -24.5 -119 -24.5c-30.667 0 -59.5 5.16699 -86.5 15.5s-50.667 25.166 -71 44.499s-36.333 43.333 -48 72s-17.5 61.334 -17.5 98.001c0 34.667 5.66699 66.334 17 95.001s27 53.334 47 74.001
s43.5 36.667 70.5 48s56.167 17 87.5 17c32 0 61.167 -5.16699 87.5 -15.5s49.166 -25.166 68.499 -44.499s34.333 -43 45 -71s16 -59.333 16 -94c0 -6 -0.166992 -12 -0.5 -18s-0.5 -12.333 -0.5 -19h-325c0.666992 -16 4.16699 -30.833 10.5 -44.5
s14.833 -25.667 25.5 -36s23.167 -18.333 37.5 -24s30.166 -8.5 47.499 -8.5c25.333 0 48 5.5 68 16.5s37.667 26.167 53 45.5zM364.001 264.997c0 13.333 -2.33105 26 -6.99805 38s-11.5 22.667 -20.5 32s-19.833 16.833 -32.5 22.5s-27 8.5 -43 8.5
c-30.667 0 -55.334 -10 -74.001 -30s-29.334 -43.667 -32.001 -71h209zM260.003 534.997c-22 0 -40.5 7.66699 -55.5 23s-22.5 33.666 -22.5 54.999c0 22 7.5 40.5 22.5 55.5s33.5 22.5 55.5 22.5c21.333 0 39.666 -7.5 54.999 -22.5s23 -33.5 23 -55.5
c0 -21.333 -7.66699 -39.666 -23 -54.999s-33.666 -23 -54.999 -23z" />
    <glyph glyph-name="Eogonek" unicode="&#x118;" horiz-adv-x="544" 
d="M477 -204c-27.333 -8 -53.666 -12.001 -78.999 -12.001c-18.667 0 -36.167 2.16699 -52.5 6.5s-30.5 10.833 -42.5 19.5s-21.333 19.334 -28 32.001s-10 27.667 -10 45c0 12 2.66699 23.667 8 35s12 22 20 32s16.667 19 26 27s18 14.333 26 19h-263v709h387v-113h-263
v-176h255v-111h-255v-196h264v-113h-46c-14 -9.33301 -26.5 -21.333 -37.5 -36s-16.5 -29.667 -16.5 -45c0 -35.333 20.667 -53 62 -53c5.33301 0 11.166 0.333008 17.499 1s12.833 1.66699 19.5 3l8 -74v0z" />
    <glyph glyph-name="eogonek" unicode="&#x119;" horiz-adv-x="520" 
d="M480 226c0 -6 -0.165039 -12.002 -0.498047 -18.002s-0.5 -12.333 -0.5 -19h-325c0.666992 -16 4.16699 -30.833 10.5 -44.5s14.833 -25.667 25.5 -36s23.167 -18.333 37.5 -24s30.166 -8.5 47.499 -8.5c25.333 0 48 5.5 68 16.5s37.667 26.167 53 45.5l75 -53
c-9.33301 -10 -20.833 -21.667 -34.5 -35s-27 -27.333 -40 -42s-24 -29.667 -33 -45s-13.5 -30 -13.5 -44c0 -35.333 20.667 -53 62 -53c5.33301 0 11.166 0.333008 17.499 1s12.833 1.66699 19.5 3l8 -74c-13.333 -4 -27.166 -7 -41.499 -9s-27.833 -3 -40.5 -3
c-38 0 -69.167 8.66699 -93.5 26s-36.5 43 -36.5 77c0 16 5.5 33.833 16.5 53.5s25.5 38.5 43.5 56.5c-12.667 -5.33301 -30.334 -8 -53.001 -8c-28 0 -54.667 5 -80 15s-47.666 24.667 -66.999 44s-34.833 43.166 -46.5 71.499s-17.5 60.833 -17.5 97.5
c0 34.667 5.66699 66.334 17 95.001s27 53.334 47 74.001s43.5 36.667 70.5 48s56.167 17 87.5 17c32 0 61.167 -5.16699 87.5 -15.5s49.166 -25.166 68.499 -44.499s34.333 -43 45 -71s16 -59.333 16 -94zM364.002 264.998c0 13.333 -2.33105 26 -6.99805 38
s-11.5 22.667 -20.5 32s-19.833 16.833 -32.5 22.5s-27 8.5 -43 8.5c-30.667 0 -55.334 -10 -74.001 -30s-29.334 -43.667 -32.001 -71h209z" />
    <glyph glyph-name="Ecaron" unicode="&#x11a;" horiz-adv-x="544" 
d="M82 709h387v-113h-263v-176h255v-111h-255v-196h264v-113h-388v709zM147 910l132 -61l128 61l43 -69l-172 -90l-173 93z" />
    <glyph glyph-name="ecaron" unicode="&#x11b;" horiz-adv-x="520" 
d="M471 85c-25.333 -32.667 -54.665 -57.1699 -87.998 -73.5029s-73 -24.5 -119 -24.5c-30.667 0 -59.5 5.16699 -86.5 15.5s-50.667 25.166 -71 44.499s-36.333 43.333 -48 72s-17.5 61.334 -17.5 98.001c0 34.667 5.66699 66.334 17 95.001s27 53.334 47 74.001
s43.5 36.667 70.5 48s56.167 17 87.5 17c32 0 61.167 -5.16699 87.5 -15.5s49.166 -25.166 68.499 -44.499s34.333 -43 45 -71s16 -59.333 16 -94c0 -6 -0.166992 -12 -0.5 -18s-0.5 -12.333 -0.5 -19h-325c0.666992 -16 4.16699 -30.833 10.5 -44.5
s14.833 -25.667 25.5 -36s23.167 -18.333 37.5 -24s30.166 -8.5 47.499 -8.5c25.333 0 48 5.5 68 16.5s37.667 26.167 53 45.5zM364.001 264.997c0 13.333 -2.33105 26 -6.99805 38s-11.5 22.667 -20.5 32s-19.833 16.833 -32.5 22.5s-27 8.5 -43 8.5
c-30.667 0 -55.334 -10 -74.001 -30s-29.334 -43.667 -32.001 -71h209zM157.003 700.997l109 -83l110 84l55 -64l-168 -131l-159 129z" />
    <glyph glyph-name="Gbreve" unicode="&#x11e;" horiz-adv-x="785" 
d="M430 373l324.995 0.00390625v-29c0 -49.333 -7.83301 -95.833 -23.5 -139.5s-38.667 -81.834 -69 -114.501s-67.333 -58.334 -111 -77.001s-93.5 -28 -149.5 -28c-53.333 0 -102.166 9.5 -146.499 28.5s-82.166 45.333 -113.499 79s-55.666 73 -72.999 118
s-26 93.5 -26 145.5c0 50.667 9.16699 98.5 27.5 143.5s43.833 84.167 76.5 117.5s71.5 59.666 116.5 78.999s94.167 29 147.5 29c62.667 0 119.834 -12.667 171.501 -38s95.5 -63 131.5 -113l-98 -68c-52 70.667 -121.333 106 -208 106
c-37.333 0 -70.666 -6.83301 -99.999 -20.5s-54.333 -32 -75 -55s-36.5 -49.833 -47.5 -80.5s-16.5 -63 -16.5 -97c0 -36 5.5 -69.833 16.5 -101.5s26.833 -59.334 47.5 -83.001s45.834 -42.5 75.501 -56.5s62.834 -21 99.501 -21c29.333 0 56.166 4.16699 80.499 12.5
s45.666 20 63.999 35s33.5 32.667 45.5 53s20 42.5 24 66.5h-192v109zM325.995 930.004c0 -25.333 4.99902 -44.167 14.999 -56.5s26.667 -18.5 50 -18.5c47.333 0 71 25 71 75h92c0 -31.333 -4.16699 -58 -12.5 -80s-19.666 -39.833 -33.999 -53.5s-31.5 -23.667 -51.5 -30
s-41.667 -9.5 -65 -9.5c-104.667 0 -157 57.667 -157 173h92z" />
    <glyph glyph-name="gbreve" unicode="&#x11f;" horiz-adv-x="573" 
d="M174 -44c1.33301 -23.333 11.332 -43.0039 29.999 -59.0039s43.334 -24 74.001 -24c40 0 69.333 10 88 30s28 53 28 99v64c-17.333 -21.333 -38.333 -37.333 -63 -48s-51.667 -16 -81 -16c-32.667 0 -61.834 5.66699 -87.501 17s-47.5 27 -65.5 47
s-31.833 43.167 -41.5 69.5s-14.5 54.5 -14.5 84.5c0 32.667 5.5 62.834 16.5 90.501s26 51.834 45 72.501s41.333 36.834 67 48.501s53.167 17.5 82.5 17.5c30 0 57.333 -5.5 82 -16.5s44.667 -27.5 60 -49.5v55h113v-407c0 -44.667 -4.16699 -81.5 -12.5 -110.5
s-23.166 -53.833 -44.499 -74.5c-21.333 -21.333 -46.5 -36.666 -75.5 -45.999s-63.167 -14 -102.5 -14c-66 0 -116.833 15.833 -152.5 47.5s-54.5 72.5 -56.5 122.5h111zM278.999 92.9961c18 0 34.334 3.33301 49.001 10s27.167 16 37.5 28s18.333 26 24 42s8.5 33 8.5 51
c0 16.667 -2.66699 32.834 -8 48.501s-13.333 29.167 -24 40.5s-23.5 20.5 -38.5 27.5s-31.833 10.5 -50.5 10.5c-17.333 0 -33.333 -3.33301 -48 -10s-27.334 -15.834 -38.001 -27.501s-19 -25.167 -25 -40.5s-9 -32 -9 -50c0 -37.333 11.333 -68.333 34 -93s52 -37 88 -37
zM223 695.996c0 -25.333 4.99902 -44.167 14.999 -56.5s26.667 -18.5 50 -18.5c47.333 0 71 25 71 75h92c0 -31.333 -4.16699 -58 -12.5 -80s-19.666 -39.833 -33.999 -53.5s-31.5 -23.667 -51.5 -30s-41.667 -9.5 -65 -9.5c-104.667 0 -157 57.667 -157 173h92z" />
    <glyph glyph-name="Gdotaccent" unicode="&#x120;" horiz-adv-x="785" 
d="M430 373l324.995 0.00390625v-29c0 -49.333 -7.83301 -95.833 -23.5 -139.5s-38.667 -81.834 -69 -114.501s-67.333 -58.334 -111 -77.001s-93.5 -28 -149.5 -28c-53.333 0 -102.166 9.5 -146.499 28.5s-82.166 45.333 -113.499 79s-55.666 73 -72.999 118
s-26 93.5 -26 145.5c0 50.667 9.16699 98.5 27.5 143.5s43.833 84.167 76.5 117.5s71.5 59.666 116.5 78.999s94.167 29 147.5 29c62.667 0 119.834 -12.667 171.501 -38s95.5 -63 131.5 -113l-98 -68c-52 70.667 -121.333 106 -208 106
c-37.333 0 -70.666 -6.83301 -99.999 -20.5s-54.333 -32 -75 -55s-36.5 -49.833 -47.5 -80.5s-16.5 -63 -16.5 -97c0 -36 5.5 -69.833 16.5 -101.5s26.833 -59.334 47.5 -83.001s45.834 -42.5 75.501 -56.5s62.834 -21 99.501 -21c29.333 0 56.166 4.16699 80.499 12.5
s45.666 20 63.999 35s33.5 32.667 45.5 53s20 42.5 24 66.5h-192v109zM392.995 764.004c-22 0 -40.5 7.66699 -55.5 23s-22.5 33.666 -22.5 54.999c0 22 7.5 40.5 22.5 55.5s33.5 22.5 55.5 22.5c21.333 0 39.666 -7.5 54.999 -22.5s23 -33.5 23 -55.5
c0 -21.333 -7.66699 -39.666 -23 -54.999s-33.666 -23 -54.999 -23z" />
    <glyph glyph-name="gdotaccent" unicode="&#x121;" horiz-adv-x="573" 
d="M174 -44c1.33301 -23.333 11.332 -43.0039 29.999 -59.0039s43.334 -24 74.001 -24c40 0 69.333 10 88 30s28 53 28 99v64c-17.333 -21.333 -38.333 -37.333 -63 -48s-51.667 -16 -81 -16c-32.667 0 -61.834 5.66699 -87.501 17s-47.5 27 -65.5 47
s-31.833 43.167 -41.5 69.5s-14.5 54.5 -14.5 84.5c0 32.667 5.5 62.834 16.5 90.501s26 51.834 45 72.501s41.333 36.834 67 48.501s53.167 17.5 82.5 17.5c30 0 57.333 -5.5 82 -16.5s44.667 -27.5 60 -49.5v55h113v-407c0 -44.667 -4.16699 -81.5 -12.5 -110.5
s-23.166 -53.833 -44.499 -74.5c-21.333 -21.333 -46.5 -36.666 -75.5 -45.999s-63.167 -14 -102.5 -14c-66 0 -116.833 15.833 -152.5 47.5s-54.5 72.5 -56.5 122.5h111zM278.999 92.9961c18 0 34.334 3.33301 49.001 10s27.167 16 37.5 28s18.333 26 24 42s8.5 33 8.5 51
c0 16.667 -2.66699 32.834 -8 48.501s-13.333 29.167 -24 40.5s-23.5 20.5 -38.5 27.5s-31.833 10.5 -50.5 10.5c-17.333 0 -33.333 -3.33301 -48 -10s-27.334 -15.834 -38.001 -27.501s-19 -25.167 -25 -40.5s-9 -32 -9 -50c0 -37.333 11.333 -68.333 34 -93s52 -37 88 -37
zM288 534.996c-22 0 -40.5 7.66699 -55.5 23s-22.5 33.666 -22.5 54.999c0 22 7.5 40.5 22.5 55.5s33.5 22.5 55.5 22.5c21.333 0 39.666 -7.5 54.999 -22.5s23 -33.5 23 -55.5c0 -21.333 -7.66699 -39.666 -23 -54.999s-33.666 -23 -54.999 -23z" />
    <glyph glyph-name="Gcommaaccent" unicode="&#x122;" horiz-adv-x="785" 
d="M430 373l324.995 0.00390625v-29c0 -49.333 -7.83301 -95.833 -23.5 -139.5s-38.667 -81.834 -69 -114.501s-67.333 -58.334 -111 -77.001s-93.5 -28 -149.5 -28c-53.333 0 -102.166 9.5 -146.499 28.5s-82.166 45.333 -113.499 79s-55.666 73 -72.999 118
s-26 93.5 -26 145.5c0 50.667 9.16699 98.5 27.5 143.5s43.833 84.167 76.5 117.5s71.5 59.666 116.5 78.999s94.167 29 147.5 29c62.667 0 119.834 -12.667 171.501 -38s95.5 -63 131.5 -113l-98 -68c-52 70.667 -121.333 106 -208 106
c-37.333 0 -70.666 -6.83301 -99.999 -20.5s-54.333 -32 -75 -55s-36.5 -49.833 -47.5 -80.5s-16.5 -63 -16.5 -97c0 -36 5.5 -69.833 16.5 -101.5s26.833 -59.334 47.5 -83.001s45.834 -42.5 75.501 -56.5s62.834 -21 99.501 -21c29.333 0 56.166 4.16699 80.499 12.5
s45.666 20 63.999 35s33.5 32.667 45.5 53s20 42.5 24 66.5h-192v109zM469.995 -101.996c0 -29.333 -10.167 -57.333 -30.5 -84s-48.166 -51.667 -83.499 -75l-35 35c14 12 25.333 23.5 34 34.5s13 22.167 13 33.5c0 7.33301 -1.33301 13.833 -4 19.5s-5.66699 11 -9 16
s-6.33301 10.333 -9 16s-4 12.5 -4 20.5c0 16 5.66699 29.167 17 39.5s26.666 15.5 45.999 15.5s35 -6.83301 47 -20.5s18 -30.5 18 -50.5z" />
    <glyph glyph-name="gcommaaccent" unicode="&#x123;" horiz-adv-x="573" 
d="M174 -44c1.33301 -23.333 11.332 -43.0039 29.999 -59.0039s43.334 -24 74.001 -24c40 0 69.333 10 88 30s28 53 28 99v64c-17.333 -21.333 -38.333 -37.333 -63 -48s-51.667 -16 -81 -16c-32.667 0 -61.834 5.66699 -87.501 17s-47.5 27 -65.5 47
s-31.833 43.167 -41.5 69.5s-14.5 54.5 -14.5 84.5c0 32.667 5.5 62.834 16.5 90.501s26 51.834 45 72.501s41.333 36.834 67 48.501s53.167 17.5 82.5 17.5c30 0 57.333 -5.5 82 -16.5s44.667 -27.5 60 -49.5v55h113v-407c0 -44.667 -4.16699 -81.5 -12.5 -110.5
s-23.166 -53.833 -44.499 -74.5c-21.333 -21.333 -46.5 -36.666 -75.5 -45.999s-63.167 -14 -102.5 -14c-66 0 -116.833 15.833 -152.5 47.5s-54.5 72.5 -56.5 122.5h111zM278.999 92.9961c18 0 34.334 3.33301 49.001 10s27.167 16 37.5 28s18.333 26 24 42s8.5 33 8.5 51
c0 16.667 -2.66699 32.834 -8 48.501s-13.333 29.167 -24 40.5s-23.5 20.5 -38.5 27.5s-31.833 10.5 -50.5 10.5c-17.333 0 -33.333 -3.33301 -48 -10s-27.334 -15.834 -38.001 -27.501s-19 -25.167 -25 -40.5s-9 -32 -9 -50c0 -37.333 11.333 -68.333 34 -93s52 -37 88 -37
zM224.019 604.99c0 29.3311 10.334 57.3291 30.999 83.9941s48.6631 51.6641 83.9941 74.9961l33.998 -34.998c-13.999 -11.999 -25.165 -23.498 -33.498 -34.4971s-12.499 -22.165 -12.499 -33.498c0 -7.33301 1.33301 -13.833 3.99902 -19.5
c2.66699 -5.66602 5.66699 -10.999 9 -15.999c3.33301 -4.99902 6.33301 -10.332 8.99902 -15.999c2.66699 -5.66602 4 -12.499 4 -20.498c0 -15.999 -5.66602 -29.165 -16.999 -39.498s-26.665 -15.499 -45.9971 -15.499s-35.1641 6.83301 -47.4971 20.499
s-18.499 30.498 -18.499 50.4971z" />
    <glyph glyph-name="Hbar" unicode="&#x126;" horiz-adv-x="735" 
d="M643 524v-524h-124v315h-303v-315h-124v524h-64v100h64v85h124v-85h303v85h124v-85h64v-100h-64zM519 524h-303v-97h303v97z" />
    <glyph glyph-name="hbar" unicode="&#x127;" horiz-adv-x="540" 
d="M363 0l0.00195312 257c0 30 -6.5 53 -19.5 69s-33.5 24 -61.5 24c-27.333 0 -50.333 -9.33301 -69 -28c-20.667 -20.667 -31 -50 -31 -88v-234h-113v502h-61v87h61v160h113v-160h126v-87h-126v-120c13.333 17.333 31.833 32.833 55.5 46.5s52.5 20.5 86.5 20.5
c21.333 0 41.666 -3.33301 60.999 -10s35.666 -16.667 48.999 -30c28 -28 42 -70.667 42 -128v-281h-113z" />
    <glyph glyph-name="Imacron" unicode="&#x12a;" horiz-adv-x="288" 
d="M82 709h124v-709h-124v709zM2 874h285v-94h-285v94z" />
    <glyph glyph-name="imacron" unicode="&#x12b;" horiz-adv-x="248" 
d="M67 438h114v-438h-114v438zM-18 650h285v-94h-285v94z" />
    <glyph glyph-name="Iogonek" unicode="&#x12e;" horiz-adv-x="288" 
d="M194 0c-14 -9.33301 -26.5 -21.334 -37.5 -36.001s-16.5 -29.667 -16.5 -45c0 -35.333 20.667 -53 62 -53c5.33301 0 11.166 0.333008 17.499 1s12.833 1.66699 19.5 3l8 -74c-27.333 -8 -53.666 -12 -78.999 -12c-18.667 0 -36.167 2.16699 -52.5 6.5
s-30.5 10.833 -42.5 19.5s-21.333 19.334 -28 32.001s-10 27.667 -10 45c0 12 2.66699 23.667 8 35s12 22 20 32s16.667 19 26 27s18 14.333 26 19h-33v709h124v-709h-12v0z" />
    <glyph glyph-name="iogonek" unicode="&#x12f;" horiz-adv-x="248" 
d="M197 611c0 -20.667 -7.16699 -38.167 -21.5 -52.5s-31.5 -21.5 -51.5 -21.5s-37.333 7.16699 -52 21.5s-22 31.833 -22 52.5c0 20 7.33301 37.167 22 51.5s32 21.5 52 21.5s37.167 -7.16699 51.5 -21.5s21.5 -31.5 21.5 -51.5zM230 -204
c-27.333 -8 -53.666 -12.001 -78.999 -12.001c-18.667 0 -36.167 2.16699 -52.5 6.5s-30.5 10.833 -42.5 19.5s-21.333 19.334 -28 32.001s-10 27.667 -10 45c0 12 2.66699 23.667 8 35s12 22 20 32s16.667 19 26 27s18 14.333 26 19h-31v438h114v-438h-4
c-14 -9.33301 -26.5 -21.333 -37.5 -36s-16.5 -29.667 -16.5 -45c0 -35.333 20.667 -53 62 -53c5.33301 0 11.166 0.333008 17.499 1s12.833 1.66699 19.5 3z" />
    <glyph glyph-name="Idotaccent" unicode="&#x130;" horiz-adv-x="288" 
d="M82 709h124v-709h-124v709zM145 764c-22 0 -40.5 7.66699 -55.5 23s-22.5 33.666 -22.5 54.999c0 22 7.5 40.5 22.5 55.5s33.5 22.5 55.5 22.5c21.333 0 39.666 -7.5 54.999 -22.5s23 -33.5 23 -55.5c0 -21.333 -7.66699 -39.666 -23 -54.999s-33.666 -23 -54.999 -23z
" />
    <glyph glyph-name="dotlessi" unicode="&#x131;" horiz-adv-x="248" 
d="M67 438h114v-438h-114v438z" />
    <glyph glyph-name="Kcommaaccent" unicode="&#x136;" horiz-adv-x="649" 
d="M82 709h124v-316l248 316h149l-271 -332l285 -377h-157l-254 345v-345h-124v709zM389 -102c0 -29.333 -10.167 -57.333 -30.5 -84s-48.166 -51.667 -83.499 -75l-35 35c14 12 25.333 23.5 34 34.5s13 22.167 13 33.5c0 7.33301 -1.33301 13.833 -4 19.5
s-5.66699 11 -9 16s-6.33301 10.333 -9 16s-4 12.5 -4 20.5c0 16 5.66699 29.167 17 39.5s26.666 15.5 45.999 15.5s35 -6.83301 47 -20.5s18 -30.5 18 -50.5z" />
    <glyph glyph-name="kcommaaccent" unicode="&#x137;" horiz-adv-x="486" 
d="M66 749h113v-493l150 182h143l-179 -201l191 -237h-150l-155 209v-209h-113v749zM313 -102c0 -29.333 -10.3311 -57.333 -30.998 -84s-48.667 -51.667 -84 -75l-34 35c14 12 25.167 23.5 33.5 34.5s12.5 22.167 12.5 33.5c0 7.33301 -1.33301 13.833 -4 19.5
s-5.66699 11 -9 16s-6.33301 10.333 -9 16s-4 12.5 -4 20.5c0 16 5.66699 29.167 17 39.5s26.666 15.5 45.999 15.5s35.166 -6.83301 47.499 -20.5s18.5 -30.5 18.5 -50.5z" />
    <glyph glyph-name="Lacute" unicode="&#x139;" horiz-adv-x="472" 
d="M82 709h124v-596h240v-113h-364v709zM139 800l142 120l88 -74l-175 -103z" />
    <glyph glyph-name="lacute" unicode="&#x13a;" horiz-adv-x="245" 
d="M66 749h113v-749h-113v749zM180 1007l90 -68l-159 -128l-65 47z" />
    <glyph glyph-name="Lcommaaccent" unicode="&#x13b;" horiz-adv-x="472" 
d="M82 709h124v-596h240v-113h-364v709zM304 -102c0 -29.333 -10.167 -57.333 -30.5 -84s-48.166 -51.667 -83.499 -75l-35 35c14 12 25.333 23.5 34 34.5s13 22.167 13 33.5c0 7.33301 -1.33301 13.833 -4 19.5s-5.66699 11 -9 16s-6.33301 10.333 -9 16s-4 12.5 -4 20.5
c0 16 5.66699 29.167 17 39.5s26.666 15.5 45.999 15.5s35 -6.83301 47 -20.5s18 -30.5 18 -50.5z" />
    <glyph glyph-name="lcommaaccent" unicode="&#x13c;" horiz-adv-x="245" 
d="M66 749h113v-749h-113v749zM190 -102c0 -29.333 -10.3311 -57.333 -30.998 -84s-48.667 -51.667 -84 -75l-34 35c14 12 25.167 23.5 33.5 34.5s12.5 22.167 12.5 33.5c0 7.33301 -1.33301 13.833 -4 19.5s-5.66699 11 -9 16s-6.33301 10.333 -9 16s-4 12.5 -4 20.5
c0 16 5.66699 29.167 17 39.5s26.666 15.5 45.999 15.5s35.166 -6.83301 47.499 -20.5s18.5 -30.5 18.5 -50.5z" />
    <glyph glyph-name="Lcaron" unicode="&#x13d;" horiz-adv-x="472" 
d="M82 709h124v-596h240v-113h-364v709zM417 653c0 -29.333 -10.3311 -57.333 -30.998 -84s-48.667 -51.667 -84 -75l-34 34c14 12 25.167 23.5 33.5 34.5s12.5 22.167 12.5 33.5c0 7.33301 -1.33301 13.833 -4 19.5s-5.66699 11 -9 16s-6.33301 10.333 -9 16
s-4 12.5 -4 20.5c0 16 5.66699 29.333 17 40s26.666 16 45.999 16s35.166 -6.83301 47.499 -20.5s18.5 -30.5 18.5 -50.5z" />
    <glyph glyph-name="lcaron" unicode="&#x13e;" horiz-adv-x="245" 
d="M66 749h113v-749h-113v749zM379 741c0 -29.333 -10.166 -57.5 -30.499 -84.5s-48.166 -52.167 -83.499 -75.5l-35 35c14 12 25.333 23.5 34 34.5s13 22.167 13 33.5c0 7.33301 -1.33301 13.833 -4 19.5s-5.83398 11 -9.50098 16s-6.83398 10.333 -9.50098 16
s-4 12.5 -4 20.5c0 16 5.83301 29.333 17.5 40s27.167 16 46.5 16s35 -6.83301 47 -20.5s18 -30.5 18 -50.5z" />
    <glyph glyph-name="Lslash" unicode="&#x141;" horiz-adv-x="491" 
d="M101 283l-41 -25l-49 82l90 54v315h124v-240l66 40l49 -82l-115 -70v-244h239v-113h-363v283z" />
    <glyph glyph-name="lslash" unicode="&#x142;" horiz-adv-x="308" 
d="M96 287l-51 -32l-50 82l101 61v351h114v-282l53 32l49 -82l-102 -61v-356h-114v287z" />
    <glyph glyph-name="Nacute" unicode="&#x143;" horiz-adv-x="779" 
d="M82 709l114.001 -0.000976562l293 -392l52 -72.5c17.333 -25 32.666 -48.167 45.999 -69.5c-1.33301 40.667 -2.5 79.834 -3.5 117.501s-1.5 76.5 -1.5 116.5v300h114v-709h-112l-309 412l-43 60l-41 60c1.33301 -33.333 2.33301 -66 3 -98s2 -64.667 4 -98v-336h-116
v709zM293.001 799.999l142 120l88 -74l-175 -103z" />
    <glyph glyph-name="nacute" unicode="&#x144;" horiz-adv-x="538" 
d="M66 438l111.999 0.000976562v-58c12 16 29.167 31.167 51.5 45.5s51.833 21.5 88.5 21.5c27.333 0 50.333 -4 69 -12s34.334 -18 47.001 -30c14.667 -14.667 25.167 -32.334 31.5 -53.001s9.5 -46 9.5 -76v-276h-114v252c0 28.667 -6 52.167 -18 70.5
s-32.667 27.5 -62 27.5c-11.333 0 -23 -2.16699 -35 -6.5s-23 -11 -33 -20s-18.167 -20.333 -24.5 -34s-9.5 -30.167 -9.5 -49.5v-240h-113v438zM335.999 705.001l90 -68l-159 -128l-65 47z" />
    <glyph glyph-name="Ncommaaccent" unicode="&#x145;" horiz-adv-x="779" 
d="M82 709l114.001 -0.000976562l293 -392l52 -72.5c17.333 -25 32.666 -48.167 45.999 -69.5c-1.33301 40.667 -2.5 79.834 -3.5 117.501s-1.5 76.5 -1.5 116.5v300h114v-709h-112l-309 412l-43 60l-41 60c1.33301 -33.333 2.33301 -66 3 -98s2 -64.667 4 -98v-336h-116
v709zM455.001 -102.001c0 -29.333 -10.167 -57.333 -30.5 -84s-48.166 -51.667 -83.499 -75l-35 35c14 12 25.333 23.5 34 34.5s13 22.167 13 33.5c0 7.33301 -1.33301 13.833 -4 19.5s-5.66699 11 -9 16s-6.33301 10.333 -9 16s-4 12.5 -4 20.5
c0 16 5.66699 29.167 17 39.5s26.666 15.5 45.999 15.5s35 -6.83301 47 -20.5s18 -30.5 18 -50.5z" />
    <glyph glyph-name="ncommaaccent" unicode="&#x146;" horiz-adv-x="538" 
d="M66 438l111.999 0.000976562v-58c12 16 29.167 31.167 51.5 45.5s51.833 21.5 88.5 21.5c27.333 0 50.333 -4 69 -12s34.334 -18 47.001 -30c14.667 -14.667 25.167 -32.334 31.5 -53.001s9.5 -46 9.5 -76v-276h-114v252c0 28.667 -6 52.167 -18 70.5
s-32.667 27.5 -62 27.5c-11.333 0 -23 -2.16699 -35 -6.5s-23 -11 -33 -20s-18.167 -20.333 -24.5 -34s-9.5 -30.167 -9.5 -49.5v-240h-113v438zM335.999 -101.999c0 -29.333 -10.3311 -57.333 -30.998 -84s-48.667 -51.667 -84 -75l-34 35c14 12 25.167 23.5 33.5 34.5
s12.5 22.167 12.5 33.5c0 7.33301 -1.33301 13.833 -4 19.5s-5.66699 11 -9 16s-6.33301 10.333 -9 16s-4 12.5 -4 20.5c0 16 5.66699 29.167 17 39.5s26.666 15.5 45.999 15.5s35.166 -6.83301 47.499 -20.5s18.5 -30.5 18.5 -50.5z" />
    <glyph glyph-name="Ncaron" unicode="&#x147;" horiz-adv-x="779" 
d="M82 709l114.001 -0.000976562l293 -392l52 -72.5c17.333 -25 32.666 -48.167 45.999 -69.5c-1.33301 40.667 -2.5 79.834 -3.5 117.501s-1.5 76.5 -1.5 116.5v300h114v-709h-112l-309 412l-43 60l-41 60c1.33301 -33.333 2.33301 -66 3 -98s2 -64.667 4 -98v-336h-116
v709zM265.001 909.999l132 -61l128 61l43 -69l-172 -90l-173 93z" />
    <glyph glyph-name="ncaron" unicode="&#x148;" horiz-adv-x="538" 
d="M66 438l111.999 0.000976562v-58c12 16 29.167 31.167 51.5 45.5s51.833 21.5 88.5 21.5c27.333 0 50.333 -4 69 -12s34.334 -18 47.001 -30c14.667 -14.667 25.167 -32.334 31.5 -53.001s9.5 -46 9.5 -76v-276h-114v252c0 28.667 -6 52.167 -18 70.5
s-32.667 27.5 -62 27.5c-11.333 0 -23 -2.16699 -35 -6.5s-23 -11 -33 -20s-18.167 -20.333 -24.5 -34s-9.5 -30.167 -9.5 -49.5v-240h-113v438zM158.999 701.001l109 -83l110 84l55 -64l-168 -131l-159 129z" />
    <glyph glyph-name="Omacron" unicode="&#x14c;" horiz-adv-x="826" 
d="M412 -16c-52 0 -100.5 9.5 -145.5 28.5s-84.333 45.167 -118 78.5s-60.167 72.5 -79.5 117.5s-29 93.167 -29 144.5c0 50.667 9.83301 98.5 29.5 143.5s46.5 84.333 80.5 118s73.667 60.334 119 80.001s93.666 29.5 144.999 29.5c52 0 100.667 -9.5 146 -28.5
s84.833 -45.167 118.5 -78.5s60.167 -72.5 79.5 -117.5s29 -93.5 29 -145.5c0 -51.333 -10 -99.333 -30 -144s-47 -83.834 -81 -117.501s-73.667 -60.167 -119 -79.5s-93.666 -29 -144.999 -29zM413 102c35.333 0 68 6.50098 98 19.501s56 30.833 78 53.5
s39.167 49.334 51.5 80.001s18.5 63.667 18.5 99s-6 68.5 -18 99.5s-29 58 -51 81s-48 41 -78 54s-63 19.5 -99 19.5c-35.333 0 -68 -6.66699 -98 -20s-56 -31.5 -78 -54.5s-39.167 -49.833 -51.5 -80.5s-18.5 -63.334 -18.5 -98.001s6.33301 -67.334 19 -98.001
s30 -57.5 52 -80.5s48 -41.167 78 -54.5s62.333 -20 97 -20zM271 874.001h285v-94h-285v94z" />
    <glyph glyph-name="omacron" unicode="&#x14d;" horiz-adv-x="561" 
d="M276 -13c-33.333 0 -64.3311 5.66602 -92.998 16.999s-53.5 27.333 -74.5 48s-37.5 45.167 -49.5 73.5s-18 59.166 -18 92.499c0 32 6 62 18 90s28.667 52.5 50 73.5s46.666 37.667 75.999 50s61.333 18.5 96 18.5c34 0 65.667 -5.83301 95 -17.5
s54.666 -27.667 75.999 -48s38 -44.666 50 -72.999s18 -59.166 18 -92.499c0 -30.667 -5.83301 -60 -17.5 -88s-28.167 -52.667 -49.5 -74s-47 -38.333 -77 -51s-63.333 -19 -100 -19zM281.002 87.999c18 0 34.4971 3.50098 49.4971 10.501s28 16.5 39 28.5
s19.5 25.833 25.5 41.5s9 32.167 9 49.5c0 18.667 -3.16699 36 -9.5 52s-15.166 29.833 -26.499 41.5s-24.666 20.834 -39.999 27.501s-31.666 10 -48.999 10c-18 0 -34.5 -3.5 -49.5 -10.5s-28 -16.333 -39 -28s-19.5 -25.334 -25.5 -41.001s-9 -32.5 -9 -50.5
c0 -18.667 3.33301 -36 10 -52s15.667 -29.833 27 -41.5s24.5 -20.834 39.5 -27.501s31.167 -10 48.5 -10zM136.999 650h285v-94h-285v94z" />
    <glyph glyph-name="Ohungarumlaut" unicode="&#x150;" horiz-adv-x="826" 
d="M412 -16c-52 0 -100.5 9.5 -145.5 28.5s-84.333 45.167 -118 78.5s-60.167 72.5 -79.5 117.5s-29 93.167 -29 144.5c0 50.667 9.83301 98.5 29.5 143.5s46.5 84.333 80.5 118s73.667 60.334 119 80.001s93.666 29.5 144.999 29.5c52 0 100.667 -9.5 146 -28.5
s84.833 -45.167 118.5 -78.5s60.167 -72.5 79.5 -117.5s29 -93.5 29 -145.5c0 -51.333 -10 -99.333 -30 -144s-47 -83.834 -81 -117.501s-73.667 -60.167 -119 -79.5s-93.666 -29 -144.999 -29zM413 102c35.333 0 68 6.50098 98 19.501s56 30.833 78 53.5
s39.167 49.334 51.5 80.001s18.5 63.667 18.5 99s-6 68.5 -18 99.5s-29 58 -51 81s-48 41 -78 54s-63 19.5 -99 19.5c-35.333 0 -68 -6.66699 -98 -20s-56 -31.5 -78 -54.5s-39.167 -49.833 -51.5 -80.5s-18.5 -63.334 -18.5 -98.001s6.33301 -67.334 19 -98.001
s30 -57.5 52 -80.5s48 -41.167 78 -54.5s62.333 -20 97 -20zM359 950.001l88 -67l-126 -142l-63 46zM568 947.001l89 -67l-143 -141l-63 46z" />
    <glyph glyph-name="ohungarumlaut" unicode="&#x151;" horiz-adv-x="561" 
d="M276 -13c-33.333 0 -64.3311 5.66602 -92.998 16.999s-53.5 27.333 -74.5 48s-37.5 45.167 -49.5 73.5s-18 59.166 -18 92.499c0 32 6 62 18 90s28.667 52.5 50 73.5s46.666 37.667 75.999 50s61.333 18.5 96 18.5c34 0 65.667 -5.83301 95 -17.5
s54.666 -27.667 75.999 -48s38 -44.666 50 -72.999s18 -59.166 18 -92.499c0 -30.667 -5.83301 -60 -17.5 -88s-28.167 -52.667 -49.5 -74s-47 -38.333 -77 -51s-63.333 -19 -100 -19zM281.002 87.999c18 0 34.4971 3.50098 49.4971 10.501s28 16.5 39 28.5
s19.5 25.833 25.5 41.5s9 32.167 9 49.5c0 18.667 -3.16699 36 -9.5 52s-15.166 29.833 -26.499 41.5s-24.666 20.834 -39.999 27.501s-31.666 10 -48.999 10c-18 0 -34.5 -3.5 -49.5 -10.5s-28 -16.333 -39 -28s-19.5 -25.334 -25.5 -41.001s-9 -32.5 -9 -50.5
c0 -18.667 3.33301 -36 10 -52s15.667 -29.833 27 -41.5s24.5 -20.834 39.5 -27.501s31.167 -10 48.5 -10zM221.999 714l88 -67l-126 -142l-63 46zM430.999 711l89 -67l-143 -141l-63 46z" />
    <glyph glyph-name="OE" unicode="&#x152;" horiz-adv-x="1122" 
d="M652 85c-32.667 -31.333 -69.334 -55.834 -110.001 -73.501s-84 -26.5 -130 -26.5c-51.333 0 -99.666 9.5 -144.999 28.5s-84.833 45 -118.5 78s-60.167 71.833 -79.5 116.5s-29 93 -29 145c0 50 9.83301 97.5 29.5 142.5s46.334 84.333 80.001 118
s73.167 60.334 118.5 80.001s93.666 29.5 144.999 29.5c50.667 0 95.167 -8.33301 133.5 -25s73.5 -40 105.5 -70v81h383v-112h-262v-177h254v-111h-254v-196h264v-113h-385v85zM413 102.999c35.333 0 68 6.49707 98 19.4971s56 30.667 78 53s39.167 48.833 51.5 79.5
s18.5 63.667 18.5 99c0 36.667 -6.33301 70.334 -19 101.001s-30 57.334 -52 80.001s-48 40.334 -78 53.001s-62.333 19 -97 19c-33.333 0 -65 -6.33301 -95 -19s-56.167 -30.167 -78.5 -52.5s-40 -48.833 -53 -79.5s-19.5 -64 -19.5 -100c0 -35.333 6.5 -68.5 19.5 -99.5
s30.667 -57.833 53 -80.5s48.333 -40.5 78 -53.5s61.5 -19.5 95.5 -19.5z" />
    <glyph glyph-name="oe" unicode="&#x153;" horiz-adv-x="883" 
d="M835 85c-25.333 -32.667 -54.499 -57.1641 -87.499 -73.4971s-72.833 -24.5 -119.5 -24.5c-34.667 0 -66.834 6.66699 -96.501 20s-54.834 34.666 -75.501 63.999c-20.667 -26.667 -46.167 -47.334 -76.5 -62.001s-64.5 -22 -102.5 -22
c-33.333 0 -64.166 5.66699 -92.499 17s-53.166 27.333 -74.499 48s-38 45.167 -50 73.5s-18 59.166 -18 92.499c0 32 6 62 18 90s28.833 52.5 50.5 73.5s47.167 37.667 76.5 50s61.333 18.5 96 18.5c36 0 69 -6.83301 99 -20.5s55.667 -34.5 77 -62.5
c18 27.333 42 48.166 72 62.499s62 21.5 96 21.5c32 0 61.167 -5.16699 87.5 -15.5s49.166 -25.166 68.499 -44.499s34.333 -43 45 -71s16 -59.333 16 -94c0 -6 -0.166992 -12 -0.5 -18s-0.5 -12.333 -0.5 -19h-325c2 -32 14.167 -58.833 36.5 -80.5s50.5 -32.5 84.5 -32.5
c25.333 0 48 5.5 68 16.5s37.667 26.167 53 45.5zM728.001 265.003c0 13.333 -2.33105 26 -6.99805 38s-11.5 22.667 -20.5 32s-19.833 16.833 -32.5 22.5s-27 8.5 -43 8.5c-30.667 0 -55.334 -10 -74.001 -30s-29.334 -43.667 -32.001 -71h209zM283.003 88.0029
c18 0 34.3301 3.50098 48.9971 10.501s27.5 16.5 38.5 28.5s19.5 25.833 25.5 41.5s9 32.167 9 49.5c0 18.667 -3.16699 36 -9.5 52s-15.166 29.833 -26.499 41.5s-24.666 20.834 -39.999 27.501s-31.666 10 -48.999 10c-18 0 -34.5 -3.5 -49.5 -10.5
s-27.833 -16.333 -38.5 -28s-19 -25.334 -25 -41.001s-9 -32.5 -9 -50.5c0 -18.667 3.33301 -36 10 -52s15.667 -29.833 27 -41.5s24.5 -20.834 39.5 -27.501s31.167 -10 48.5 -10z" />
    <glyph glyph-name="Racute" unicode="&#x154;" horiz-adv-x="579" 
d="M82 709l199.001 0.000976562c41.333 0 78.166 -4.83301 110.499 -14.5s58.833 -24.834 79.5 -45.501c19.333 -20 33.166 -41.333 41.499 -64s12.5 -48 12.5 -76c0 -26 -4.16699 -50 -12.5 -72s-20.166 -41.667 -35.499 -59s-34 -31.5 -56 -42.5s-46.333 -18.5 -73 -22.5
l216 -313h-148l-199 308h-12v-308h-123v709zM260.001 398.001c28 0 50.999 2.50098 68.999 7.50098s32 12.833 42 23.5c10 10 17.167 21 21.5 33s6.5 25.667 6.5 41c0 13.333 -1.83301 26.166 -5.5 38.499s-10.834 23.833 -21.501 34.5
c-11.333 11.333 -25.666 19.333 -42.999 24s-37.666 7 -60.999 7h-63v-209h55zM193 800.002l142 120l88 -74l-175 -103z" />
    <glyph glyph-name="racute" unicode="&#x155;" horiz-adv-x="347" 
d="M66 438l111.999 -0.000976562v-69c12.667 23.333 29 42.333 49 57s45.667 22 77 22c5.33301 0 11 -0.166992 17 -0.5s11 -1.16602 15 -2.49902l-4 -117c-17.333 10 -38.666 15 -63.999 15c-26 0 -47.167 -11 -63.5 -33s-24.5 -55 -24.5 -99v-211h-114v438z
M261.999 704.999l90 -68l-159 -128l-65 47z" />
    <glyph glyph-name="Rcommaaccent" unicode="&#x156;" horiz-adv-x="579" 
d="M82 709l199.001 0.000976562c41.333 0 78.166 -4.83301 110.499 -14.5s58.833 -24.834 79.5 -45.501c19.333 -20 33.166 -41.333 41.499 -64s12.5 -48 12.5 -76c0 -26 -4.16699 -50 -12.5 -72s-20.166 -41.667 -35.499 -59s-34 -31.5 -56 -42.5s-46.333 -18.5 -73 -22.5
l216 -313h-148l-199 308h-12v-308h-123v709zM260.001 398.001c28 0 50.999 2.50098 68.999 7.50098s32 12.833 42 23.5c10 10 17.167 21 21.5 33s6.5 25.667 6.5 41c0 13.333 -1.83301 26.166 -5.5 38.499s-10.834 23.833 -21.501 34.5
c-11.333 11.333 -25.666 19.333 -42.999 24s-37.666 7 -60.999 7h-63v-209h55zM363 -101.998c0 -29.333 -10.167 -57.333 -30.5 -84s-48.166 -51.667 -83.499 -75l-35 35c14 12 25.333 23.5 34 34.5s13 22.167 13 33.5c0 7.33301 -1.33301 13.833 -4 19.5s-5.66699 11 -9 16
s-6.33301 10.333 -9 16s-4 12.5 -4 20.5c0 16 5.66699 29.167 17 39.5s26.666 15.5 45.999 15.5s35 -6.83301 47 -20.5s18 -30.5 18 -50.5z" />
    <glyph glyph-name="rcommaaccent" unicode="&#x157;" horiz-adv-x="347" 
d="M66 438l111.999 -0.000976562v-69c12.667 23.333 29 42.333 49 57s45.667 22 77 22c5.33301 0 11 -0.166992 17 -0.5s11 -1.16602 15 -2.49902l-4 -117c-17.333 10 -38.666 15 -63.999 15c-26 0 -47.167 -11 -63.5 -33s-24.5 -55 -24.5 -99v-211h-114v438z
M208.999 -102.001c0 -29.333 -10.3311 -57.333 -30.998 -84s-48.667 -51.667 -84 -75l-34 35c14 12 25.167 23.5 33.5 34.5s12.5 22.167 12.5 33.5c0 7.33301 -1.33301 13.833 -4 19.5s-5.66699 11 -9 16s-6.33301 10.333 -9 16s-4 12.5 -4 20.5
c0 16 5.66699 29.167 17 39.5s26.666 15.5 45.999 15.5s35.166 -6.83301 47.499 -20.5s18.5 -30.5 18.5 -50.5z" />
    <glyph glyph-name="Rcaron" unicode="&#x158;" horiz-adv-x="579" 
d="M82 709l199.001 0.000976562c41.333 0 78.166 -4.83301 110.499 -14.5s58.833 -24.834 79.5 -45.501c19.333 -20 33.166 -41.333 41.499 -64s12.5 -48 12.5 -76c0 -26 -4.16699 -50 -12.5 -72s-20.166 -41.667 -35.499 -59s-34 -31.5 -56 -42.5s-46.333 -18.5 -73 -22.5
l216 -313h-148l-199 308h-12v-308h-123v709zM260.001 398.001c28 0 50.999 2.50098 68.999 7.50098s32 12.833 42 23.5c10 10 17.167 21 21.5 33s6.5 25.667 6.5 41c0 13.333 -1.83301 26.166 -5.5 38.499s-10.834 23.833 -21.501 34.5
c-11.333 11.333 -25.666 19.333 -42.999 24s-37.666 7 -60.999 7h-63v-209h55zM163 910.002l132 -61l128 61l43 -69l-172 -90l-173 93z" />
    <glyph glyph-name="rcaron" unicode="&#x159;" horiz-adv-x="347" 
d="M66 438l111.999 -0.000976562v-69c12.667 23.333 29 42.333 49 57s45.667 22 77 22c5.33301 0 11 -0.166992 17 -0.5s11 -1.16602 15 -2.49902l-4 -117c-17.333 10 -38.666 15 -63.999 15c-26 0 -47.167 -11 -63.5 -33s-24.5 -55 -24.5 -99v-211h-114v438z
M80.999 700.999l109 -83l110 84l55 -64l-168 -131l-159 129z" />
    <glyph glyph-name="Sacute" unicode="&#x15a;" horiz-adv-x="531" 
d="M120 182c6.66699 -12 14.5068 -23.3311 23.5068 -33.998s19.167 -20.334 30.5 -29.001s23.666 -15.5 36.999 -20.5s28 -7.5 44 -7.5c30.667 0 55.167 9.33301 73.5 28s27.5 42 27.5 70c0 24 -7.33301 43.667 -22 59s-32.834 29.166 -54.501 41.499
s-45.334 24.5 -71.001 36.5s-49.334 26.333 -71.001 43s-39.834 37.334 -54.501 62.001s-22 55.667 -22 93c0 28.667 5.66699 55.167 17 79.5s26.666 45.5 45.999 63.5s42 32 68 42s53.667 15 83 15c42.667 0 81 -9.16699 115 -27.5s61.667 -43.833 83 -76.5l-84 -73
c-12.667 22.667 -28.667 40.5 -48 53.5s-40.666 19.5 -63.999 19.5c-27.333 0 -49.333 -8.5 -66 -25.5s-25 -38.5 -25 -64.5c0 -23.333 7.33301 -42.333 22 -57s33 -28 55 -40s45.833 -23.833 71.5 -35.5s49.5 -25.834 71.5 -42.501s40.333 -37.167 55 -61.5
s22 -54.833 22 -91.5c0 -32 -6 -61.333 -18 -88s-28.333 -49.5 -49 -68.5s-45.334 -33.833 -74.001 -44.5s-59.334 -16 -92.001 -16c-50 0 -93.333 11 -130 33s-66 51 -88 87zM168.007 800.002l142 120l88 -74l-175 -103z" />
    <glyph glyph-name="sacute" unicode="&#x15b;" horiz-adv-x="408" 
d="M128 125c7.33301 -14 17.168 -25.5 29.501 -34.5s26.833 -13.5 43.5 -13.5c15.333 0 28.166 3.33301 38.499 10s15.5 17 15.5 31c0 12.667 -5 22.667 -15 30s-22.667 14 -38 20l-49 18.5c-17.333 6.33301 -33.666 14.666 -48.999 24.999s-28 23.5 -38 39.5
s-15 36.667 -15 62c0 18.667 3.66699 36.167 11 52.5s17.833 30.833 31.5 43.5s30.167 22.667 49.5 30s41.333 11 66 11c36.667 0 67.5 -7 92.5 -21s44.833 -36 59.5 -66l-91 -41c-7.33301 14.667 -16.666 25.334 -27.999 32.001s-23.666 10 -36.999 10
c-12.667 0 -23.667 -3.66699 -33 -11s-14 -17.333 -14 -30c0 -13.333 5.16699 -24 15.5 -32s23.166 -15 38.499 -21l49.5 -18.5c17.667 -6.33301 34.167 -14.5 49.5 -24.5s28.166 -22.833 38.499 -38.5s15.5 -36.167 15.5 -61.5c0 -20 -4 -38.5 -12 -55.5
s-19.333 -31.667 -34 -44s-32.334 -21.833 -53.001 -28.5s-43.334 -10 -68.001 -10c-42 0 -75.667 7.16699 -101 21.5s-45.666 36.5 -60.999 66.5zM268.002 705l90 -68l-159 -128l-65 47z" />
    <glyph glyph-name="Scedilla" unicode="&#x15e;" horiz-adv-x="531" 
d="M120 182c6.66699 -12 14.5068 -23.3311 23.5068 -33.998s19.167 -20.334 30.5 -29.001s23.666 -15.5 36.999 -20.5s28 -7.5 44 -7.5c30.667 0 55.167 9.33301 73.5 28s27.5 42 27.5 70c0 24 -7.33301 43.667 -22 59s-32.834 29.166 -54.501 41.499
s-45.334 24.5 -71.001 36.5s-49.334 26.333 -71.001 43s-39.834 37.334 -54.501 62.001s-22 55.667 -22 93c0 28.667 5.66699 55.167 17 79.5s26.666 45.5 45.999 63.5s42 32 68 42s53.667 15 83 15c42.667 0 81 -9.16699 115 -27.5s61.667 -43.833 83 -76.5l-84 -73
c-12.667 22.667 -28.667 40.5 -48 53.5s-40.666 19.5 -63.999 19.5c-27.333 0 -49.333 -8.5 -66 -25.5s-25 -38.5 -25 -64.5c0 -23.333 7.33301 -42.333 22 -57s33 -28 55 -40s45.833 -23.833 71.5 -35.5s49.5 -25.834 71.5 -42.501s40.333 -37.167 55 -61.5
s22 -54.833 22 -91.5c0 -32 -6 -61.333 -18 -88s-28.333 -49.5 -49 -68.5s-45.334 -33.833 -74.001 -44.5s-59.334 -16 -92.001 -16c-50 0 -93.333 11 -130 33s-66 51 -88 87zM265.007 -34.998l88 -52l-122 -135l-67 53z" />
    <glyph glyph-name="scedilla" unicode="&#x15f;" horiz-adv-x="408" 
d="M128 125c7.33301 -14 17.168 -25.5 29.501 -34.5s26.833 -13.5 43.5 -13.5c15.333 0 28.166 3.33301 38.499 10s15.5 17 15.5 31c0 12.667 -5 22.667 -15 30s-22.667 14 -38 20l-49 18.5c-17.333 6.33301 -33.666 14.666 -48.999 24.999s-28 23.5 -38 39.5
s-15 36.667 -15 62c0 18.667 3.66699 36.167 11 52.5s17.833 30.833 31.5 43.5s30.167 22.667 49.5 30s41.333 11 66 11c36.667 0 67.5 -7 92.5 -21s44.833 -36 59.5 -66l-91 -41c-7.33301 14.667 -16.666 25.334 -27.999 32.001s-23.666 10 -36.999 10
c-12.667 0 -23.667 -3.66699 -33 -11s-14 -17.333 -14 -30c0 -13.333 5.16699 -24 15.5 -32s23.166 -15 38.499 -21l49.5 -18.5c17.667 -6.33301 34.167 -14.5 49.5 -24.5s28.166 -22.833 38.499 -38.5s15.5 -36.167 15.5 -61.5c0 -20 -4 -38.5 -12 -55.5
s-19.333 -31.667 -34 -44s-32.334 -21.833 -53.001 -28.5s-43.334 -10 -68.001 -10c-42 0 -75.667 7.16699 -101 21.5s-45.666 36.5 -60.999 66.5zM205.002 -35l88 -52l-122 -135l-67 53z" />
    <glyph glyph-name="Scaron" unicode="&#x160;" horiz-adv-x="531" 
d="M120 182c6.66699 -12 14.5068 -23.3311 23.5068 -33.998s19.167 -20.334 30.5 -29.001s23.666 -15.5 36.999 -20.5s28 -7.5 44 -7.5c30.667 0 55.167 9.33301 73.5 28s27.5 42 27.5 70c0 24 -7.33301 43.667 -22 59s-32.834 29.166 -54.501 41.499
s-45.334 24.5 -71.001 36.5s-49.334 26.333 -71.001 43s-39.834 37.334 -54.501 62.001s-22 55.667 -22 93c0 28.667 5.66699 55.167 17 79.5s26.666 45.5 45.999 63.5s42 32 68 42s53.667 15 83 15c42.667 0 81 -9.16699 115 -27.5s61.667 -43.833 83 -76.5l-84 -73
c-12.667 22.667 -28.667 40.5 -48 53.5s-40.666 19.5 -63.999 19.5c-27.333 0 -49.333 -8.5 -66 -25.5s-25 -38.5 -25 -64.5c0 -23.333 7.33301 -42.333 22 -57s33 -28 55 -40s45.833 -23.833 71.5 -35.5s49.5 -25.834 71.5 -42.501s40.333 -37.167 55 -61.5
s22 -54.833 22 -91.5c0 -32 -6 -61.333 -18 -88s-28.333 -49.5 -49 -68.5s-45.334 -33.833 -74.001 -44.5s-59.334 -16 -92.001 -16c-50 0 -93.333 11 -130 33s-66 51 -88 87zM141.007 910.002l132 -61l128 61l43 -69l-172 -90l-173 93z" />
    <glyph glyph-name="scaron" unicode="&#x161;" horiz-adv-x="408" 
d="M128 125c7.33301 -14 17.168 -25.5 29.501 -34.5s26.833 -13.5 43.5 -13.5c15.333 0 28.166 3.33301 38.499 10s15.5 17 15.5 31c0 12.667 -5 22.667 -15 30s-22.667 14 -38 20l-49 18.5c-17.333 6.33301 -33.666 14.666 -48.999 24.999s-28 23.5 -38 39.5
s-15 36.667 -15 62c0 18.667 3.66699 36.167 11 52.5s17.833 30.833 31.5 43.5s30.167 22.667 49.5 30s41.333 11 66 11c36.667 0 67.5 -7 92.5 -21s44.833 -36 59.5 -66l-91 -41c-7.33301 14.667 -16.666 25.334 -27.999 32.001s-23.666 10 -36.999 10
c-12.667 0 -23.667 -3.66699 -33 -11s-14 -17.333 -14 -30c0 -13.333 5.16699 -24 15.5 -32s23.166 -15 38.499 -21l49.5 -18.5c17.667 -6.33301 34.167 -14.5 49.5 -24.5s28.166 -22.833 38.499 -38.5s15.5 -36.167 15.5 -61.5c0 -20 -4 -38.5 -12 -55.5
s-19.333 -31.667 -34 -44s-32.334 -21.833 -53.001 -28.5s-43.334 -10 -68.001 -10c-42 0 -75.667 7.16699 -101 21.5s-45.666 36.5 -60.999 66.5zM95.002 701l109 -83l110 84l55 -64l-168 -131l-159 129z" />
    <glyph glyph-name="Tcedilla" unicode="&#x162;" horiz-adv-x="470" 
d="M174 597h-163v112h449v-111h-163v-598h-123v597zM235 -35l88 -52l-122 -135l-67 53z" />
    <glyph glyph-name="tcedilla" unicode="&#x163;" horiz-adv-x="282" 
d="M79 349h-64v89h64v159h114v-159h85v-89h-85v-349h-114v349zM140 -35l88 -52l-122 -135l-67 53z" />
    <glyph glyph-name="Tcaron" unicode="&#x164;" horiz-adv-x="470" 
d="M174 597h-163v112h449v-111h-163v-598h-123v597zM104 910l132 -61l128 61l43 -69l-172 -90l-173 93z" />
    <glyph glyph-name="tcaron" unicode="&#x165;" horiz-adv-x="282" 
d="M79 349h-64v89h64v159h114v-159h85v-89h-85v-349h-114v349zM393 684c0 -29.333 -10.166 -57.5 -30.499 -84.5s-48.166 -52.167 -83.499 -75.5l-35 35c14 12 25.333 23.5 34 34.5s13 22.167 13 33.5c0 7.33301 -1.33301 13.833 -4 19.5s-5.83398 11 -9.50098 16
s-6.83398 10.333 -9.50098 16s-4 12.5 -4 20.5c0 16 5.83301 29.333 17.5 40s27.167 16 46.5 16s35 -6.83301 47 -20.5s18 -30.5 18 -50.5z" />
    <glyph glyph-name="Umacron" unicode="&#x16a;" horiz-adv-x="713" 
d="M80 709l124 -0.00195312v-435c0 -33.333 3 -60.666 9 -81.999s17 -40 33 -56c12.667 -12.667 28.167 -22.667 46.5 -30s40.166 -11 65.499 -11c24 0 45.167 3.5 63.5 10.5s33.833 16.5 46.5 28.5c14 14 24.833 31.333 32.5 52s11.5 47.334 11.5 80.001v443h121v-431
c0 -50 -6.5 -92.833 -19.5 -128.5s-31.833 -66.167 -56.5 -91.5c-25.333 -25.333 -55.5 -43.5 -90.5 -54.5s-72.167 -16.5 -111.5 -16.5c-42 0 -80.5 6 -115.5 18s-65.167 30.667 -90.5 56c-21.333 20.667 -38.166 47.167 -50.499 79.5s-18.5 73.5 -18.5 123.5v445z
M214 873.998h285v-94h-285v94z" />
    <glyph glyph-name="umacron" unicode="&#x16b;" horiz-adv-x="540" 
d="M63 438l113.999 -0.00195312v-229c0 -17.333 1.16699 -33.5 3.5 -48.5s7 -28 14 -39s16.667 -19.833 29 -26.5s28.5 -10 48.5 -10s35.833 3.5 47.5 10.5s20.834 16.333 27.501 28s11 24.667 13 39s3 28.833 3 43.5v232h114v-229c0 -36 -3.5 -68 -10.5 -96
s-20.5 -52 -40.5 -72c-19.333 -19.333 -42.333 -33.166 -69 -41.499s-56 -12.5 -88 -12.5c-66.667 0 -119 19 -157 57c-17.333 17.333 -29.833 38.833 -37.5 64.5s-11.5 56.834 -11.5 93.501v236zM126.999 649.998h285v-94h-285v94z" />
    <glyph glyph-name="Uring" unicode="&#x16e;" horiz-adv-x="713" 
d="M80 709l124 -0.00195312v-435c0 -33.333 3 -60.666 9 -81.999s17 -40 33 -56c12.667 -12.667 28.167 -22.667 46.5 -30s40.166 -11 65.499 -11c24 0 45.167 3.5 63.5 10.5s33.833 16.5 46.5 28.5c14 14 24.833 31.333 32.5 52s11.5 47.334 11.5 80.001v443h121v-431
c0 -50 -6.5 -92.833 -19.5 -128.5s-31.833 -66.167 -56.5 -91.5c-25.333 -25.333 -55.5 -43.5 -90.5 -54.5s-72.167 -16.5 -111.5 -16.5c-42 0 -80.5 6 -115.5 18s-65.167 30.667 -90.5 56c-21.333 20.667 -38.166 47.167 -50.499 79.5s-18.5 73.5 -18.5 123.5v445z
M357 716.998c-15.333 0 -29.665 2.66699 -42.998 8s-25 12.833 -35 22.5s-17.833 21 -23.5 34s-8.5 27.167 -8.5 42.5s2.83301 29.5 8.5 42.5s13.5 24.333 23.5 34s21.667 17.334 35 23.001s27.666 8.5 42.999 8.5s29.666 -2.83301 42.999 -8.5s25 -13.334 35 -23.001
s17.833 -21 23.5 -34s8.5 -27.167 8.5 -42.5s-3 -29.5 -9 -42.5s-14 -24.167 -24 -33.5s-21.667 -16.833 -35 -22.5s-27.333 -8.5 -42 -8.5zM357.001 776.998c13.333 0 24.5 4.5 33.5 13.5s13.5 20.167 13.5 33.5s-4.5 24.666 -13.5 33.999s-20.167 14 -33.5 14
s-24.5 -4.66699 -33.5 -14s-13.5 -20.666 -13.5 -33.999s4.5 -24.5 13.5 -33.5s20.167 -13.5 33.5 -13.5z" />
    <glyph glyph-name="uring" unicode="&#x16f;" horiz-adv-x="540" 
d="M63 438l113.999 -0.00195312v-229c0 -17.333 1.16699 -33.5 3.5 -48.5s7 -28 14 -39s16.667 -19.833 29 -26.5s28.5 -10 48.5 -10s35.833 3.5 47.5 10.5s20.834 16.333 27.501 28s11 24.667 13 39s3 28.833 3 43.5v232h114v-229c0 -36 -3.5 -68 -10.5 -96
s-20.5 -52 -40.5 -72c-19.333 -19.333 -42.333 -33.166 -69 -41.499s-56 -12.5 -88 -12.5c-66.667 0 -119 19 -157 57c-17.333 17.333 -29.833 38.833 -37.5 64.5s-11.5 56.834 -11.5 93.501v236zM268.999 506.998c-15.333 0 -29.665 2.66699 -42.998 8s-25 12.833 -35 22.5
s-17.833 21 -23.5 34s-8.5 27.167 -8.5 42.5s2.83301 29.5 8.5 42.5s13.5 24.333 23.5 34s21.667 17.334 35 23.001s27.666 8.5 42.999 8.5s29.666 -2.83301 42.999 -8.5s25 -13.334 35 -23.001s17.833 -21 23.5 -34s8.5 -27.167 8.5 -42.5s-3 -29.5 -9 -42.5
s-14 -24.167 -24 -33.5s-21.667 -16.833 -35 -22.5s-27.333 -8.5 -42 -8.5zM269 566.998c13.333 0 24.5 4.5 33.5 13.5s13.5 20.167 13.5 33.5s-4.5 24.666 -13.5 33.999s-20.167 14 -33.5 14s-24.5 -4.66699 -33.5 -14s-13.5 -20.666 -13.5 -33.999s4.5 -24.5 13.5 -33.5
s20.167 -13.5 33.5 -13.5z" />
    <glyph glyph-name="Uhungarumlaut" unicode="&#x170;" horiz-adv-x="713" 
d="M80 709l124 -0.00195312v-435c0 -33.333 3 -60.666 9 -81.999s17 -40 33 -56c12.667 -12.667 28.167 -22.667 46.5 -30s40.166 -11 65.499 -11c24 0 45.167 3.5 63.5 10.5s33.833 16.5 46.5 28.5c14 14 24.833 31.333 32.5 52s11.5 47.334 11.5 80.001v443h121v-431
c0 -50 -6.5 -92.833 -19.5 -128.5s-31.833 -66.167 -56.5 -91.5c-25.333 -25.333 -55.5 -43.5 -90.5 -54.5s-72.167 -16.5 -111.5 -16.5c-42 0 -80.5 6 -115.5 18s-65.167 30.667 -90.5 56c-21.333 20.667 -38.166 47.167 -50.499 79.5s-18.5 73.5 -18.5 123.5v445z
M303 949.998l88 -67l-126 -142l-63 46zM512 946.998l89 -67l-143 -141l-63 46z" />
    <glyph glyph-name="uhungarumlaut" unicode="&#x171;" horiz-adv-x="540" 
d="M63 438l113.999 -0.00195312v-229c0 -17.333 1.16699 -33.5 3.5 -48.5s7 -28 14 -39s16.667 -19.833 29 -26.5s28.5 -10 48.5 -10s35.833 3.5 47.5 10.5s20.834 16.333 27.501 28s11 24.667 13 39s3 28.833 3 43.5v232h114v-229c0 -36 -3.5 -68 -10.5 -96
s-20.5 -52 -40.5 -72c-19.333 -19.333 -42.333 -33.166 -69 -41.499s-56 -12.5 -88 -12.5c-66.667 0 -119 19 -157 57c-17.333 17.333 -29.833 38.833 -37.5 64.5s-11.5 56.834 -11.5 93.501v236zM216.999 713.998l88 -67l-126 -142l-63 46zM425.999 710.998l89 -67
l-143 -141l-63 46z" />
    <glyph glyph-name="Uogonek" unicode="&#x172;" horiz-adv-x="713" 
d="M633 278c0 -50 -6.83105 -92.8359 -20.498 -128.503s-31.834 -66.167 -54.501 -91.5c-7.33301 -8 -15.333 -17.833 -24 -29.5s-16.834 -24 -24.501 -37s-14.167 -25.833 -19.5 -38.5s-8 -24 -8 -34c0 -35.333 20.667 -53 62 -53c5.33301 0 11.166 0.333008 17.499 1
s12.833 1.66699 19.5 3l8 -74c-27.333 -8 -53.666 -12 -78.999 -12c-18.667 0 -36.167 2.16699 -52.5 6.5s-30.5 10.833 -42.5 19.5s-21.333 19.334 -28 32.001s-10 27.667 -10 45c0 32.667 20 73 60 121c-14 -8 -27.5 -13.5 -40.5 -16.5s-26.833 -4.5 -41.5 -4.5
c-42 0 -80.5 6 -115.5 18s-65.167 30.667 -90.5 56c-21.333 20.667 -38.166 47.167 -50.499 79.5s-18.5 73.5 -18.5 123.5v445h124v-435c0 -33.333 3 -60.666 9 -81.999s17 -40 33 -56c12.667 -12.667 28.167 -22.667 46.5 -30s40.166 -11 65.499 -11
c24 0 45.167 3.5 63.5 10.5s33.833 16.5 46.5 28.5c14 14 24.833 31.333 32.5 52s11.5 47.334 11.5 80.001v443h121v-431v0z" />
    <glyph glyph-name="uogonek" unicode="&#x173;" horiz-adv-x="540" 
d="M477 209c0 -36 -3.66992 -67.667 -11.0029 -95s-20.666 -51.666 -39.999 -72.999c-8 -8.66699 -16 -18.334 -24 -29.001s-15 -21.5 -21 -32.5s-11 -21.833 -15 -32.5s-6 -20 -6 -28c0 -35.333 20.667 -53 62 -53c5.33301 0 11.166 0.333008 17.499 1
s12.833 1.66699 19.5 3l8 -74c-27.333 -8 -53.666 -12 -78.999 -12c-18.667 0 -36.167 2.16699 -52.5 6.5s-30.5 10.833 -42.5 19.5s-21.333 19.334 -28 32.001s-10 27.667 -10 45c0 15.333 5 33.166 15 53.499s24 41.166 42 62.499c-8 -4 -16.167 -7.33301 -24.5 -10
s-18.166 -4 -29.499 -4c-28 0 -54.5 4.33301 -79.5 13s-47.167 22.667 -66.5 42c-17.333 17.333 -29.833 38.833 -37.5 64.5s-11.5 56.834 -11.5 93.501v236h114v-229c0 -17.333 1.16699 -33.5 3.5 -48.5s7 -28 14 -39s16.667 -19.833 29 -26.5s28.5 -10 48.5 -10
s35.833 3.5 47.5 10.5s20.834 16.333 27.501 28s11 24.667 13 39s3 28.833 3 43.5v232h114v-229v0z" />
    <glyph glyph-name="Ydieresis" unicode="&#x178;" horiz-adv-x="604" 
d="M239 317l-230 392h142l154 -288l154 288h137l-233 -388v-321h-124v317zM400 757c-19.333 0 -35.833 6.83301 -49.5 20.5s-20.5 30.167 -20.5 49.5s6.83301 35.666 20.5 48.999s30.167 20 49.5 20s35.666 -6.66699 48.999 -20s20 -29.666 20 -48.999
s-6.66699 -35.833 -20 -49.5s-29.666 -20.5 -48.999 -20.5zM199 757c-19.333 0 -35.666 6.83301 -48.999 20.5s-20 30.167 -20 49.5s6.66699 35.666 20 48.999s29.666 20 48.999 20s35.833 -6.66699 49.5 -20s20.5 -29.666 20.5 -48.999s-6.83301 -35.833 -20.5 -49.5
s-30.167 -20.5 -49.5 -20.5z" />
    <glyph glyph-name="Zacute" unicode="&#x179;" horiz-adv-x="572" 
d="M349 600h-302v109h502l-345 -597h345v-112h-546zM189 800l142 120l88 -74l-175 -103z" />
    <glyph glyph-name="zacute" unicode="&#x17a;" horiz-adv-x="463" 
d="M249 347h-205v91h399l-234 -347h221v-91h-413zM300 705l90 -68l-159 -128l-65 47z" />
    <glyph glyph-name="Zdotaccent" unicode="&#x17b;" horiz-adv-x="572" 
d="M349 600h-302v109h502l-345 -597h345v-112h-546zM285 764c-22 0 -40.5 7.66699 -55.5 23s-22.5 33.666 -22.5 54.999c0 22 7.5 40.5 22.5 55.5s33.5 22.5 55.5 22.5c21.333 0 39.666 -7.5 54.999 -22.5s23 -33.5 23 -55.5c0 -21.333 -7.66699 -39.666 -23 -54.999
s-33.666 -23 -54.999 -23z" />
    <glyph glyph-name="zdotaccent" unicode="&#x17c;" horiz-adv-x="463" 
d="M249 347h-205v91h399l-234 -347h221v-91h-413zM232 535c-22 0 -40.5 7.66699 -55.5 23s-22.5 33.666 -22.5 54.999c0 22 7.5 40.5 22.5 55.5s33.5 22.5 55.5 22.5c21.333 0 39.666 -7.5 54.999 -22.5s23 -33.5 23 -55.5c0 -21.333 -7.66699 -39.666 -23 -54.999
s-33.666 -23 -54.999 -23z" />
    <glyph glyph-name="Zcaron" unicode="&#x17d;" horiz-adv-x="572" 
d="M349 600h-302v109h502l-345 -597h345v-112h-546zM152 910l132 -61l128 61l43 -69l-172 -90l-173 93z" />
    <glyph glyph-name="zcaron" unicode="&#x17e;" horiz-adv-x="463" 
d="M249 347h-205v91h399l-234 -347h221v-91h-413zM125 701l109 -83l110 84l55 -64l-168 -131l-159 129z" />
    <glyph glyph-name="florin" unicode="&#x192;" 
d="M66 -98c14.667 -2 29.332 -3.00098 43.999 -3.00098c24.667 0 42 7.5 52 22.5s17.667 40.167 23 75.5l51 323h-85l12 78h85l22 141c4 28 9.83301 53.333 17.5 76s18 42 31 58s29.5 28.333 49.5 37s45 13 75 13c18 0 34.333 -0.666992 49 -2s26.667 -3 36 -5l-16 -97
c-7.33301 1.33301 -15.166 2.33301 -23.499 3s-17.166 1 -26.499 1c-13.333 0 -24.333 -1.83301 -33 -5.5s-15.667 -9.5 -21 -17.5s-9.5 -18.167 -12.5 -30.5s-5.83301 -27.166 -8.5 -44.499l-20 -127h99l-12 -78h-99l-53 -337c-4.66699 -28 -10.834 -53.333 -18.501 -76
s-18 -42 -31 -58s-29.5 -28.333 -49.5 -37s-44.667 -13 -74 -13c-34 0 -60 2 -78 6z" />
    <glyph glyph-name="Scommaaccent" unicode="&#x218;" horiz-adv-x="531" 
d="M120 182c6.66699 -12 14.5068 -23.3311 23.5068 -33.998s19.167 -20.334 30.5 -29.001s23.666 -15.5 36.999 -20.5s28 -7.5 44 -7.5c30.667 0 55.167 9.33301 73.5 28s27.5 42 27.5 70c0 24 -7.33301 43.667 -22 59s-32.834 29.166 -54.501 41.499
s-45.334 24.5 -71.001 36.5s-49.334 26.333 -71.001 43s-39.834 37.334 -54.501 62.001s-22 55.667 -22 93c0 28.667 5.66699 55.167 17 79.5s26.666 45.5 45.999 63.5s42 32 68 42s53.667 15 83 15c42.667 0 81 -9.16699 115 -27.5s61.667 -43.833 83 -76.5l-84 -73
c-12.667 22.667 -28.667 40.5 -48 53.5s-40.666 19.5 -63.999 19.5c-27.333 0 -49.333 -8.5 -66 -25.5s-25 -38.5 -25 -64.5c0 -23.333 7.33301 -42.333 22 -57s33 -28 55 -40s45.833 -23.833 71.5 -35.5s49.5 -25.834 71.5 -42.501s40.333 -37.167 55 -61.5
s22 -54.833 22 -91.5c0 -32 -6 -61.333 -18 -88s-28.333 -49.5 -49 -68.5s-45.334 -33.833 -74.001 -44.5s-59.334 -16 -92.001 -16c-50 0 -93.333 11 -130 33s-66 51 -88 87zM333.007 -101.998c0 -29.333 -10.167 -57.333 -30.5 -84s-48.166 -51.667 -83.499 -75l-35 35
c14 12 25.333 23.5 34 34.5s13 22.167 13 33.5c0 7.33301 -1.33301 13.833 -4 19.5s-5.66699 11 -9 16s-6.33301 10.333 -9 16s-4 12.5 -4 20.5c0 16 5.66699 29.167 17 39.5s26.666 15.5 45.999 15.5s35 -6.83301 47 -20.5s18 -30.5 18 -50.5z" />
    <glyph glyph-name="scommaaccent" unicode="&#x219;" horiz-adv-x="408" 
d="M128 125c7.33301 -14 17.168 -25.5 29.501 -34.5s26.833 -13.5 43.5 -13.5c15.333 0 28.166 3.33301 38.499 10s15.5 17 15.5 31c0 12.667 -5 22.667 -15 30s-22.667 14 -38 20l-49 18.5c-17.333 6.33301 -33.666 14.666 -48.999 24.999s-28 23.5 -38 39.5
s-15 36.667 -15 62c0 18.667 3.66699 36.167 11 52.5s17.833 30.833 31.5 43.5s30.167 22.667 49.5 30s41.333 11 66 11c36.667 0 67.5 -7 92.5 -21s44.833 -36 59.5 -66l-91 -41c-7.33301 14.667 -16.666 25.334 -27.999 32.001s-23.666 10 -36.999 10
c-12.667 0 -23.667 -3.66699 -33 -11s-14 -17.333 -14 -30c0 -13.333 5.16699 -24 15.5 -32s23.166 -15 38.499 -21l49.5 -18.5c17.667 -6.33301 34.167 -14.5 49.5 -24.5s28.166 -22.833 38.499 -38.5s15.5 -36.167 15.5 -61.5c0 -20 -4 -38.5 -12 -55.5
s-19.333 -31.667 -34 -44s-32.334 -21.833 -53.001 -28.5s-43.334 -10 -68.001 -10c-42 0 -75.667 7.16699 -101 21.5s-45.666 36.5 -60.999 66.5zM272.002 -102c0 -29.333 -10.3311 -57.333 -30.998 -84s-48.667 -51.667 -84 -75l-34 35c14 12 25.167 23.5 33.5 34.5
s12.5 22.167 12.5 33.5c0 7.33301 -1.33301 13.833 -4 19.5s-5.66699 11 -9 16s-6.33301 10.333 -9 16s-4 12.5 -4 20.5c0 16 5.66699 29.167 17 39.5s26.666 15.5 45.999 15.5s35.166 -6.83301 47.499 -20.5s18.5 -30.5 18.5 -50.5z" />
    <glyph glyph-name="Tcommaaccent" unicode="&#x21a;" horiz-adv-x="470" 
d="M174 597h-163v112h449v-111h-163v-598h-123v597zM303 -102c0 -29.333 -10.167 -57.333 -30.5 -84s-48.166 -51.667 -83.499 -75l-35 35c14 12 25.333 23.5 34 34.5s13 22.167 13 33.5c0 7.33301 -1.33301 13.833 -4 19.5s-5.66699 11 -9 16s-6.33301 10.333 -9 16
s-4 12.5 -4 20.5c0 16 5.66699 29.167 17 39.5s26.666 15.5 45.999 15.5s35 -6.83301 47 -20.5s18 -30.5 18 -50.5z" />
    <glyph glyph-name="tcommaaccent" unicode="&#x21b;" horiz-adv-x="282" 
d="M79 349h-64v89h64v159h114v-159h85v-89h-85v-349h-114v349zM209 -102c0 -29.333 -10.3311 -57.333 -30.998 -84s-48.667 -51.667 -84 -75l-34 35c14 12 25.167 23.5 33.5 34.5s12.5 22.167 12.5 33.5c0 7.33301 -1.33301 13.833 -4 19.5s-5.66699 11 -9 16
s-6.33301 10.333 -9 16s-4 12.5 -4 20.5c0 16 5.66699 29.167 17 39.5s26.666 15.5 45.999 15.5s35.166 -6.83301 47.499 -20.5s18.5 -30.5 18.5 -50.5z" />
    <glyph glyph-name="circumflex" unicode="&#x2c6;" horiz-adv-x="470" 
d="M71 576l169 135l159 -132l-54 -65l-109 85l-109 -86z" />
    <glyph glyph-name="caron" unicode="&#x2c7;" horiz-adv-x="470" 
d="M124 701l109 -83l110 84l55 -64l-168 -131l-159 129z" />
    <glyph glyph-name="breve" unicode="&#x2d8;" horiz-adv-x="470" 
d="M167 696c0 -25.333 4.99902 -44.167 14.999 -56.5s26.667 -18.5 50 -18.5c47.333 0 71 25 71 75h92c0 -31.333 -4.16699 -58 -12.5 -80s-19.666 -39.833 -33.999 -53.5s-31.5 -23.667 -51.5 -30s-41.667 -9.5 -65 -9.5c-104.667 0 -157 57.667 -157 173h92z" />
    <glyph glyph-name="dotaccent" unicode="&#x2d9;" horiz-adv-x="340" 
d="M170 535c-22 0 -40.5 7.66699 -55.5 23s-22.5 33.666 -22.5 54.999c0 22 7.5 40.5 22.5 55.5s33.5 22.5 55.5 22.5c21.333 0 39.666 -7.5 54.999 -22.5s23 -33.5 23 -55.5c0 -21.333 -7.66699 -39.666 -23 -54.999s-33.666 -23 -54.999 -23z" />
    <glyph glyph-name="ring" unicode="&#x2da;" horiz-adv-x="470" 
d="M235 507c-15.333 0 -29.665 2.66699 -42.998 8s-25 12.833 -35 22.5s-17.833 21 -23.5 34s-8.5 27.167 -8.5 42.5s2.83301 29.5 8.5 42.5s13.5 24.333 23.5 34s21.667 17.334 35 23.001s27.666 8.5 42.999 8.5s29.666 -2.83301 42.999 -8.5s25 -13.334 35 -23.001
s17.833 -21 23.5 -34s8.5 -27.167 8.5 -42.5s-3 -29.5 -9 -42.5s-14 -24.167 -24 -33.5s-21.667 -16.833 -35 -22.5s-27.333 -8.5 -42 -8.5zM235.001 567c13.333 0 24.5 4.5 33.5 13.5s13.5 20.167 13.5 33.5s-4.5 24.666 -13.5 33.999s-20.167 14 -33.5 14
s-24.5 -4.66699 -33.5 -14s-13.5 -20.666 -13.5 -33.999s4.5 -24.5 13.5 -33.5s20.167 -13.5 33.5 -13.5z" />
    <glyph glyph-name="ogonek" unicode="&#x2db;" horiz-adv-x="470" 
d="M294 0c-14 -9.33301 -26.5 -21.334 -37.5 -36.001s-16.5 -29.667 -16.5 -45c0 -35.333 20.667 -53 62 -53c5.33301 0 11.166 0.333008 17.499 1s12.833 1.66699 19.5 3l8 -74c-27.333 -8 -53.666 -12 -78.999 -12c-18.667 0 -36.167 2.16699 -52.5 6.5
s-30.5 10.833 -42.5 19.5s-21.333 19.334 -28 32.001s-10 27.667 -10 45c0 12 2.66699 23.667 8 35s12 22 20 32s16.667 19 26 27s18 14.333 26 19h79z" />
    <glyph glyph-name="tilde" unicode="&#x2dc;" horiz-adv-x="470" 
d="M39 538c0 38 10.332 69.5 30.999 94.5s49 37.5 85 37.5c16.667 0 31.5 -2.66699 44.5 -8s25.333 -11.333 37 -18s23.167 -12.667 34.5 -18s23 -8 35 -8c12.667 0 22.667 4.16699 30 12.5s11 19.833 11 34.5h84c0 -40 -11 -72.167 -33 -96.5s-51 -36.5 -87 -36.5
c-16 0 -30.833 2.83301 -44.5 8.5s-26.667 11.667 -39 18l-35 18c-11 5.66699 -21.833 8.5 -32.5 8.5c-11.333 0 -20.666 -4.5 -27.999 -13.5s-11 -20.167 -11 -33.5h-82v0z" />
    <glyph glyph-name="hungarumlaut" unicode="&#x2dd;" horiz-adv-x="470" 
d="M136 714l88 -67l-126 -142l-63 46zM345 711l89 -67l-143 -141l-63 46z" />
    <glyph glyph-name="tonos" unicode="&#x384;" horiz-adv-x="400" 
d="M230 705l90 -68l-159 -128l-65 47z" />
    <glyph glyph-name="dieresistonos" unicode="&#x385;" horiz-adv-x="553" 
d="M112 543c-18.667 0 -34.667 6.5 -48 19.5s-20 29.167 -20 48.5c0 18.667 6.66699 34.5 20 47.5s29.333 19.5 48 19.5s34.667 -6.5 48 -19.5s20 -28.833 20 -47.5c0 -19.333 -6.66699 -35.5 -20 -48.5s-29.333 -19.5 -48 -19.5zM221 767h111l-18 -211h-75zM441 543
c-18.667 0 -34.667 6.5 -48 19.5s-20 29.167 -20 48.5c0 18.667 6.66699 34.5 20 47.5s29.333 19.5 48 19.5s34.667 -6.5 48 -19.5s20 -28.833 20 -47.5c0 -19.333 -6.66699 -35.5 -20 -48.5s-29.333 -19.5 -48 -19.5z" />
    <glyph glyph-name="Alphatonos" unicode="&#x386;" horiz-adv-x="722" 
d="M308 709h122l284 -709h-136l-62 165h-294l-61 -165h-131zM476 272l-62 165.999c-3.33301 8.66699 -7.5 20.334 -12.5 35.001l-15.5 44l-18 53l-17 -53l-15.5 -43.5l-12.5 -35.5l-62 -166h215zM25 708.999h111l-18 -211h-75z" />
    <glyph glyph-name="Epsilontonos" unicode="&#x388;" horiz-adv-x="705" 
d="M243 709h387v-113h-263v-176h255v-111h-255v-196h264v-113h-388v709zM23 709h111l-18 -211h-75z" />
    <glyph glyph-name="Etatonos" unicode="&#x389;" horiz-adv-x="876" 
d="M242 709h124v-282h303v282h124v-709h-124v315h-303v-315h-124v709zM23 709h111l-18 -211h-75z" />
    <glyph glyph-name="Iotatonos" unicode="&#x38a;" horiz-adv-x="449" 
d="M242 709h124v-709h-124v709zM23 709h111l-18 -211h-75z" />
    <glyph glyph-name="Omicrontonos" unicode="&#x38c;" horiz-adv-x="967" 
d="M553 -16c-52 0 -100.5 9.5 -145.5 28.5s-84.333 45.167 -118 78.5s-60.167 72.5 -79.5 117.5s-29 93.167 -29 144.5c0 50.667 9.83301 98.5 29.5 143.5s46.5 84.333 80.5 118s73.667 60.334 119 80.001s93.666 29.5 144.999 29.5c52 0 100.667 -9.5 146 -28.5
s84.833 -45.167 118.5 -78.5s60.167 -72.5 79.5 -117.5s29 -93.5 29 -145.5c0 -51.333 -10 -99.333 -30 -144s-47 -83.834 -81 -117.501s-73.667 -60.167 -119 -79.5s-93.666 -29 -144.999 -29zM554 102c35.333 0 68 6.50098 98 19.501s56 30.833 78 53.5
s39.167 49.334 51.5 80.001s18.5 63.667 18.5 99s-6 68.5 -18 99.5s-29 58 -51 81s-48 41 -78 54s-63 19.5 -99 19.5c-35.333 0 -68 -6.66699 -98 -20s-56 -31.5 -78 -54.5s-39.167 -49.833 -51.5 -80.5s-18.5 -63.334 -18.5 -98.001s6.33301 -67.334 19 -98.001
s30 -57.5 52 -80.5s48 -41.167 78 -54.5s62.333 -20 97 -20zM23 709.001h111l-18 -211h-75z" />
    <glyph glyph-name="Upsilontonos" unicode="&#x38e;" horiz-adv-x="793" 
d="M428 317l-230 392h142l154 -288l154 288h137l-233 -388v-321h-124v317zM23 709h111l-18 -211h-75z" />
    <glyph glyph-name="Omegatonos" unicode="&#x38f;" horiz-adv-x="962" 
d="M790 366c0 34 -5.83691 65.667 -17.5039 95s-28 55 -49 77s-46.167 39.167 -75.5 51.5s-61.666 18.5 -96.999 18.5c-34.667 0 -66.667 -6.16699 -96 -18.5s-54.5 -29.333 -75.5 -51s-37.333 -47.167 -49 -76.5s-17.5 -60.666 -17.5 -93.999
c0 -29.333 4.33301 -56.333 13 -81s20.167 -46.667 34.5 -66s31 -36.166 50 -50.499s38.5 -25.5 58.5 -33.5v-137h-267v111h127c-18.667 12.667 -36.667 27.834 -54 45.501s-32.666 37.334 -45.999 59.001s-24 45.5 -32 71.5s-12 54 -12 84c0 50 9.83301 96.5 29.5 139.5
s46.167 80.333 79.5 112s72.166 56.5 116.499 74.5s91.5 27 141.5 27c52 0 100.167 -8.83301 144.5 -26.5s83 -42.334 116 -74.001s58.833 -69.167 77.5 -112.5s28 -90.333 28 -141c0 -29.333 -4.33301 -56.833 -13 -82.5s-20 -49.5 -34 -71.5s-30.167 -41.833 -48.5 -59.5
s-36.833 -32.834 -55.5 -45.501h134v-111h-268v137c20.667 8 40.334 19 59.001 33s35.334 30.667 50.001 50s26.334 41.166 35.001 65.499s13 51.166 13 80.499zM22.9961 709h111l-18 -211h-75z" />
    <glyph glyph-name="iotadieresistonos" unicode="&#x390;" horiz-adv-x="248" 
d="M67 438h114v-438h-114v438zM-39 543c-18.667 0 -34.667 6.5 -48 19.5s-20 29.167 -20 48.5c0 18.667 6.66699 34.5 20 47.5s29.333 19.5 48 19.5s34.667 -6.5 48 -19.5s20 -28.833 20 -47.5c0 -19.333 -6.66699 -35.5 -20 -48.5s-29.333 -19.5 -48 -19.5zM70 767h111
l-18 -211h-75zM290 543c-18.667 0 -34.667 6.5 -48 19.5s-20 29.167 -20 48.5c0 18.667 6.66699 34.5 20 47.5s29.333 19.5 48 19.5s34.667 -6.5 48 -19.5s20 -28.833 20 -47.5c0 -19.333 -6.66699 -35.5 -20 -48.5s-29.333 -19.5 -48 -19.5z" />
    <glyph glyph-name="Alpha" unicode="&#x391;" horiz-adv-x="701" 
d="M287 709h122l284 -709h-136l-62 165h-294l-61 -165h-131zM455 272l-62 165.999c-3.33301 8.66699 -7.5 20.334 -12.5 35.001l-15.5 44l-18 53l-17 -53l-15.5 -43.5l-12.5 -35.5l-62 -166h215z" />
    <glyph glyph-name="Beta" unicode="&#x392;" horiz-adv-x="603" 
d="M82 709l202.001 -0.000976562c41.333 0 75.833 -4.33301 103.5 -13s52.167 -24 73.5 -46c14.667 -14.667 26 -32 34 -52s12 -42.333 12 -67c0 -34.667 -8 -64.167 -24 -88.5s-37.667 -44.166 -65 -59.499c18.667 -4 36 -11 52 -21s30 -22.333 42 -37
s21.5 -31.667 28.5 -51s10.5 -40.333 10.5 -63c0 -59.333 -19 -108 -57 -146c-20 -20 -46.833 -35.833 -80.5 -47.5s-77.834 -17.5 -132.501 -17.5h-199v709zM270.001 418.999c37.333 0 65.667 9.33203 85 27.999c8.66699 8.66699 15.667 18.834 21 30.501s8 25.167 8 40.5
c0 11.333 -1.66699 22.333 -5 33s-9.33301 20.334 -18 29.001c-9.33301 9.33301 -20.333 16.166 -33 20.499s-29.667 6.5 -51 6.5h-73v-188h66zM292.002 102.998c47.333 0 81.832 9.00098 103.499 27.001s32.5 44 32.5 78c0 14.667 -2.16699 28.667 -6.5 42
s-11.166 24.666 -20.499 33.999c-12 12 -27.167 20.667 -45.5 26s-40.5 8 -66.5 8h-85v-215h88z" />
    <glyph glyph-name="Gamma" unicode="&#x393;" horiz-adv-x="464" 
d="M446 709v-113h-240v-596h-124v709h364z" />
    <glyph glyph-name="uni0394" unicode="&#x394;" horiz-adv-x="709" 
d="M290 709h124l286 -709h-691zM184 113h335l-123 321l-12 32l-13.5 38l-12 35.5l-8.5 25.5c-1.33301 -6 -3.83301 -14.5 -7.5 -25.5l-12 -35l-13.5 -37.5l-12 -33z" />
    <glyph glyph-name="Epsilon" unicode="&#x395;" horiz-adv-x="544" 
d="M82 709h387v-113h-263v-176h255v-111h-255v-196h264v-113h-388v709z" />
    <glyph glyph-name="Zeta" unicode="&#x396;" horiz-adv-x="572" 
d="M349 600h-302v109h502l-345 -597h345v-112h-546z" />
    <glyph glyph-name="Eta" unicode="&#x397;" horiz-adv-x="715" 
d="M82 709h124v-282h303v282h124v-709h-124v315h-303v-315h-124v709z" />
    <glyph glyph-name="Theta" unicode="&#x398;" horiz-adv-x="826" 
d="M590 412v-110h-360v110h360zM412 -16c-52 0 -100.5 9.5 -145.5 28.5s-84.333 45.167 -118 78.5s-60.167 72.5 -79.5 117.5s-29 93.167 -29 144.5c0 50.667 9.83301 98.5 29.5 143.5s46.5 84.333 80.5 118s73.667 60.334 119 80.001s93.666 29.5 144.999 29.5
c52 0 100.667 -9.5 146 -28.5s84.833 -45.167 118.5 -78.5s60.167 -72.5 79.5 -117.5s29 -93.5 29 -145.5c0 -51.333 -10 -99.333 -30 -144s-47 -83.834 -81 -117.501s-73.667 -60.167 -119 -79.5s-93.666 -29 -144.999 -29zM413 102c35.333 0 68 6.50098 98 19.501
s56 30.833 78 53.5s39.167 49.334 51.5 80.001s18.5 63.667 18.5 99s-6 68.5 -18 99.5s-29 58 -51 81s-48 41 -78 54s-63 19.5 -99 19.5c-35.333 0 -68 -6.66699 -98 -20s-56 -31.5 -78 -54.5s-39.167 -49.833 -51.5 -80.5s-18.5 -63.334 -18.5 -98.001
s6.33301 -67.334 19 -98.001s30 -57.5 52 -80.5s48 -41.167 78 -54.5s62.333 -20 97 -20z" />
    <glyph glyph-name="Iota" unicode="&#x399;" horiz-adv-x="288" 
d="M82 709h124v-709h-124v709z" />
    <glyph glyph-name="Kappa" unicode="&#x39a;" horiz-adv-x="649" 
d="M82 709h124v-316l248 316h149l-271 -332l285 -377h-157l-254 345v-345h-124v709z" />
    <glyph glyph-name="Lambda" unicode="&#x39b;" horiz-adv-x="686" 
d="M144 0l-133 -0.000976562l272 709h124l268 -709h-136l-150 418l-23.5 71l-22.5 71c-6.66699 -23.333 -14.167 -47.166 -22.5 -71.499l-23.5 -67.5z" />
    <glyph glyph-name="Mu" unicode="&#x39c;" horiz-adv-x="906" 
d="M139 709l128.998 -0.000976562l138 -386c8.66699 -24 17 -49.167 25 -75.5s15.667 -53.166 23 -80.499l22.5 78c7.66699 25.333 15.167 48.666 22.5 69.999l142 394h124l98 -709h-121l-46 381c-3.33301 23.333 -6 48.833 -8 76.5s-3.66699 55.5 -5 83.5
c-7.33301 -27.333 -14.833 -53.5 -22.5 -78.5s-15.167 -47.833 -22.5 -68.5l-143 -394h-91l-141 391c-7.33301 20.667 -14.833 43.834 -22.5 69.501l-22.5 77.5c-1.33301 -28 -3.16602 -55.833 -5.49902 -83.5s-5.16602 -54.167 -8.49902 -79.5l-45 -375h-120z" />
    <glyph glyph-name="Nu" unicode="&#x39d;" horiz-adv-x="779" 
d="M82 709l114.001 -0.000976562l293 -392l52 -72.5c17.333 -25 32.666 -48.167 45.999 -69.5c-1.33301 40.667 -2.5 79.834 -3.5 117.501s-1.5 76.5 -1.5 116.5v300h114v-709h-112l-309 412l-43 60l-41 60c1.33301 -33.333 2.33301 -66 3 -98s2 -64.667 4 -98v-336h-116
v709z" />
    <glyph glyph-name="Xi" unicode="&#x39e;" horiz-adv-x="637" 
d="M51 709h536v-114h-536v114zM588 113v-113h-539v113h539zM92 419h454v-111h-454v111z" />
    <glyph glyph-name="Omicron" unicode="&#x39f;" horiz-adv-x="826" 
d="M412 -16c-52 0 -100.5 9.5 -145.5 28.5s-84.333 45.167 -118 78.5s-60.167 72.5 -79.5 117.5s-29 93.167 -29 144.5c0 50.667 9.83301 98.5 29.5 143.5s46.5 84.333 80.5 118s73.667 60.334 119 80.001s93.666 29.5 144.999 29.5c52 0 100.667 -9.5 146 -28.5
s84.833 -45.167 118.5 -78.5s60.167 -72.5 79.5 -117.5s29 -93.5 29 -145.5c0 -51.333 -10 -99.333 -30 -144s-47 -83.834 -81 -117.501s-73.667 -60.167 -119 -79.5s-93.666 -29 -144.999 -29zM413 102c35.333 0 68 6.50098 98 19.501s56 30.833 78 53.5
s39.167 49.334 51.5 80.001s18.5 63.667 18.5 99s-6 68.5 -18 99.5s-29 58 -51 81s-48 41 -78 54s-63 19.5 -99 19.5c-35.333 0 -68 -6.66699 -98 -20s-56 -31.5 -78 -54.5s-39.167 -49.833 -51.5 -80.5s-18.5 -63.334 -18.5 -98.001s6.33301 -67.334 19 -98.001
s30 -57.5 52 -80.5s48 -41.167 78 -54.5s62.333 -20 97 -20z" />
    <glyph glyph-name="Pi" unicode="&#x3a0;" horiz-adv-x="715" 
d="M509 0v595h-303v-595h-124v709h551v-709h-124z" />
    <glyph glyph-name="Rho" unicode="&#x3a1;" horiz-adv-x="541" 
d="M82 709h181c44 0 82.5 -4.66699 115.5 -14s60.833 -25.333 83.5 -48c36.667 -36.667 55 -86 55 -148c0 -30 -5 -57.667 -15 -83s-24.333 -47.333 -43 -66c-22.667 -22.667 -51 -39.667 -85 -51s-72 -17 -114 -17h-55v-282h-123v709zM261 387
c44.667 0 78.001 10.999 100.001 32.999c19.333 19.333 29 44 29 74c0 16 -2.33301 30.833 -7 44.5s-11.334 24.834 -20.001 33.501c-10 10 -22.667 17.667 -38 23s-35.333 8 -60 8h-60v-216h56z" />
    <glyph glyph-name="Sigma" unicode="&#x3a3;" horiz-adv-x="610" 
d="M223 113h337v-113h-536l217 359l-107.5 175l-107.5 175h527v-110h-318l141 -231z" />
    <glyph glyph-name="Tau" unicode="&#x3a4;" horiz-adv-x="470" 
d="M174 597h-163v112h449v-111h-163v-598h-123v597z" />
    <glyph glyph-name="Upsilon" unicode="&#x3a5;" horiz-adv-x="604" 
d="M239 317l-230 392h142l154 -288l154 288h137l-233 -388v-321h-124v317z" />
    <glyph glyph-name="Phi" unicode="&#x3a6;" horiz-adv-x="817" 
d="M346 0l-0.000976562 87.001h-26c-44.667 0 -84.667 6.5 -120 19.5s-65.333 31 -90 54s-43.667 50.667 -57 83s-20 67.833 -20 106.5c0 40 6.5 76.667 19.5 110s32.333 62.166 58 86.499s57.167 43.166 94.5 56.499s80 20 128 20h13v86h122v-86h30
c44 0 83.667 -6.33301 119 -19s65.333 -30.5 90 -53.5s43.667 -50.667 57 -83s20 -68.166 20 -107.499c0 -40.667 -6.83301 -77.667 -20.5 -111s-33.167 -62 -58.5 -86s-56.666 -42.667 -93.999 -56s-79.333 -20 -126 -20h-17v-87h-122zM467.999 191.001l20 0.000976562
c58 0 100.5 14.167 127.5 42.5s40.5 69.166 40.5 122.499s-15 93.833 -45 121.5s-71 41.5 -123 41.5h-20v-328zM345.999 519.002h-16c-112.667 0 -169 -54.667 -169 -164c0 -54 15.333 -94.833 46 -122.5s71.667 -41.5 123 -41.5h16v328z" />
    <glyph glyph-name="Chi" unicode="&#x3a7;" horiz-adv-x="640" 
d="M255 369l-219 340h145l142 -241l144 241h144l-223 -338l235 -371h-143l-162 271l-160 -271h-142z" />
    <glyph glyph-name="Psi" unicode="&#x3a8;" horiz-adv-x="811" 
d="M342 172l-22.9971 -0.000976562c-38 0 -72.833 5.33301 -104.5 16s-58.667 27.167 -81 49.5s-39.833 50.833 -52.5 85.5s-19 76.334 -19 125.001v261h124v-250c0 -35.333 3.66699 -64.5 11 -87.5s17.166 -41.167 29.499 -54.5s26.5 -22.666 42.5 -27.999s32.667 -8 50 -8
h23v428h124v-428h24c16 0 32.167 2.16699 48.5 6.5s30.833 12.666 43.5 24.999s23 29.833 31 52.5s12 52 12 88v256h124v-256c0 -52 -6.83301 -95.833 -20.5 -131.5s-32.334 -64.667 -56.001 -87s-51.334 -38.333 -83.001 -48s-65.167 -14.5 -100.5 -14.5h-23v-172h-124v172
z" />
    <glyph glyph-name="uni03A9" unicode="&#x3a9;" horiz-adv-x="821" 
d="M649 366c0 34 -5.83691 65.667 -17.5039 95s-28 55 -49 77s-46.167 39.167 -75.5 51.5s-61.666 18.5 -96.999 18.5c-34.667 0 -66.667 -6.16699 -96 -18.5s-54.5 -29.333 -75.5 -51s-37.333 -47.167 -49 -76.5s-17.5 -60.666 -17.5 -93.999
c0 -29.333 4.33301 -56.333 13 -81s20.167 -46.667 34.5 -66s31 -36.166 50 -50.499s38.5 -25.5 58.5 -33.5v-137h-267v111h127c-18.667 12.667 -36.667 27.834 -54 45.501s-32.666 37.334 -45.999 59.001s-24 45.5 -32 71.5s-12 54 -12 84c0 50 9.83301 96.5 29.5 139.5
s46.167 80.333 79.5 112s72.166 56.5 116.499 74.5s91.5 27 141.5 27c52 0 100.167 -8.83301 144.5 -26.5s83 -42.334 116 -74.001s58.833 -69.167 77.5 -112.5s28 -90.333 28 -141c0 -29.333 -4.33301 -56.833 -13 -82.5s-20 -49.5 -34 -71.5s-30.167 -41.833 -48.5 -59.5
s-36.833 -32.834 -55.5 -45.501h134v-111h-268v137c20.667 8 40.334 19 59.001 33s35.334 30.667 50.001 50s26.334 41.166 35.001 65.499s13 51.166 13 80.499z" />
    <glyph glyph-name="Iotadieresis" unicode="&#x3aa;" horiz-adv-x="288" 
d="M82 709h124v-709h-124v709zM245 757c-19.333 0 -35.833 6.83301 -49.5 20.5s-20.5 30.167 -20.5 49.5s6.83301 35.666 20.5 48.999s30.167 20 49.5 20s35.666 -6.66699 48.999 -20s20 -29.666 20 -48.999s-6.66699 -35.833 -20 -49.5s-29.666 -20.5 -48.999 -20.5z
M44 757c-19.333 0 -35.666 6.83301 -48.999 20.5s-20 30.167 -20 49.5s6.66699 35.666 20 48.999s29.666 20 48.999 20s35.833 -6.66699 49.5 -20s20.5 -29.666 20.5 -48.999s-6.83301 -35.833 -20.5 -49.5s-30.167 -20.5 -49.5 -20.5z" />
    <glyph glyph-name="Upsilondieresis" unicode="&#x3ab;" horiz-adv-x="604" 
d="M239 317l-230 392h142l154 -288l154 288h137l-233 -388v-321h-124v317zM400 757c-19.333 0 -35.833 6.83301 -49.5 20.5s-20.5 30.167 -20.5 49.5s6.83301 35.666 20.5 48.999s30.167 20 49.5 20s35.666 -6.66699 48.999 -20s20 -29.666 20 -48.999
s-6.66699 -35.833 -20 -49.5s-29.666 -20.5 -48.999 -20.5zM199 757c-19.333 0 -35.666 6.83301 -48.999 20.5s-20 30.167 -20 49.5s6.66699 35.666 20 48.999s29.666 20 48.999 20s35.833 -6.66699 49.5 -20s20.5 -29.666 20.5 -48.999s-6.83301 -35.833 -20.5 -49.5
s-30.167 -20.5 -49.5 -20.5z" />
    <glyph glyph-name="alphatonos" unicode="&#x3ac;" 
d="M401 54c-16.667 -20 -37.501 -36.001 -62.501 -48.001s-53.833 -18 -86.5 -18c-31.333 0 -60 5.66699 -86 17s-48.167 27 -66.5 47s-32.666 43.833 -42.999 71.5s-15.5 57.834 -15.5 90.501c0 34 5.33301 65.333 16 94s25.5 53.5 44.5 74.5s41.833 37.5 68.5 49.5
s56 18 88 18c30.667 0 58.5 -6.16699 83.5 -18.5s44.833 -28.833 59.5 -49.5v56h113v-438h-113v54zM282.999 80.999c18.667 0 35.665 3.50195 50.998 10.502s28.333 16.5 39 28.5s18.834 26.167 24.501 42.5s8.5 33.833 8.5 52.5c0 39.333 -11.667 71.666 -35 96.999
s-53.666 38 -90.999 38c-17.333 0 -33.333 -3.33301 -48 -10s-27.5 -15.834 -38.5 -27.501s-19.667 -25.667 -26 -42s-9.5 -33.833 -9.5 -52.5s3.16699 -36.334 9.5 -53.001s15 -31.167 26 -43.5s24.167 -22.166 39.5 -29.499s32 -11 50 -11zM361.997 705.001l90 -68
l-159 -128l-65 47z" />
    <glyph glyph-name="epsilontonos" unicode="&#x3ad;" horiz-adv-x="429" 
d="M355 334c-2.66699 2 -7.50098 4.49609 -14.501 7.49609s-15.167 6 -24.5 9s-20 5.5 -32 7.5s-24.333 3 -37 3c-19.333 0 -36 -3.66699 -50 -11s-21 -18.666 -21 -33.999c0 -17.333 6.5 -30 19.5 -38s30.167 -12 51.5 -12h85v-81h-92c-24.667 0 -43.667 -4.66699 -57 -14
s-20 -23.666 -20 -42.999c0 -16 7.33301 -28.167 22 -36.5s34.334 -12.5 59.001 -12.5c14 0 27.5 1 40.5 3s24.667 4.5 35 7.5s19.333 6 27 9s12.834 5.5 15.501 7.5l38 -79c-4.66699 -2.66699 -11.834 -6.16699 -21.501 -10.5s-21.834 -8.66602 -36.501 -12.999
s-31.667 -8 -51 -11s-40.666 -4.5 -63.999 -4.5c-60 0 -106 12 -138 36s-48 57.333 -48 100c0 16 3 30 9 42s13.333 22.333 22 31s18.167 15.834 28.5 21.501s19.833 9.5 28.5 11.5c-8 2.66699 -16.333 6.66699 -25 12s-16.5 12 -23.5 20s-12.833 17.5 -17.5 28.5
s-7 23.167 -7 36.5c0 20 4.66699 37.5 14 52.5s22.166 27.833 38.499 38.5s35.833 18.667 58.5 24s47 8 73 8c20.667 0 39.334 -1.66699 56.001 -5s31.5 -7.33301 44.5 -12s24 -9.5 33 -14.5l20.5 -11.5zM285.999 704.996l90 -68l-159 -128l-65 47z" />
    <glyph glyph-name="etatonos" unicode="&#x3ae;" horiz-adv-x="538" 
d="M66 438l111.999 0.000976562v-58c12 16 29.167 31.167 51.5 45.5s51.833 21.5 88.5 21.5c27.333 0 50.333 -4 69 -12s34.334 -18 47.001 -30c14.667 -14.667 25.167 -32.334 31.5 -53.001s9.5 -46 9.5 -76v-477h-114v453c0 28.667 -6 52.167 -18 70.5
s-32.667 27.5 -62 27.5c-11.333 0 -23 -2.16699 -35 -6.5s-23 -11 -33 -20s-18.167 -20.333 -24.5 -34s-9.5 -30.167 -9.5 -49.5v-240h-113v438zM336.999 705.001l90 -68l-159 -128l-65 47z" />
    <glyph glyph-name="iotatonos" unicode="&#x3af;" horiz-adv-x="248" 
d="M67 438h114v-438h-114v438zM179 705l90 -68l-159 -128l-65 47z" />
    <glyph glyph-name="upsilondieresistonos" unicode="&#x3b0;" horiz-adv-x="540" 
d="M63 438l113.999 -0.00195312v-229c0 -17.333 1.16699 -33.5 3.5 -48.5s7 -28 14 -39s16.667 -19.833 29 -26.5s28.5 -10 48.5 -10s35.833 3.5 47.5 10.5s20.834 16.333 27.501 28s11 24.667 13 39s3 28.833 3 43.5v232h114v-229c0 -36 -3.5 -68 -10.5 -96
s-20.5 -52 -40.5 -72c-19.333 -19.333 -42.333 -33.166 -69 -41.499s-56 -12.5 -88 -12.5c-66.667 0 -119 19 -157 57c-17.333 17.333 -29.833 38.833 -37.5 64.5s-11.5 56.834 -11.5 93.501v236zM106.999 542.998c-18.667 0 -34.667 6.5 -48 19.5s-20 29.167 -20 48.5
c0 18.667 6.66699 34.5 20 47.5s29.333 19.5 48 19.5s34.667 -6.5 48 -19.5s20 -28.833 20 -47.5c0 -19.333 -6.66699 -35.5 -20 -48.5s-29.333 -19.5 -48 -19.5zM215.999 766.998h111l-18 -211h-75zM435.999 542.998c-18.667 0 -34.667 6.5 -48 19.5s-20 29.167 -20 48.5
c0 18.667 6.66699 34.5 20 47.5s29.333 19.5 48 19.5s34.667 -6.5 48 -19.5s20 -28.833 20 -47.5c0 -19.333 -6.66699 -35.5 -20 -48.5s-29.333 -19.5 -48 -19.5z" />
    <glyph glyph-name="alpha" unicode="&#x3b1;" 
d="M401 54c-16.667 -20 -37.501 -36.001 -62.501 -48.001s-53.833 -18 -86.5 -18c-31.333 0 -60 5.66699 -86 17s-48.167 27 -66.5 47s-32.666 43.833 -42.999 71.5s-15.5 57.834 -15.5 90.501c0 34 5.33301 65.333 16 94s25.5 53.5 44.5 74.5s41.833 37.5 68.5 49.5
s56 18 88 18c30.667 0 58.5 -6.16699 83.5 -18.5s44.833 -28.833 59.5 -49.5v56h113v-438h-113v54zM282.999 80.999c18.667 0 35.665 3.50195 50.998 10.502s28.333 16.5 39 28.5s18.834 26.167 24.501 42.5s8.5 33.833 8.5 52.5c0 39.333 -11.667 71.666 -35 96.999
s-53.666 38 -90.999 38c-17.333 0 -33.333 -3.33301 -48 -10s-27.5 -15.834 -38.5 -27.501s-19.667 -25.667 -26 -42s-9.5 -33.833 -9.5 -52.5s3.16699 -36.334 9.5 -53.001s15 -31.167 26 -43.5s24.167 -22.166 39.5 -29.499s32 -11 50 -11z" />
    <glyph glyph-name="beta" unicode="&#x3b2;" horiz-adv-x="571" 
d="M66 539c0 28.667 3.99902 55.9971 11.999 81.9971s20.333 49 37 69s37.667 36 63 48s55 18 89 18c33.333 0 62.333 -5.16699 87 -15.5s45.334 -24.333 62.001 -42s29 -38.5 37 -62.5s12 -49.333 12 -76c0 -25.333 -3.33301 -46.666 -10 -63.999
s-14.667 -31.666 -24 -42.999s-18.833 -19.833 -28.5 -25.5s-17.5 -9.16699 -23.5 -10.5c6.66699 -2 18.167 -6 34.5 -12s33 -16.333 50 -31s32 -34.334 45 -59.001s19.5 -56.667 19.5 -96c0 -30 -5.16699 -59 -15.5 -87s-24.833 -52.5 -43.5 -73.5
s-41.5 -37.833 -68.5 -50.5s-56.833 -19 -89.5 -19c-19.333 0 -36.833 2.16699 -52.5 6.5s-29 9.33301 -40 15s-19.833 11.334 -26.5 17.001s-11 9.83398 -13 12.501v-241h-113v740zM178.999 146.997c2 -4 5.49902 -9.66406 10.499 -16.9971s11.833 -14.5 20.5 -21.5
s19.334 -13.167 32.001 -18.5s27.667 -8 45 -8c18.667 0 35.5 3.66699 50.5 11s27.667 17 38 29s18.333 26 24 42s8.5 32.667 8.5 50s-3 34.166 -9 50.499s-14.667 30.666 -26 42.999s-25 22.333 -41 30s-34 11.5 -54 11.5h-54v89h26c30.667 0 54.5 9.5 71.5 28.5
s25.5 47.167 25.5 84.5c0 34 -7.5 60.5 -22.5 79.5s-35.5 28.5 -61.5 28.5c-28 0 -49 -8.83301 -63 -26.5s-21 -40.834 -21 -69.501v-416z" />
    <glyph glyph-name="gamma" unicode="&#x3b3;" horiz-adv-x="508" 
d="M505 438l-97.001 -221.499l-98 -219.5v-198h-113v199l-194 440h129l87 -215c6.66699 -16 13.334 -33.833 20.001 -53.5s12.667 -38.834 18 -57.501c5.33301 18.667 11.5 37.667 18.5 57s13.833 37.333 20.5 54l85 215h124v0z" />
    <glyph glyph-name="delta" unicode="&#x3b4;" horiz-adv-x="565" 
d="M277 -13c-33.333 0 -64.333 5.66797 -93 17.001s-53.5 27.166 -74.5 47.499s-37.667 44.666 -50 72.999s-18.5 59.166 -18.5 92.499c0 32.667 6.33301 63.167 19 91.5s29.334 52.666 50.001 72.999s44.167 36.333 70.5 48s53.166 17.5 80.499 17.5
c10 0 18.667 -0.666992 26 -2s12.666 -2.66602 15.999 -3.99902l-156 248v58h314v-94h-161l168 -268c16.667 -26 30.167 -52 40.5 -78s15.5 -54.667 15.5 -86s-5.83301 -61.166 -17.5 -89.499s-28.167 -53.166 -49.5 -74.499s-47.166 -38.333 -77.499 -51
s-64.5 -19 -102.5 -19zM155 219.001c0 -18.667 3.33105 -36 9.99805 -52s15.834 -29.667 27.501 -41s25.334 -20.333 41.001 -27s32.167 -10 49.5 -10c18 0 34.667 3.16699 50 9.5s28.5 15.333 39.5 27s19.667 25.167 26 40.5s9.5 32 9.5 50c0 19.333 -3 37.333 -9 54
s-14.667 31.167 -26 43.5s-25 22 -41 29s-33.667 10.5 -53 10.5c-18 0 -34.667 -3.5 -50 -10.5s-28.5 -16.5 -39.5 -28.5s-19.5 -26.167 -25.5 -42.5s-9 -33.833 -9 -52.5z" />
    <glyph glyph-name="epsilon" unicode="&#x3b5;" horiz-adv-x="429" 
d="M355 334c-2.66699 2 -7.50098 4.49609 -14.501 7.49609s-15.167 6 -24.5 9s-20 5.5 -32 7.5s-24.333 3 -37 3c-19.333 0 -36 -3.66699 -50 -11s-21 -18.666 -21 -33.999c0 -17.333 6.5 -30 19.5 -38s30.167 -12 51.5 -12h85v-81h-92c-24.667 0 -43.667 -4.66699 -57 -14
s-20 -23.666 -20 -42.999c0 -16 7.33301 -28.167 22 -36.5s34.334 -12.5 59.001 -12.5c14 0 27.5 1 40.5 3s24.667 4.5 35 7.5s19.333 6 27 9s12.834 5.5 15.501 7.5l38 -79c-4.66699 -2.66699 -11.834 -6.16699 -21.501 -10.5s-21.834 -8.66602 -36.501 -12.999
s-31.667 -8 -51 -11s-40.666 -4.5 -63.999 -4.5c-60 0 -106 12 -138 36s-48 57.333 -48 100c0 16 3 30 9 42s13.333 22.333 22 31s18.167 15.834 28.5 21.501s19.833 9.5 28.5 11.5c-8 2.66699 -16.333 6.66699 -25 12s-16.5 12 -23.5 20s-12.833 17.5 -17.5 28.5
s-7 23.167 -7 36.5c0 20 4.66699 37.5 14 52.5s22.166 27.833 38.499 38.5s35.833 18.667 58.5 24s47 8 73 8c20.667 0 39.334 -1.66699 56.001 -5s31.5 -7.33301 44.5 -12s24 -9.5 33 -14.5l20.5 -11.5z" />
    <glyph glyph-name="zeta" unicode="&#x3b6;" horiz-adv-x="453" 
d="M45 202c0 18 2.33203 36.001 6.99902 54.001s10.5 35.333 17.5 52s14.5 32 22.5 46s15.667 26.333 23 37l182 259h-201v97h345v-70l-226 -327c-11.333 -15.333 -22.333 -34.5 -33 -57.5s-16 -48.5 -16 -76.5c0 -29.333 7 -52.333 21 -69s31.5 -30 52.5 -40
s43.833 -18.833 68.5 -26.5s47.5 -17.167 68.5 -28.5s38.5 -26.666 52.5 -45.999s21 -45.666 21 -78.999c0 -26.667 -5.16699 -50.834 -15.5 -72.501s-23.166 -44.167 -38.499 -67.5l-87 52c12 19.333 20.667 34.166 26 44.499s8 20.166 8 29.499
c0 15.333 -7.33301 27.5 -22 36.5s-33 17.667 -55 26l-72 27c-26 9.66699 -50 22.667 -72 39s-40.333 37.333 -55 63s-22 58.167 -22 97.5z" />
    <glyph glyph-name="eta" unicode="&#x3b7;" horiz-adv-x="538" 
d="M66 438l111.999 0.000976562v-58c12 16 29.167 31.167 51.5 45.5s51.833 21.5 88.5 21.5c27.333 0 50.333 -4 69 -12s34.334 -18 47.001 -30c14.667 -14.667 25.167 -32.334 31.5 -53.001s9.5 -46 9.5 -76v-477h-114v453c0 28.667 -6 52.167 -18 70.5
s-32.667 27.5 -62 27.5c-11.333 0 -23 -2.16699 -35 -6.5s-23 -11 -33 -20s-18.167 -20.333 -24.5 -34s-9.5 -30.167 -9.5 -49.5v-240h-113v438z" />
    <glyph glyph-name="theta" unicode="&#x3b8;" horiz-adv-x="594" 
d="M292 -13c-44.667 0 -82.3301 10.0029 -112.997 30.0029s-55.5 47.167 -74.5 81.5s-32.833 74.666 -41.5 120.999s-13 95.5 -13 147.5c0 53.333 4.83301 103.666 14.5 150.999s24.5 88.666 44.5 123.999s45.667 63.333 77 84s69 31 113 31
c45.333 0 83.666 -10 114.999 -30s56.666 -47.167 75.999 -81.5s33.166 -74.5 41.499 -120.5s12.5 -95 12.5 -147c0 -53.333 -5 -103.833 -15 -151.5s-25.167 -89.167 -45.5 -124.5s-46.333 -63.333 -78 -84s-69.5 -31 -113.5 -31zM297.004 88.0029
c22.667 0 41.667 6.66797 57 20.001s28 31.333 38 54s17.333 48.667 22 78s7.66699 60 9 92h-254c1.33301 -34.667 4.33301 -66.834 9 -96.501s12 -55.5 22 -77.5s22.833 -39.167 38.5 -51.5s35.167 -18.5 58.5 -18.5zM293.004 656.004c-21.333 0 -39.333 -6.33301 -54 -19
s-27 -29.667 -37 -51s-17.5 -46.333 -22.5 -75s-8.16699 -59 -9.5 -91h252c-1.33301 34 -4.5 65.333 -9.5 94s-12.5 53.5 -22.5 74.5s-22.833 37.5 -38.5 49.5s-35.167 18 -58.5 18z" />
    <glyph glyph-name="iota" unicode="&#x3b9;" horiz-adv-x="248" 
d="M67 438h114v-438h-114v438z" />
    <glyph glyph-name="kappa" unicode="&#x3ba;" horiz-adv-x="487" 
d="M333 0l-154 203v-203h-113v438h113v-188l153 188h143l-182 -206l190 -232h-150z" />
    <glyph glyph-name="lambda" unicode="&#x3bb;" horiz-adv-x="534" 
d="M93 749l123 -0.000976562l313 -749h-126l-87 216c-7.33301 17.333 -14.5 35.333 -21.5 54l-19.5 54c-3.33301 -9.33301 -7.5 -20.166 -12.5 -32.499s-10.333 -24.833 -16 -37.5l-16 -36.5l-12.5 -29.5l-82 -188h-133l213 457z" />
    <glyph glyph-name="uni03BC" unicode="&#x3bc;" horiz-adv-x="548" 
d="M66 438l112.997 -0.000976562v-224c0 -36 7.66699 -65.833 23 -89.5s39.666 -35.5 72.999 -35.5c16.667 0 30.834 3.66699 42.501 11s21.334 17 29.001 29s13.334 25.667 17.001 41s5.5 31 5.5 47v221h113v-438h-109v53c-7.33301 -16 -19.166 -31 -35.499 -45
s-37.833 -21 -64.5 -21c-26 0 -46.5 6.33301 -61.5 19s-25.833 25.334 -32.5 38.001v-245h-113v639z" />
    <glyph glyph-name="nu" unicode="&#x3bd;" horiz-adv-x="508" 
d="M3 438h129l87 -215c6 -15.333 12.5 -33 19.5 -53s13.167 -39.333 18.5 -58c5.33301 18.667 11.5 37.667 18.5 57s13.833 37.333 20.5 54l85 215h124l-192 -438h-117z" />
    </font>
</defs>
</svg>
